<svg xmlns="http://www.w3.org/2000/svg" fill="none" viewBox="0 0 46 24" height="32" width="56" class="header-logo">
  <g id="Buoy Logo">
    <path fill="#1F2322" d="M28.8487 20.1458C28.7158 20.1398 25.3997 20.1156 25.1149 20.0853C24.8301 20.049 24.558 20.0067 24.4694 19.9523C24.1973 19.789 24.0391 19.5894 24.0391 19.287C24.0391 18.664 24.0391 18.041 24.0517 17.4181C24.058 16.9221 24.4061 16.6016 24.9187 16.5955C25.1402 16.5955 25.3617 16.5955 25.5832 16.5955C26.5515 16.6076 30.2473 16.5169 31.2092 16.5048C31.2092 16.5048 32.0572 16.4806 31.5889 17.0189C31.3801 17.2608 31.1459 17.5935 30.4941 18.1197C29.8422 18.6519 29.8422 18.7487 29.8422 18.7487C30.9307 18.7305 32.0256 18.7668 33.114 18.8031C33.4621 18.8152 33.8102 18.8334 34.1582 18.8454C34.4493 18.8575 34.7025 18.9604 34.848 19.2204C34.867 19.2507 34.8797 19.2809 34.8923 19.3172C34.9493 19.4503 34.9873 19.6257 34.9936 19.7466C35.0062 20.3273 35.0252 20.9079 35.0252 21.4885C35.0316 22.0026 34.7847 22.1417 34.2532 22.1719C33.2343 22.2264 32.2597 22.2082 31.2408 22.2143C29.9119 22.2203 27.6716 22.2687 27.4944 22.1417C27.14 21.8877 27.4881 21.5248 27.9057 21.0772C28.5449 20.3817 28.8487 20.1458 28.8487 20.1458Z" id="Vector"></path>
    <path fill="#1F2322" d="M10.1232 17.2791C10.1105 15.4404 10.1232 13.5957 10.1042 11.7571C10.0915 10.7592 9.75612 9.87611 8.94608 9.19872C8.78154 9.05961 8.69294 8.90236 8.8828 8.73906C9.87636 7.89231 10.0725 6.79154 10.0219 5.60005C9.99027 4.80169 9.90168 4.01543 9.5726 3.2715C9.38274 2.85418 9.13594 2.47314 8.81319 2.14049C8.77522 2.09815 8.62333 1.953 8.5727 1.92276C8.52208 1.89252 8.47778 1.86227 8.42715 1.83808C7.61078 1.34213 6.71214 1.04577 5.73124 1.01553C4.20608 0.967144 2.68726 0.955047 1.1621 0.942951C0.712785 0.936903 0.352064 1.2756 0.364721 1.70502C0.383706 2.53362 0.295108 3.35013 0.295108 4.17268C0.301437 8.29754 0.295108 12.4224 0.295108 16.5533C0.295108 18.2891 0.307765 20.025 0.250809 21.7608C0.231824 22.3112 0.548246 22.6922 1.05452 22.7708C1.10515 22.7769 1.23805 22.795 1.37727 22.8071C1.54181 22.8192 1.71901 22.8374 1.79495 22.8374C3.02899 22.8374 4.25671 22.8434 5.49076 22.8374C6.27548 22.8313 7.04755 22.7285 7.77532 22.414C9.09164 21.8394 9.72448 20.7931 9.99027 19.4927C10.1422 18.7548 10.1295 18.017 10.1232 17.2791ZM4.47188 4.39646C4.80096 4.41461 5.13003 4.4267 5.45911 4.45694C5.76921 4.48114 5.98437 4.60815 6.20587 4.85612C6.22485 4.87427 6.24384 4.89846 6.2565 4.9287C6.34509 5.06176 6.42736 5.2795 6.42104 5.43675C6.40838 5.73916 6.41471 6.05971 6.31978 6.36212C6.15524 6.90646 5.70592 7.20887 5.11105 7.15443C4.87057 7.14839 4.63009 7.14234 4.38961 7.13629C4.22507 7.13024 4.13014 7.03952 4.11748 6.88831C4.06686 6.20487 4.0099 5.51538 3.97826 4.83193C3.97193 4.45694 4.07951 4.37832 4.47188 4.39646ZM4.04154 18.8516C4.1428 16.9525 3.9656 15.0594 4.04154 13.1603C4.06686 12.4708 4.08584 11.7813 4.10483 11.0918C4.11116 10.9104 4.17444 10.7894 4.38328 10.7954C4.72501 10.8015 5.06675 10.8015 5.40849 10.8196C5.68694 10.8317 5.85148 11.0011 6.04766 11.1946C6.0793 11.2249 6.10461 11.2611 6.12993 11.2914C6.33244 11.5515 6.32611 11.8176 6.31345 12.0958C6.26915 12.9546 6.23751 13.8135 6.31978 14.6723C6.34509 14.9566 6.35775 15.2409 6.38307 15.5251C6.45268 16.3961 6.47166 17.2791 6.51596 18.1561C6.52229 18.3496 6.48432 18.5371 6.41471 18.7125C6.2122 19.2206 5.69327 19.3839 5.06675 19.281C5.06675 19.281 5.06675 19.281 5.06042 19.281C4.84525 19.2447 4.62376 19.2568 4.40226 19.2387C4.15546 19.2085 4.02889 19.0875 4.04154 18.8516Z" id="Vector_2"></path>
    <path fill="#1F2322" d="M21.8436 18.3315C21.8436 18.7549 21.8183 19.1722 21.755 19.5956C21.4892 21.3738 20.3881 22.529 18.5592 22.9584C17.8314 23.1277 17.1099 23.1701 16.3822 23.1278C15.8443 23.0975 15.319 22.9886 14.8127 22.8132C14.6798 22.7649 14.5469 22.7165 14.4204 22.662C14.4077 22.656 14.3887 22.6499 14.3761 22.6439C13.1737 22.1056 12.4902 21.1802 12.1801 19.9766C12.0535 19.4746 11.9902 18.9666 11.9902 18.4465C12.0029 15.6461 11.9712 12.8458 12.0219 10.0455C12.0472 8.75122 12.0029 7.45691 12.0788 6.16865C12.1548 4.88038 12.0598 3.58607 12.1674 2.29781C12.1864 2.08008 12.1801 1.86234 12.1864 1.64461C12.1927 1.31196 12.4649 1.0156 12.8129 1.00955C13.5407 0.991402 14.2748 0.997451 15.0089 1.00955C15.1924 1.00955 15.319 1.08213 15.4266 1.18494C15.5152 1.26962 15.5848 1.37244 15.6354 1.48735C15.686 1.60832 15.7114 1.74138 15.7177 1.87444C15.724 3.38648 15.743 4.90458 15.743 6.41662C15.743 9.59797 15.8 12.7793 15.8632 15.9607C15.8822 16.8134 15.8506 17.6662 15.9202 18.519C15.9772 19.1964 16.2619 19.3416 16.9581 19.4505C16.9834 19.4565 17.0087 19.4565 17.0403 19.4565C17.6162 19.5109 18.0402 19.1783 18.0465 18.5251C18.0529 17.3275 18.0465 16.13 18.0465 14.9264C18.0465 13.7833 18.0149 12.6402 18.0655 11.5031C18.1288 10.0576 18.0529 8.61211 18.1225 7.1666C18.2048 5.47311 18.1478 3.77357 18.1794 2.08008C18.1858 1.88049 18.1984 1.6809 18.2364 1.48131C18.2934 1.19099 18.6667 0.943017 19.0148 0.949065C19.5274 0.955113 20.0337 0.973258 20.5463 0.943017C20.9513 0.918824 21.3057 0.973258 21.5778 1.20309C21.6474 1.26357 21.6981 1.33615 21.736 1.41478C21.7803 1.5055 21.8056 1.60227 21.8056 1.69904C21.8056 1.76557 21.812 1.8321 21.812 1.89863C21.8183 4.02759 21.8246 6.15655 21.8373 8.29156C21.8183 11.6362 21.831 14.9869 21.8436 18.3315Z" id="Vector_3"></path>
    <path fill="#1F2322" d="M42.2007 10.9646C42.1438 11.1037 42.1248 11.2368 42.1248 11.3819C42.1438 12.1319 42.1691 12.8758 42.1754 13.6258C42.2007 16.3354 42.2197 19.051 42.2387 21.7667C42.245 22.5166 41.8843 22.8553 41.0996 22.8614C40.7262 22.8674 39.9035 22.8553 39.4099 22.8312C39.2137 22.8191 39.0682 22.807 39.0175 22.7888C38.5492 22.6255 38.2771 22.3352 38.2771 21.8695C38.2708 20.7748 38.2391 19.68 38.2961 18.5914C38.3594 17.412 38.2898 16.2326 38.3467 15.0592C38.4037 13.8556 38.3784 12.646 38.4037 11.4424C38.4163 10.9404 38.1822 10.5171 38.0113 10.0816C37.1253 7.80747 36.214 5.54545 35.3091 3.27738C35.1319 2.82376 34.9547 2.37015 34.7522 1.92863C34.537 1.45083 34.9673 0.918586 35.4609 0.936731C36.1507 0.960923 36.8469 0.948827 37.5367 0.942779C37.8594 0.942779 38.1189 1.03955 38.2834 1.32381C38.2834 1.32986 38.3024 1.36615 38.3277 1.42663C38.5302 1.92863 39.4415 4.21485 39.8845 5.40634C39.9541 5.58778 40.0174 5.75713 40.2579 5.75108C40.4794 5.74504 40.5427 5.56964 40.606 5.40634C40.6123 5.39424 40.6313 5.34586 40.6629 5.26723C40.7958 4.94668 41.1249 4.16041 41.2894 3.74914C41.5932 2.98706 41.859 2.2129 42.1564 1.45083C42.2703 1.15447 42.5298 0.97302 42.8399 0.960923C43.5677 0.936731 44.3018 0.948827 45.0359 0.966972C45.3776 0.97302 45.6181 1.18471 45.77 1.44478C45.7763 1.45083 45.7826 1.46292 45.7889 1.46897C45.9029 1.68066 45.77 1.90444 45.6877 2.11008C44.46 5.0374 43.3715 8.01915 42.2007 10.9646Z" id="Vector_4"></path>
    <path fill="#1F2322" d="M33.1275 2.77549C32.9377 2.43679 32.5327 2.00737 32.2985 1.81383C32.2859 1.80173 32.2732 1.79568 32.2606 1.78358C32.0454 1.62633 31.7859 1.53561 31.5391 1.42069C30.2165 0.821923 28.8305 0.7312 27.4066 1.00337C25.2043 1.42069 24.0462 2.95693 23.9956 4.96493C23.9766 5.61208 23.9956 6.26529 24.0399 6.91244C24.1222 8.11603 24.1348 9.31962 24.1728 10.5232C24.1855 11.0313 24.2361 11.5333 24.3627 12.0232C24.5905 12.9243 25.0208 13.7106 25.8119 14.2852C26.1916 14.5573 26.6093 14.7569 27.0459 14.9202C27.1725 14.9686 27.2991 15.011 27.432 15.0533C28.3369 15.3436 29.3052 15.2468 30.2418 15.0654C32.1277 14.7025 33.2668 13.5292 33.5262 11.7087C33.5832 11.2913 33.6085 10.868 33.6085 10.4446C33.6022 8.82972 33.6465 7.2209 33.7224 5.61208C33.7604 4.63228 33.6402 3.66457 33.1275 2.77549ZM30.1215 8.61803C30.0899 9.30752 29.976 9.99702 29.8874 10.6865C29.8241 11.2006 29.3874 11.4909 28.7862 11.4304C28.7736 11.4304 28.7546 11.4304 28.7419 11.4244C28.1091 11.3518 27.742 11.1764 27.6661 10.5534C27.5395 9.5434 27.5965 8.52731 27.6788 7.51726C27.7357 6.85801 27.78 6.19876 27.8433 5.54555C27.8876 5.03751 28.1091 4.78348 28.5647 4.67462C29.0457 4.5597 29.571 4.7109 29.8431 5.03146C29.8684 5.0617 29.8874 5.08589 29.9064 5.11613C30.0962 5.38225 30.1089 5.62418 30.1215 5.88425C30.1595 6.79753 30.1658 7.7108 30.1215 8.61803Z" id="Vector_5"></path>
  </g>
</svg>
