<?xml version="1.0" encoding="UTF-8"?> <svg xmlns="http://www.w3.org/2000/svg" width="272" height="77" viewBox="0 0 272 77" fill="none"><path d="M30.924 39.3242C30.924 37.4149 29.3888 35.8671 27.4952 35.8671C25.6016 35.8671 24.0664 37.4149 24.0664 39.3242C24.0664 41.2336 25.6016 42.7814 27.4952 42.7814C29.3888 42.7814 30.924 41.2336 30.924 39.3242Z" fill="#1a1a1a"></path><path d="M28.2812 40.1763C26.8756 36.0918 27.3597 30.0982 29.7202 22.3621C31.4722 16.6197 33.6641 12.0076 33.686 11.9617L34.1259 12.1752C34.1041 12.2208 31.9262 16.8049 30.185 22.513C28.5847 27.7594 27.0354 35.0546 28.7426 40.0149L28.2812 40.1763Z" fill="#1a1a1a"></path><path d="M27.5828 38.8396C25.3757 37.3048 23.5826 35.0884 22.2537 32.2521C21.1957 29.9933 20.4278 27.3381 19.9715 24.3604C19.1962 19.2996 19.5964 14.9921 19.6006 14.9492L20.0865 14.9966C20.0825 15.0392 19.688 19.2947 20.4557 24.296C21.1604 28.8871 23.0171 35.0667 27.8599 38.4343L27.5828 38.8396Z" fill="#1a1a1a"></path><path d="M29.1275 38.4801L28.9864 38.0089C35.1994 36.1146 39.0789 32.6707 41.239 30.1151C43.5824 27.3432 44.4665 24.9878 44.4752 24.9643L44.9329 25.1357C44.8967 25.2341 44.0181 27.5811 41.6255 30.4168C39.4218 33.0288 35.4647 36.548 29.1275 38.4801Z" fill="#1a1a1a"></path><path d="M33.7968 39.8084C31.7795 39.8084 29.8553 39.5654 28.0416 39.08L28.1669 38.6042C35.186 40.4828 42.6065 38.2569 47.5954 36.0589C53.0133 33.6718 56.8073 30.805 56.8448 30.7763L57.139 31.1693C57.1008 31.1984 53.2609 34.1 47.791 36.51C44.5752 37.9268 41.4314 38.9007 38.4466 39.4044C36.8505 39.6738 35.2977 39.8084 33.7968 39.8084Z" fill="#1a1a1a"></path><path d="M27.4595 38.2327C25.287 35.3901 24.7206 31.4273 24.6282 28.6032C24.5282 25.5575 24.9432 23.1408 24.9474 23.1168L25.4283 23.2023C25.4119 23.2965 23.832 32.6798 27.8462 37.9322L27.4595 38.2327Z" fill="#1a1a1a"></path><path d="M25.5253 40.4248L25.2466 40.0206C30.6472 36.2368 31.9535 26.8108 31.9661 26.7159L32.4502 26.7811C32.4468 26.8054 32.1181 29.2354 31.11 32.1084C30.1755 34.7721 28.448 38.3771 25.5253 40.4248Z" fill="#1a1a1a"></path><path d="M28.9713 38.8024L28.9716 38.3101C29.1014 38.3101 38.5139 38.2614 42.9492 33.3824L43.3093 33.7152C40.9045 36.3606 37.1294 37.6026 34.3861 38.1789C31.4451 38.7965 29.0242 38.8024 28.9713 38.8024Z" fill="#1a1a1a"></path><path d="M28.4656 38.9014L28.1635 38.5145C33.297 34.4361 36.3381 29.1145 37.9854 25.3682C39.7735 21.3016 40.3515 18.1604 40.3572 18.1292L40.8376 18.217C40.8319 18.2487 40.2465 21.4367 38.4375 25.5543C36.7678 29.3556 33.6823 34.7569 28.4656 38.9014Z" fill="#1a1a1a"></path><path d="M26.1897 38.9456C19.2166 37.052 14.8929 33.0114 12.4938 29.9553C9.89238 26.6414 8.9548 23.8165 8.91628 23.698L9.38013 23.5443C9.38934 23.5727 10.3361 26.4187 12.8895 29.6661C15.242 32.658 19.4813 36.614 26.3168 38.4703L26.1897 38.9456Z" fill="#1a1a1a"></path><path d="M29.159 39.1286C22.6325 37.2158 19.2434 33.0915 17.5497 29.9684C15.7146 26.5847 15.4279 23.6956 15.4165 23.5744L15.9027 23.5281C15.9053 23.557 16.1954 26.4534 17.9881 29.7504C19.6381 32.7848 22.9391 36.793 29.2953 38.6559L29.159 39.1286Z" fill="#1a1a1a"></path><path d="M16.688 41.1493C13.185 41.1493 10.377 40.7382 8.29134 39.9163C5.30831 38.7406 4.97775 37.1277 4.96502 37.0594L5.44512 36.9691C5.44763 36.9813 5.77467 38.4269 8.56798 39.4962C11.1876 40.499 16.5398 41.3575 27.1618 39.7522L27.234 40.2391C23.2177 40.8461 19.6965 41.1493 16.688 41.1493Z" fill="#1a1a1a"></path><path d="M22.3309 39.3498C16.3171 39.3498 11.5631 37.8343 8.16944 34.8289C3.50834 30.701 3.16355 25.1445 3.16071 25.0888L3.64834 25.0624C3.65118 25.1161 3.99044 30.4777 8.49849 34.465C12.3422 37.8648 18.0064 39.3025 25.3329 38.7381L25.37 39.2289C24.3241 39.3096 23.3103 39.3498 22.3309 39.3498Z" fill="#1a1a1a"></path><path d="M40.6171 45.2911C40.5036 45.2911 40.3895 45.2901 40.2738 45.2879C36.8298 45.223 31.7534 44.0962 27.1265 39.0957L27.4833 38.7597C31.9937 43.6344 36.9334 44.7326 40.2829 44.7955C43.9128 44.8637 46.4971 43.7715 46.5229 43.7605L46.7143 44.2134C46.6088 44.2588 44.1643 45.2911 40.6171 45.2911Z" fill="#1a1a1a"></path><path d="M11.8662 46.5456C10.6684 46.5456 10.0543 46.3388 10.0156 46.3253L10.1754 45.8599C10.1893 45.8647 11.5858 46.3251 14.3244 45.7995C16.86 45.3129 21.0924 43.8581 26.8555 39.6914L27.14 40.0915C21.2736 44.3329 16.9518 45.8054 14.3592 46.2938C13.3525 46.4836 12.5217 46.5456 11.8662 46.5456Z" fill="#1a1a1a"></path><path d="M12.4039 24.8784C12.4039 23.5668 11.3494 22.5036 10.0486 22.5036C8.74782 22.5036 7.69336 23.5668 7.69336 24.8784C7.69336 26.19 8.74782 27.2532 10.0486 27.2532C11.3494 27.2532 12.4039 26.19 12.4039 24.8784Z" fill="#1a1a1a"></path><path d="M46.7265 25.0501C46.7265 23.7385 45.672 22.6753 44.3713 22.6753C43.0705 22.6753 42.0162 23.7385 42.0162 25.0501C42.0162 26.3617 43.0705 27.4249 44.3713 27.4249C45.672 27.4249 46.7265 26.3617 46.7265 25.0501Z" fill="#1a1a1a"></path><path d="M22.5256 14.973C22.5256 13.4193 21.2764 12.1597 19.7355 12.1597C18.1948 12.1597 16.9456 13.4193 16.9456 14.973C16.9456 16.5267 18.1948 17.7861 19.7355 17.7861C21.2764 17.7861 22.5256 16.5267 22.5256 14.973Z" fill="#1a1a1a"></path><path d="M42.9526 18.1731C42.9526 16.8617 41.8981 15.7983 40.5973 15.7983C39.2966 15.7983 38.2421 16.8617 38.2421 18.1731C38.2421 19.4847 39.2966 20.5479 40.5973 20.5479C41.8981 20.5479 42.9526 19.4847 42.9526 18.1731Z" fill="#1a1a1a"></path><path d="M17.9299 24.2498C17.9299 23.0925 16.9995 22.1544 15.8517 22.1544C14.704 22.1544 13.7736 23.0925 13.7736 24.2498C13.7736 25.407 14.704 26.3451 15.8517 26.3451C16.9995 26.3451 17.9299 25.407 17.9299 24.2498Z" fill="#1a1a1a"></path><path d="M6.97029 36.7454C6.79882 35.6011 5.74 34.8136 4.605 34.9865C3.47032 35.1594 2.68932 36.2272 2.86079 37.3715C3.03226 38.5157 4.09125 39.3032 5.22609 39.1303C6.36093 38.9574 7.14193 37.8896 6.97029 36.7454Z" fill="#1a1a1a"></path><path d="M59.9835 30.6584C59.8114 28.9924 58.3323 27.7827 56.68 27.9562C55.0277 28.13 53.8279 29.6212 54.0002 31.2872C54.1724 32.9532 55.6515 34.1629 57.3038 33.9893C58.956 33.8156 60.1558 32.3244 59.9835 30.6584Z" fill="#1a1a1a"></path><path d="M37.0319 11.4448C36.7096 9.80181 35.1271 8.7332 33.4974 9.05822C31.8679 9.38342 30.8081 10.9788 31.1305 12.622C31.4528 14.2652 33.0353 15.3338 34.6649 15.0086C36.2946 14.6836 37.3544 13.088 37.0319 11.4448Z" fill="#1a1a1a"></path><path d="M6.01581 24.0402C6.01581 22.3653 4.66914 21.0075 3.00799 21.0075C1.34667 21.0075 0 22.3653 0 24.0402C0 25.7152 1.34667 27.073 3.00799 27.073C4.66914 27.073 6.01581 25.7152 6.01581 24.0402Z" fill="#1a1a1a"></path><path d="M33.3251 26.7485C33.3251 26.1265 32.8249 25.6221 32.208 25.6221C31.591 25.6221 31.0908 26.1265 31.0908 26.7485C31.0908 27.3707 31.591 27.875 32.208 27.875C32.8249 27.875 33.3251 27.3707 33.3251 26.7485Z" fill="#1a1a1a"></path><path d="M39.1378 48.517C39.1149 48.5094 36.8033 47.7459 34.182 46.2288C31.7516 44.8224 28.5456 42.4599 27.074 39.1924L27.5186 38.9888C30.2378 45.0265 39.1981 48.0191 39.2883 48.0486L39.1378 48.517Z" fill="#1a1a1a"></path><path d="M39.0119 49.3908C39.6189 49.5029 40.201 49.0975 40.312 48.4856C40.423 47.8737 40.0211 47.2868 39.4143 47.1747C38.8073 47.0628 38.2252 47.468 38.114 48.0801C38.0031 48.6919 38.4052 49.2788 39.0119 49.3908Z" fill="#1a1a1a"></path><path d="M14.816 50.5656L14.6655 50.0972C14.7556 50.0679 23.7163 47.0753 26.4352 41.0374L26.8796 41.241C25.4084 44.5085 22.2023 46.871 19.772 48.2776C17.1507 49.7945 14.8392 50.558 14.816 50.5656Z" fill="#1a1a1a"></path><path d="M14.942 51.4394C14.3349 51.5515 13.753 51.1462 13.6418 50.5342C13.5308 49.9223 13.9327 49.3354 14.5397 49.2235C15.1466 49.1114 15.7287 49.5167 15.8397 50.1286C15.9507 50.7405 15.5488 51.3274 14.942 51.4394Z" fill="#1a1a1a"></path><path d="M26.5261 23.1172C26.501 22.3136 25.8347 21.6827 25.0376 21.7078C24.2407 21.7332 23.6149 22.405 23.6401 23.2085C23.665 24.0122 24.3315 24.6432 25.1284 24.6179C25.9253 24.5927 26.5513 23.9207 26.5261 23.1172Z" fill="#1a1a1a"></path><path d="M44.573 33.5488C44.573 32.7448 43.9267 32.0931 43.1293 32.0931C42.332 32.0931 41.6855 32.7448 41.6855 33.5488C41.6855 34.3527 42.332 35.0044 43.1293 35.0044C43.9267 35.0044 44.573 34.3527 44.573 33.5488Z" fill="#1a1a1a"></path><path d="M39.9791 42.9443C37.6543 42.9443 35.3701 42.3914 33.6158 41.8127C30.7433 40.8652 28.6332 39.6453 28.6123 39.633L28.8564 39.2066C28.9386 39.2544 37.1424 43.9618 43.4107 41.9558L43.5584 42.425C42.4003 42.7956 41.1841 42.9443 39.9791 42.9443Z" fill="#1a1a1a"></path><path d="M44.7363 42.9156C45.1337 42.2185 44.8952 41.3287 44.2038 40.9282C43.5126 40.5277 42.6301 40.7679 42.2327 41.4651C41.8355 42.1622 42.074 43.052 42.7652 43.4525C43.4566 43.8532 44.3391 43.6128 44.7363 42.9156Z" fill="#1a1a1a"></path><path d="M48.0321 44.3834C48.1052 43.5827 47.5207 42.8741 46.7268 42.8005C45.9328 42.7267 45.2298 43.316 45.1568 44.1166C45.0838 44.9173 45.6682 45.6259 46.4621 45.6997C47.2562 45.7733 47.9591 45.184 48.0321 44.3834Z" fill="#1a1a1a"></path><path d="M11.5215 45.8657C11.3973 45.0716 10.658 44.5294 9.87044 44.6547C9.0829 44.78 8.54504 45.5254 8.66929 46.3195C8.79371 47.1138 9.53286 47.6559 10.3206 47.5306C11.1081 47.4052 11.646 46.6599 11.5215 45.8657Z" fill="#1a1a1a"></path><path fill-rule="evenodd" clip-rule="evenodd" d="M25.8423 67.2903C25.5776 67.7657 24.1356 67.3557 24.1122 66.8269C24.0654 65.7633 25.1377 62.8838 25.5614 60.9081C27.006 54.1706 27.647 47.2992 27.3136 40.4693H28.0018C28.6378 47.5132 28.242 54.6338 27.002 61.6376C26.6683 63.5222 26.3241 66.4252 25.8423 67.2903Z" fill="#1a1a1a"></path><path d="M73.2987 55.7825C156.445 50.939 189.277 50.2147 268.104 53.058C172.27 48.0632 167.833 47.155 73.2987 55.7825Z" fill="#B3E1F7"></path><path d="M90.5991 46.9957L90.7085 47.1061C90.8543 47.2164 90.9273 47.3268 90.9273 47.4371C90.9273 47.5107 90.8908 47.6027 90.8179 47.713C90.5626 47.9705 90.2526 48.0993 89.888 48.0993C89.6327 48.0993 89.3592 48.0441 89.0674 47.9337C88.5569 47.5659 88.3016 46.9773 88.3016 46.168C88.3016 45.7634 88.3928 45.1564 88.5751 44.3472C88.7575 43.5379 88.8486 42.9309 88.8486 42.5263C88.8851 42.4159 88.9763 42.1768 89.1221 41.809C89.3045 41.4043 89.3956 41.1284 89.3956 40.9813C85.4207 44.6231 81.6463 46.4439 78.0724 46.4439C77.7078 46.4439 77.3431 46.4255 76.9784 46.3888C73.6234 44.7702 71.9641 42.8941 72.0006 40.7606C72.0371 38.4799 72.7299 35.9601 74.0792 33.2012C74.1522 33.0541 75.4468 30.7734 77.963 26.3591C78.7289 25.2924 79.7864 23.6554 81.1357 21.4483C81.6098 21.0804 82.1933 20.4183 82.8862 19.4619C83.5791 18.5055 84.1808 17.8433 84.6913 17.4755C84.8007 17.1076 85.0925 16.7398 85.5665 16.3719C86.0771 16.0041 86.3871 15.7282 86.4965 15.5443C88.9398 13.19 91.3284 11.8841 93.6624 11.6266C93.7718 11.737 94.1729 11.9025 94.8658 12.1232C95.3763 12.2704 95.6681 12.5463 95.741 12.9509C95.741 13.3923 95.6316 13.8153 95.4128 14.22C95.0481 14.4039 94.647 14.4959 94.2094 14.4959C94.027 14.4959 93.6988 14.4775 93.2247 14.4407C92.7507 14.4039 92.4225 14.4039 92.2401 14.4407C91.9119 14.5143 91.6019 14.6982 91.3102 14.9925C90.6902 15.1764 89.8697 15.7834 88.8486 16.8133C88.2287 17.1444 87.5176 17.8249 86.7153 18.8549C85.8401 19.9953 85.1472 20.731 84.6366 21.0621C83.9073 22.0185 82.6674 23.7658 80.9169 26.304C80.5887 26.8557 79.44 28.8605 77.4707 32.3184C75.6109 35.629 74.681 38.2224 74.681 40.0985C74.681 42.0113 75.4285 43.3724 76.9237 44.1816C77.3978 44.292 77.9083 44.3472 78.4554 44.3472C80.2423 44.3472 82.7585 43.3907 86.0042 41.4779C87.0252 40.8526 88.5569 39.5835 90.5991 37.6706C90.6355 37.4499 90.8361 36.7326 91.2008 35.5187C91.4925 34.4887 91.6384 33.6794 91.6384 33.0909C91.6384 32.5759 91.529 32.1528 91.3102 31.8218C88.9398 32.2264 87.0435 33.146 85.6212 34.5807C84.746 34.7278 84.0896 34.4151 83.652 33.6426C83.9437 32.7598 84.5819 32.0609 85.5665 31.5459C86.3688 31.1044 87.2076 30.6446 88.0828 30.1664C89.8333 29.6514 90.7814 29.3755 90.9273 29.3387C91.1096 29.2652 91.292 29.2284 91.4743 29.2284C91.6931 29.2284 91.9666 29.3204 92.2948 29.5043C92.5136 29.5411 92.6413 29.5595 92.6777 29.5595C92.7507 29.7066 93.0606 30.0193 93.6077 30.4975C94.0453 30.9021 94.2641 31.601 94.2641 32.5943C94.2641 34.1025 93.9541 35.721 93.3341 37.4499C92.933 38.4431 92.3495 39.9697 91.5837 42.0297C91.5472 42.3975 91.3467 43.2436 90.982 44.5679C90.6538 45.7082 90.5261 46.5175 90.5991 46.9957Z" fill="#1a1a1a"></path><path d="M110.698 42.5815C110.223 42.9861 109.658 43.5195 109.002 44.1816C108.054 44.7334 107.251 45.0093 106.595 45.0093C105.61 45.0093 104.936 44.3656 104.571 43.0781C104.498 42.9677 104.425 42.7286 104.352 42.3608C104.206 41.7722 104.06 41.4779 103.915 41.4779C103.878 41.4779 102.802 42.6366 100.687 44.9541C99.3379 46.168 97.6057 46.9221 95.4906 47.2164C94.4695 46.0393 93.9589 44.6598 93.9589 43.0781C93.9589 42.3792 94.0683 41.4595 94.2872 40.3192C94.506 38.9949 94.6336 38.0753 94.6701 37.5603C95.2171 34.8014 96.2382 32.116 97.7333 29.5043C98.1345 29.4307 98.5721 29.5595 99.0462 29.8905C99.1556 30.1848 99.2103 30.4423 99.2103 30.663C99.2103 30.9573 99.0644 31.3619 98.7727 31.8769C98.408 32.5391 98.2074 32.9437 98.171 33.0909C97.5875 34.8198 96.8946 37.2108 96.0923 40.264C96.0194 41.1836 95.9829 41.9745 95.9829 42.6366C95.9829 43.7034 96.0741 44.4575 96.2564 44.8989C97.2046 44.7518 97.9521 44.4943 98.4992 44.1264C98.5356 44.0897 99.1373 43.6115 100.304 42.6918C100.56 42.1768 101.471 40.9077 103.039 38.8845C104.206 37.3763 104.881 36.0153 105.063 34.8014C106.048 32.4103 106.996 30.4975 107.908 29.0629C108.528 28.6582 108.947 28.7686 109.166 29.3939C109.275 29.725 109.33 30.0377 109.33 30.332C109.33 30.8837 109.129 31.5827 108.728 32.4287C108.291 33.3851 108.035 34.0657 107.963 34.4703C106.941 35.7946 106.321 37.7258 106.103 40.264C106.139 40.4479 106.194 40.9445 106.267 41.7538C106.34 42.3791 106.54 42.747 106.868 42.8574C107.379 42.747 107.835 42.5631 108.236 42.3056C108.856 41.8642 109.239 41.6067 109.385 41.5331C109.822 41.0917 110.461 40.5031 111.299 39.7674L111.956 40.2088C111.737 41.2756 111.318 42.0665 110.698 42.5815Z" fill="#1a1a1a"></path><path d="M113.469 43.9609C117.663 42.3791 120.982 39.7674 123.425 36.1256C123.462 35.9417 123.626 35.5555 123.917 34.9669C124.209 34.3783 124.355 33.9001 124.355 33.5323C124.355 32.2816 123.534 31.4171 121.893 30.9389C120.836 30.755 119.797 30.5895 118.775 30.4423C118.593 30.5527 117.7 30.8837 116.095 31.4355C115.001 31.8402 114.235 32.3368 113.798 32.9253C113.725 33.1092 113.378 33.5139 112.758 34.1392C112.722 34.2128 112.485 34.5807 112.047 35.2428C111.755 33.4035 111.628 32.3184 111.664 31.9873C113.014 29.9641 115.22 28.603 118.283 27.9041C120.872 27.7938 123.206 28.4559 125.285 29.8905C126.379 31.4355 126.926 32.7414 126.926 33.8082C126.926 34.4335 126.762 35.0405 126.434 35.629C126.142 35.629 125.978 35.7578 125.941 36.0153C125.905 36.2728 125.85 36.5303 125.777 36.7878C125.704 37.0085 125.522 37.1556 125.23 37.2292C123.954 38.9213 122.368 40.5583 120.471 42.14C118.32 43.869 116.369 44.9909 114.618 45.5059C113.889 45.7266 113.415 45.9105 113.196 46.0577C112.758 46.352 112.576 46.8302 112.649 47.4923C112.321 49.0741 111.737 51.4467 110.898 54.6103C110.68 54.831 110.516 55.4195 110.406 56.376C109.932 58.1784 109.057 61.0109 107.78 64.8734C107.708 64.8366 107.343 64.8182 106.686 64.8182C106.322 64.855 106.066 64.6527 105.921 64.2112C105.884 63.5491 106.085 62.6295 106.522 61.4523C106.96 60.312 107.179 59.4475 107.179 58.859C107.179 58.6383 107.161 58.4176 107.124 58.1968C107.452 57.7186 107.744 56.9277 107.999 55.8242C108.291 54.5735 108.546 53.7458 108.765 53.3412C109.057 52.348 109.494 50.8582 110.078 48.8718C110.516 47.2532 110.68 45.6898 110.57 44.1816C110.935 44.0345 111.19 43.7034 111.336 43.1884C111.409 42.7838 111.5 42.3608 111.61 41.9193C111.573 41.294 111.682 40.5767 111.938 39.7674C112.23 38.7742 112.394 38.112 112.43 37.781C112.43 37.7074 112.485 37.0637 112.594 35.8498C112.667 35.0405 112.922 34.5071 113.36 34.2496C113.725 34.0289 114.29 34.1392 115.056 34.5807C115.202 34.6542 115.42 34.7278 115.712 34.8014C115.603 35.0957 115.402 35.9049 115.11 37.2292C114.928 38.3328 114.673 39.0685 114.345 39.4363C114.345 40.2088 114.108 41.294 113.634 42.6918C113.67 42.9125 113.615 43.3356 113.469 43.9609Z" fill="#1a1a1a"></path><path d="M136.344 28.6766C137.11 28.787 137.876 28.8789 138.641 28.9525C139.517 29.1364 140.228 29.4859 140.775 30.0009L140.83 31.0493C140.246 31.0861 139.207 31.0493 137.712 30.9389C136.8 30.8653 136.016 30.9389 135.359 31.1596C132.989 35.7578 131.858 39.6019 131.968 42.6918C131.968 43.1332 132.023 43.5563 132.132 43.9609C132.278 44.3288 132.661 44.5127 133.281 44.5127C133.645 44.5127 134.083 44.4391 134.594 44.292C134.995 44.2552 135.633 43.9609 136.508 43.4091C137.42 42.8574 138.277 42.5631 139.079 42.5263C138.423 44.5127 136.745 45.8554 134.047 46.5543C133.718 46.6279 133.427 46.6646 133.171 46.6646C132.187 46.6646 131.421 46.352 130.874 45.7266C130.217 44.6598 129.871 43.3907 129.835 41.9193C129.762 39.8961 130.272 37.4867 131.366 34.691C131.731 34.0289 132.15 32.9805 132.624 31.5459C131.348 31.5827 130.254 32.1896 129.342 33.3667C128.686 33.4035 128.175 32.815 127.811 31.601C127.884 31.1964 128.321 30.755 129.123 30.2768C129.67 29.7986 130.4 29.4675 131.311 29.2836C132.114 29.1732 132.916 29.0445 133.718 28.8973C135.432 25.5131 136.618 22.3128 137.274 19.2964C137.529 18.9285 137.803 18.7446 138.094 18.7446C138.569 18.7078 139.024 19.0573 139.462 19.793C139.353 22.3311 138.368 25.2556 136.508 28.5663C136.435 28.603 136.38 28.6398 136.344 28.6766Z" fill="#1a1a1a"></path><path d="M150.067 44.8438C149.666 45.0277 149.009 45.3772 148.098 45.8921C147.623 45.9289 146.858 45.6346 145.8 45.0093C145.764 44.715 145.618 44.2184 145.362 43.5195C145.107 42.8206 144.98 42.2688 144.98 41.8642C144.688 42.1952 144.487 42.4895 144.378 42.747C143.029 44.4391 142.245 45.3955 142.026 45.6163C140.968 46.5359 139.838 46.9037 138.634 46.7198C137.65 45.9473 137.157 44.807 137.157 43.2988C137.157 40.687 137.413 38.7006 137.923 37.3396C139.199 33.8082 141.734 30.6998 145.527 28.0145H146.402C147.241 28.0145 147.66 28.5111 147.66 29.5043C147.66 29.8354 147.551 30.4975 147.332 31.4907C147.149 31.9689 146.748 32.5943 146.128 33.3667C146.019 33.6242 145.581 33.8817 144.815 34.1392C144.998 33.1828 145.29 32.4471 145.691 31.9321C145.727 31.8218 145.818 31.5275 145.964 31.0493C146.001 30.9757 146.019 30.8653 146.019 30.7182C146.019 30.6078 146.001 30.4791 145.964 30.332C146.147 30.1848 146.238 30.0561 146.238 29.9457C146.019 29.9089 145.636 30.2216 145.089 30.8837C144.98 30.9573 144.797 31.1228 144.542 31.3803C140.786 35.721 138.871 39.657 138.798 43.1884C138.944 44.2552 139.272 44.8438 139.783 44.9541C141.023 44.6231 142.099 43.6666 143.01 42.0849C144.031 41.1652 144.943 39.5099 145.745 37.1188C146.147 36.1992 146.894 33.8633 147.988 30.1112C148.134 29.7802 148.535 29.5043 149.192 29.2836C149.52 29.6514 149.684 30.0561 149.684 30.4975C149.684 30.755 149.611 31.1044 149.465 31.5459C149.319 32.0976 149.228 32.4655 149.192 32.6494C147.733 36.6958 147.004 39.3811 147.004 40.7054C147.004 42.4343 147.35 43.6115 148.043 44.2368C148.189 44.2 148.645 43.9609 149.41 43.5195C150.067 43.1516 150.468 42.9677 150.614 42.9677C150.65 43.1516 150.669 43.3356 150.669 43.5195C150.669 44.2184 150.468 44.6598 150.067 44.8438Z" fill="#1a1a1a"></path><path d="M187.436 20.0137C186.962 20.4551 186.36 21.154 185.631 22.1104C185.011 22.5151 184.263 23.2508 183.388 24.3176C183.096 24.4279 182.713 24.7038 182.239 25.1452C181.802 25.5866 181.474 25.8625 181.255 25.9729C180.708 26.2304 179.45 27.0397 177.48 28.4007C175.876 29.4675 174.545 30.1848 173.487 30.5527C173.341 30.6262 171.883 31.3987 169.111 32.8701C168.455 34.8933 167.707 37.9465 166.868 42.0297C167.196 42.324 167.361 42.6918 167.361 43.1332C167.361 43.4275 167.16 44.1081 166.759 45.1748C166.686 45.3955 166.558 45.7818 166.376 46.3336C166.303 46.3704 166.084 46.5359 165.72 46.8302C165.537 47.0141 165.282 47.0509 164.954 46.9405C164.844 46.683 164.626 46.4991 164.297 46.3888C163.787 46.3152 163.55 46.0209 163.586 45.5059C163.513 45.0645 163.604 44.3656 163.86 43.4091C164.115 42.4159 164.243 41.717 164.243 41.3124C164.243 41.0917 164.224 40.8893 164.188 40.7054C164.589 39.3811 165.063 37.3763 165.61 34.691C165.501 34.6174 165.373 34.5807 165.227 34.5807C165.3 34.5807 164.68 34.783 163.367 35.1876C163.294 34.8933 163.258 34.6358 163.258 34.4151C163.258 33.753 163.531 33.33 164.078 33.146C164.662 32.9621 165.501 32.4655 166.595 31.6562C166.595 31.0677 166.814 30.2584 167.251 29.2284C167.689 28.1616 167.944 27.3523 168.017 26.8006C168.053 26.5063 168.309 25.789 168.783 24.6486C169.111 23.8026 169.275 23.0852 169.275 22.4967C169.275 22.2392 169.257 21.9817 169.22 21.7242C169.512 21.6138 169.695 21.3196 169.767 20.8413C169.877 20.3263 170.059 19.9953 170.314 19.8481C170.314 19.701 170.424 19.2596 170.643 18.5239C170.825 18.0089 170.916 17.5674 170.916 17.1996C170.004 17.4203 168.728 17.9169 167.087 18.6894C166.212 18.5055 165.701 18.3767 165.555 18.3032C165.008 18.0824 164.735 17.7146 164.735 17.1996C164.662 16.5742 165.063 16.1144 165.938 15.8201C166.558 15.8201 167.434 15.6178 168.564 15.2132C169.695 14.8085 170.533 14.5878 171.08 14.5511C173.852 13.7786 176.058 13.2636 177.699 13.0061C183.57 12.7854 187.162 14.2568 188.475 17.4203C188.475 18.3032 188.129 19.1676 187.436 20.0137ZM179.012 15.6546C177.334 15.5443 175.803 15.8569 174.417 16.5926C173.469 18.7998 173.031 20.2344 173.104 20.8965C172.484 21.8529 172.247 22.6438 172.393 23.2692C171.7 24.7406 170.861 27.0213 169.877 30.1112L170.971 29.7802C171.153 29.5595 171.591 29.2836 172.284 28.9525C172.977 28.6214 173.432 28.3088 173.651 28.0145C174.235 27.757 175.311 27.0948 176.879 26.0281C178.191 25.1452 179.304 24.5751 180.215 24.3176C180.544 23.8393 181.309 22.9749 182.513 21.7242C182.914 21.3196 183.516 20.7126 184.318 19.9033C184.974 19.1676 185.376 18.3951 185.521 17.5858C184.974 16.5926 183.99 16.0225 182.568 15.8753C181.765 15.8385 180.58 15.765 179.012 15.6546Z" fill="#1a1a1a"></path><path d="M185.32 33.4219C186.487 31.8769 187.708 30.4423 188.985 29.118C190.261 27.757 191.665 27.0029 193.197 26.8557C193.89 26.7822 194.528 26.8925 195.111 27.1868C195.512 27.7386 195.749 28.3272 195.822 28.9525C195.822 29.2836 195.677 30.2952 195.385 31.9873L194.619 32.0976C194.51 31.8769 194.4 31.1412 194.291 29.8905C194.218 29.1916 194.054 28.7318 193.798 28.5111C192.012 29.0629 190.371 30.2032 188.875 31.9321C188.182 32.6678 187.508 33.4035 186.851 34.1392C186.086 35.0221 185.575 35.8681 185.32 36.6774C185.064 36.7142 184.827 37.1924 184.609 38.1121C184.426 38.7742 184.262 39.1972 184.116 39.3811C183.788 39.9697 183.296 41.202 182.639 43.0781C182.676 43.3724 182.676 43.9793 182.639 44.8989C182.494 45.6714 182.129 46.1496 181.545 46.3336C181.399 46.0761 181.254 46.0025 181.108 46.1129C180.925 46.2968 180.761 46.3888 180.615 46.3888C180.324 46.3888 180.068 46.1496 179.85 45.6714C180.433 43.5379 181.709 38.5903 183.679 30.8286C183.533 30.4975 183.46 30.2216 183.46 30.0009C183.46 29.5962 183.715 29.3388 184.226 29.2284C185.429 29.0077 186.067 29.2468 186.14 29.9457C186.14 30.0193 186.086 30.24 185.976 30.6078C185.867 30.9389 185.83 31.3803 185.867 31.9321C185.648 31.9689 185.52 32.0241 185.484 32.0976C185.484 32.1712 185.502 32.3552 185.539 32.6494L185.374 33.146C185.374 33.2564 185.356 33.3484 185.32 33.4219Z" fill="#1a1a1a"></path><path d="M202.849 39.9329C202.557 40.0801 202.32 40.3743 202.138 40.8158C201.883 41.4411 201.718 41.7906 201.646 41.8642C201.208 42.4527 200.406 43.2804 199.239 44.3472C198.145 45.9289 196.54 46.8302 194.425 47.0509C193.841 47.0877 193.258 47.0509 192.675 46.9405C191.252 46.2416 190.341 44.8806 189.939 42.8574C190.049 41.6802 190.359 40.4111 190.869 39.0501C191.198 38.2408 191.672 37.0453 192.292 35.4635C192.583 35.1324 192.966 34.5439 193.44 33.6978C193.914 32.9621 194.407 32.4471 194.917 32.1528C195.391 31.3436 196.139 30.8286 197.16 30.6078C197.525 30.6814 198.126 30.3136 198.965 29.5043C198.929 29.3571 199.02 29.1364 199.239 28.8421C199.64 28.8054 200.005 28.787 200.333 28.787C200.88 28.787 201.317 28.8421 201.646 28.9525C203.141 30.0193 203.888 31.8034 203.888 34.3048C203.888 34.9301 203.834 35.5923 203.724 36.2912C203.651 36.9533 203.36 38.1672 202.849 39.9329ZM201.919 32.0425C201.81 31.2332 201.445 30.6814 200.825 30.3871L198.418 31.27L198.965 31.9321C199.002 32.3368 199.038 32.9253 199.075 33.6978C199.075 34.3599 198.874 34.8933 198.473 35.298C198.291 35.4083 198.108 35.4819 197.926 35.5187C197.415 35.5555 197.087 34.9485 196.941 33.6978C196.613 33.845 196.194 34.2312 195.683 34.8565C195.063 35.5923 194.626 36.0521 194.37 36.236C193.349 38.4431 192.802 39.7306 192.729 40.0985C192.401 41.0549 192.237 41.9745 192.237 42.8574C192.237 43.2988 192.273 43.7402 192.346 44.1816C192.602 44.5495 193.149 44.7702 193.987 44.8438C198.145 43.6299 200.898 40.2824 202.247 34.8014C202.138 33.7714 202.028 32.8518 201.919 32.0425Z" fill="#1a1a1a"></path><path d="M213.014 28.3455C214.437 28.1616 215.367 28.4927 215.804 29.3387C216.06 29.8905 216.187 30.9389 216.187 32.4839V35.1324C215.932 35.3532 215.768 35.629 215.695 35.9601C215.513 36.3647 215.294 36.9349 215.038 37.6706L214.874 38.1121C214.874 38.1856 214.838 38.3328 214.765 38.5535C213.999 40.2088 213.434 41.9009 213.069 43.6299C212.704 44.292 212.467 45.1013 212.358 46.0577C212.139 46.168 212.012 46.4071 211.975 46.775C211.975 47.1429 211.939 47.382 211.866 47.4923C210.589 52.164 209.751 55.0333 209.349 56.1001C207.271 61.7282 204.864 64.5423 202.129 64.5423C201.837 64.5423 201.545 64.4871 201.254 64.3768L199.996 63.1077C201.928 63.2548 203.205 62.6846 203.825 61.3972C204.59 60.6982 205.21 59.8522 205.684 58.859C207.727 54.5919 209.149 50.2512 209.951 45.837C209.149 46.2784 208.11 46.2968 206.833 45.8921C205.192 44.8622 204.226 43.7034 203.934 42.4159C203.679 41.3124 203.551 40.356 203.551 39.5467C203.551 38.7006 203.679 37.9465 203.934 37.2844C205.32 33.7898 206.815 31.3619 208.42 30.0009C209.258 29.4859 210.206 29.0813 211.264 28.787C211.848 28.6398 212.431 28.4927 213.014 28.3455ZM214.109 30.8837L213.999 30.7734C213.999 30.5527 213.926 30.4423 213.78 30.4423C213.671 30.4791 212.796 30.8102 211.155 31.4355C209.951 31.8769 209.313 32.2632 209.24 32.5943C208.438 33.1092 207.544 34.4703 206.56 36.6774C206.049 37.781 205.794 38.7926 205.794 39.7122C205.794 40.3008 205.903 40.9997 206.122 41.809C206.304 42.4711 206.924 43.262 207.982 44.1816C208.748 44.4023 209.55 43.9241 210.389 42.747C211.118 41.717 211.629 40.5215 211.92 39.1604C211.993 38.3512 212.34 37.358 212.96 36.1808C213.179 35.7762 213.434 35.3164 213.726 34.8014C213.726 34.6174 213.489 34.4151 213.014 34.1944C213.744 33.8633 214.109 33.3851 214.109 32.7598V30.8837Z" fill="#1a1a1a"></path><path d="M221.378 33.4219C222.545 31.8769 223.766 30.4423 225.043 29.118C226.319 27.757 227.723 27.0029 229.255 26.8557C229.948 26.7822 230.586 26.8925 231.169 27.1868C231.571 27.7386 231.808 28.3272 231.88 28.9525C231.88 29.2836 231.735 30.2952 231.443 31.9873L230.677 32.0976C230.568 31.8769 230.458 31.1412 230.349 29.8905C230.276 29.1916 230.112 28.7318 229.857 28.5111C228.07 29.0629 226.429 30.2032 224.933 31.9321C224.241 32.6678 223.566 33.4035 222.909 34.1392C222.144 35.0221 221.633 35.8681 221.378 36.6774C221.123 36.7142 220.885 37.1924 220.667 38.1121C220.484 38.7742 220.32 39.1972 220.174 39.3811C219.846 39.9697 219.354 41.202 218.697 43.0781C218.734 43.3724 218.734 43.9793 218.697 44.8989C218.552 45.6714 218.187 46.1496 217.603 46.3336C217.458 46.0761 217.312 46.0025 217.166 46.1129C216.983 46.2968 216.819 46.3888 216.673 46.3888C216.382 46.3888 216.126 46.1496 215.908 45.6714C216.491 43.5379 217.768 38.5903 219.737 30.8286C219.591 30.4975 219.518 30.2216 219.518 30.0009C219.518 29.5962 219.773 29.3388 220.284 29.2284C221.487 29.0077 222.125 29.2468 222.198 29.9457C222.198 30.0193 222.144 30.24 222.034 30.6078C221.925 30.9389 221.888 31.3803 221.925 31.9321C221.706 31.9689 221.578 32.0241 221.542 32.0976C221.542 32.1712 221.56 32.3552 221.597 32.6494L221.433 33.146C221.433 33.2564 221.414 33.3484 221.378 33.4219Z" fill="#1a1a1a"></path><path d="M241.254 44.8438C240.853 45.0277 240.196 45.3772 239.284 45.8921C238.81 45.9289 238.045 45.6346 236.987 45.0093C236.95 44.715 236.805 44.2184 236.549 43.5195C236.294 42.8206 236.166 42.2688 236.166 41.8642C235.875 42.1952 235.674 42.4895 235.565 42.747C234.215 44.4391 233.431 45.3955 233.213 45.6163C232.155 46.5359 231.025 46.9037 229.821 46.7198C228.836 45.9473 228.344 44.807 228.344 43.2988C228.344 40.687 228.599 38.7006 229.11 37.3396C230.386 33.8082 232.921 30.6998 236.713 28.0145H237.589C238.427 28.0145 238.847 28.5111 238.847 29.5043C238.847 29.8354 238.737 30.4975 238.519 31.4907C238.336 31.9689 237.935 32.5943 237.315 33.3667C237.206 33.6242 236.768 33.8817 236.002 34.1392C236.185 33.1828 236.476 32.4471 236.878 31.9321C236.914 31.8218 237.005 31.5275 237.151 31.0493C237.188 30.9757 237.206 30.8653 237.206 30.7182C237.206 30.6078 237.188 30.4791 237.151 30.332C237.333 30.1848 237.425 30.0561 237.425 29.9457C237.206 29.9089 236.823 30.2216 236.276 30.8837C236.166 30.9573 235.984 31.1228 235.729 31.3803C231.973 35.721 230.058 39.657 229.985 43.1884C230.131 44.2552 230.459 44.8438 230.97 44.9541C232.21 44.6231 233.285 43.6666 234.197 42.0849C235.218 41.1652 236.13 39.5099 236.932 37.1188C237.333 36.1992 238.081 33.8633 239.175 30.1112C239.321 29.7802 239.722 29.5043 240.378 29.2836C240.707 29.6514 240.871 30.0561 240.871 30.4975C240.871 30.755 240.798 31.1044 240.652 31.5459C240.506 32.0976 240.415 32.4655 240.378 32.6494C238.92 36.6958 238.19 39.3811 238.19 40.7054C238.19 42.4343 238.537 43.6115 239.23 44.2368C239.376 44.2 239.831 43.9609 240.597 43.5195C241.254 43.1516 241.655 42.9677 241.801 42.9677C241.837 43.1516 241.855 43.3356 241.855 43.5195C241.855 44.2184 241.655 44.6598 241.254 44.8438Z" fill="#1a1a1a"></path><path d="M248.288 29.0629C248.726 29.725 248.945 30.6078 248.945 31.7114C248.945 32.9621 248.617 34.3048 247.96 35.7394C247.96 36.2176 247.833 36.9901 247.577 38.0569C247.358 39.0869 247.286 39.8777 247.358 40.4295C248.489 39.0317 250.239 36.9533 252.61 34.1944C254.543 31.9137 256.494 30.1112 258.463 28.787C259.52 29.1916 260.049 30.0928 260.049 31.4907C260.049 31.7482 260.013 32.3184 259.94 33.2012C259.867 33.9001 259.849 34.4519 259.885 34.8565C259.447 36.328 258.864 38.6087 258.135 41.6986C258.171 41.7354 258.226 41.7354 258.299 41.6986C259.32 40.7422 260.541 39.1788 261.964 37.0085C263.422 34.8382 264.571 33.3667 265.41 32.5943C267.051 31.0861 268.017 30.2032 268.309 29.9457C268.747 29.6146 269.567 29.0996 270.771 28.4007C271.354 28.4007 271.755 28.7134 271.974 29.3387C272.083 30.6998 271.846 32.2632 271.263 34.0289C270.351 36.6039 269.859 38.1121 269.786 38.5535C269.02 42.5999 268.674 45.3404 268.747 46.775H268.801C268.947 46.775 269.184 46.8486 269.513 46.9957C269.44 47.4739 269.239 47.8234 268.911 48.0441C268.874 48.0441 268.491 48.1912 267.762 48.4855C266.887 47.713 266.449 46.5727 266.449 45.0645C266.449 44.6231 266.486 43.9977 266.559 43.1884C266.632 42.3424 266.668 41.6986 266.668 41.2572C266.923 39.9697 267.379 38.296 268.036 36.236C268.838 33.7714 269.348 32.116 269.567 31.27H269.458C269.348 31.3435 269.221 31.5091 269.075 31.7666C268.929 32.0241 268.82 32.1528 268.747 32.1528C268.09 32.631 267.525 33.1828 267.051 33.8082C266.066 35.0589 265.319 35.9601 264.808 36.5119C263.751 37.8729 262.237 39.7674 260.268 42.1952C259.32 43.3724 258.682 44.0897 258.353 44.3472C257.186 45.3772 256.311 45.837 255.728 45.7266C255.655 45.4691 255.655 45.1197 255.728 44.6782C255.837 44.0529 255.892 43.6666 255.892 43.5195C255.892 43.0045 256.02 41.809 256.275 39.9329C256.384 39.3444 256.694 38.204 257.205 36.5119C257.351 36.1073 257.442 35.6658 257.478 35.1876C257.478 34.8933 257.46 34.5071 257.423 34.0289C257.387 33.5507 257.369 33.238 257.369 33.0909C257.369 32.7598 257.351 32.4471 257.314 32.1528C256.585 32.5943 255.71 33.5139 254.688 34.9117C253.558 36.4199 252.701 37.4131 252.117 37.8913C251.388 38.9581 250.239 40.2456 248.671 41.7538C247.285 43.0413 246.319 44.2368 245.772 45.3404C245.736 45.2668 245.59 45.3404 245.334 45.5611C245.116 45.7818 244.988 45.8921 244.952 45.8921C244.879 45.8554 244.787 45.837 244.678 45.837C244.423 45.8738 244.24 45.8921 244.131 45.8921C243.839 45.8921 243.566 45.8002 243.311 45.6163C243.493 43.8874 244.04 41.6067 244.952 38.7742C245.936 35.6842 246.483 33.4035 246.593 31.9321C246.52 31.0125 246.319 30.1296 245.991 29.2836C246.611 28.7318 247.377 28.6582 248.288 29.0629Z" fill="#1a1a1a"></path></svg> 