<svg id="Group_4" data-name="Group 4" xmlns="http://www.w3.org/2000/svg" width="216.083" height="63.406" viewBox="0 0 216.083 63.406">
  <path id="Path_133" data-name="Path 133" d="M12.453,86.58h-.088v-2.2H8.092v24.4h4.581v-13.7c0-4.1,2.026-6.519,5.99-6.651V83.717C15.448,83.893,13.554,84.95,12.453,86.58Z" transform="translate(-8.092 -45.99)" fill="#1a1a1a"/>
  <path id="Path_134" data-name="Path 134" d="M42.657,83.717c-6.475,0-12.289,5.374-12.289,13.082,0,6.519,5.55,12.6,12.421,12.6a12.5,12.5,0,0,0,11.716-8.281H49.925a7.861,7.861,0,0,1-6.96,4.1c-3.744,0-6.96-2.6-8.016-6.651H55.166A13.86,13.86,0,0,0,55.3,96.27,12.429,12.429,0,0,0,42.657,83.717Zm-7.708,11.32a7.924,7.924,0,0,1,15.769,0Z" transform="translate(-19.104 -45.99)" fill="#1a1a1a"/>
  <rect id="Rectangle_13" data-name="Rectangle 13" width="4.581" height="32.595" transform="translate(40.975 30.195)" fill="#1a1a1a"/>
  <rect id="Rectangle_14" data-name="Rectangle 14" width="4.581" height="24.402" transform="translate(51.657 38.388)" fill="#1a1a1a"/>
  <path id="Path_135" data-name="Path 135" d="M141.159,83.717c-6.475,0-12.289,5.374-12.289,13.082,0,6.519,5.55,12.6,12.421,12.6a12.5,12.5,0,0,0,11.717-8.281h-4.581a7.861,7.861,0,0,1-6.96,4.1c-3.744,0-6.959-2.6-8.016-6.651h20.218a13.858,13.858,0,0,0,.132-2.291A12.43,12.43,0,0,0,141.159,83.717Zm-7.708,11.32a7.924,7.924,0,0,1,15.769,0Z" transform="translate(-67.8 -45.99)" fill="#1a1a1a"/>
  <path id="Path_136" data-name="Path 136" d="M185.555,75.913v1.1H183.4V81.2h2.159v20.218h4.581V81.2h4.273V77.014h-4.273V75.869c0-1.806,1.278-2.863,4.273-2.863V68.821h-1.013C188.858,68.821,185.555,71.243,185.555,75.913Z" transform="translate(-94.756 -38.626)" fill="#1a1a1a"/>
  <path id="Path_137" data-name="Path 137" d="M224.914,76.353a10.187,10.187,0,0,0-8.369,4.052h-.088V68.821h-4.581v32.595h4.537V97.892h.088a10.741,10.741,0,0,0,8.809,4.14c6.872,0,12.245-5.99,12.245-12.817A12.832,12.832,0,0,0,224.914,76.353Zm-.265,21.5a8.663,8.663,0,0,1-.043-17.31,8.661,8.661,0,0,1,.043,17.31Z" transform="translate(-108.835 -38.626)" fill="#1a1a1a"/>
  <path id="Path_138" data-name="Path 138" d="M290.7,87.813h-.088a9.722,9.722,0,0,0-8.457-4.1c-7.18,0-12.774,5.462-12.774,13.258,0,7.048,5.814,12.421,12.95,12.421a9.274,9.274,0,0,0,8.281-4.4h.088v3.788h4.581v-24.4H290.7Zm-8.413,17.4a8.662,8.662,0,0,1,0-17.31,8.419,8.419,0,0,1,8.5,8.721A8.581,8.581,0,0,1,282.286,105.212Z" transform="translate(-137.263 -45.99)" fill="#1a1a1a"/>
  <path id="Path_139" data-name="Path 139" d="M344.289,83.717a8.538,8.538,0,0,0-7.135,3.259h-.088v-2.6h-4.272v24.4h4.581V95.434c0-4.581,2.423-7.532,6.431-7.532,4.052,0,6.078,2.423,6.078,7.576v13.3h4.581V94.156C354.464,87.417,350.147,83.717,344.289,83.717Z" transform="translate(-168.612 -45.99)" fill="#1a1a1a"/>
  <path id="Path_140" data-name="Path 140" d="M405.8,68.821V80.009h-.088a10.577,10.577,0,0,0-8.413-3.656c-7.268,0-12.553,5.682-12.553,13.126a12.413,12.413,0,0,0,12.685,12.553,10.375,10.375,0,0,0,8.633-4.1h.088v3.48h4.229V68.821Zm-8.148,29.027a8.662,8.662,0,0,1,0-17.31c5.153,0,8.5,3.92,8.5,8.9A8.517,8.517,0,0,1,397.647,97.848Z" transform="translate(-194.294 -38.626)" fill="#1a1a1a"/>
  <path id="Path_141" data-name="Path 141" d="M210.318,17.779a4.476,4.476,0,1,0-4.476,4.476A4.481,4.481,0,0,0,210.318,17.779Z" transform="translate(-103.64 -11.18)" fill="#1a1a1a"/>
  <path id="Path_142" data-name="Path 142" d="M233.032,34.679a4.175,4.175,0,1,0-4.175-4.175A4.179,4.179,0,0,0,233.032,34.679Z" transform="translate(-117.23 -17.62)" fill="#1a1a1a"/>
  <path id="Path_143" data-name="Path 143" d="M257.511,39.654a4.221,4.221,0,1,0,4.221,4.222A4.226,4.226,0,0,0,257.511,39.654Z" transform="translate(-129.309 -24.207)" fill="#1a1a1a"/>
  <path id="Path_144" data-name="Path 144" d="M285.079,61.73a4.268,4.268,0,1,0-4.268-4.268A4.272,4.272,0,0,0,285.079,61.73Z" transform="translate(-142.914 -30.901)" fill="#1a1a1a"/>
  <path id="Path_145" data-name="Path 145" d="M314.161,56.286a4.572,4.572,0,1,0,4.572,4.572A4.577,4.577,0,0,0,314.161,56.286Z" transform="translate(-157.142 -32.429)" fill="#1a1a1a"/>
  <path id="Path_146" data-name="Path 146" d="M345.715,59.947a3.39,3.39,0,1,0-3.389-3.389A3.393,3.393,0,0,0,345.715,59.947Z" transform="translate(-173.325 -30.888)" fill="#1a1a1a"/>
  <path id="Path_147" data-name="Path 147" d="M367.929,42.164a2.309,2.309,0,1,0-2.309-2.309A2.311,2.311,0,0,0,367.929,42.164Z" transform="translate(-184.841 -23.165)" fill="#1a1a1a"/>
  <path id="Path_148" data-name="Path 148" d="M146.906,24.246a5.288,5.288,0,1,0-5.288-5.288A5.294,5.294,0,0,0,146.906,24.246Z" transform="translate(-74.102 -11.361)" fill="#1a1a1a"/>
  <path id="Path_149" data-name="Path 149" d="M181.739,13.418a4.314,4.314,0,1,0-4.314,4.314A4.319,4.319,0,0,0,181.739,13.418Z" transform="translate(-89.671 -9.104)" fill="#1a1a1a"/>
  <path id="Path_150" data-name="Path 150" d="M128.7,41.765a5.641,5.641,0,1,0-5.641,5.641A5.647,5.647,0,0,0,128.7,41.765Z" transform="translate(-62.141 -22.462)" fill="#1a1a1a"/>
  <circle id="Ellipse_4" data-name="Ellipse 4" cx="2.925" cy="2.925" r="2.925" transform="translate(50.974 28.783)" fill="#1a1a1a"/>
</svg>
