<svg xmlns="http://www.w3.org/2000/svg" fill="none" viewBox="0 0 162 37" height="37" width="162">
<g clip-path="url(#clip0_150_161)">
<path fill="#6E6F71" d="M121.151 35.3838L121.132 36.0461H118.034V30.8679H118.746V35.3838H121.155H121.151Z"></path>
<path fill="#6E6F71" d="M123.452 30.8679H124.176V36.0461H123.452V30.8679Z"></path>
<path fill="#6E6F71" d="M130.95 30.8679L129.107 36.0461H128.297L126.454 30.8679H127.24L128.545 34.8377L128.712 35.3684H128.731L128.89 34.8377L130.203 30.8679H130.95Z"></path>
<path fill="#6E6F71" d="M133.227 30.8679H133.951V36.0461H133.227V30.8679Z"></path>
<path fill="#6E6F71" d="M140.149 36.0461L137.705 32.483L137.403 32.0143L137.387 32.0221L137.395 32.5798V36.0461H136.76V30.8679H137.403L140.025 34.7835L140.04 34.7758L140.025 34.2219V30.8679H140.652V36.0461H140.149Z"></path>
<path fill="#6E6F71" d="M146.957 35.748C146.585 35.9262 146.019 36.0462 145.45 36.0462C143.816 36.0462 143.115 35.2252 143.115 33.3739C143.115 31.5226 143.839 30.6821 145.469 30.6821C145.953 30.6821 146.476 30.7867 146.844 30.9377L146.763 31.5729C146.403 31.4219 145.977 31.3328 145.508 31.3328C144.354 31.3328 143.866 31.8014 143.866 33.37C143.866 34.9386 144.3 35.3878 145.435 35.3878C145.787 35.3878 146.077 35.3414 146.333 35.2445V33.2151H146.96V35.7558L146.957 35.748Z"></path>
<path fill="#6E6F71" d="M88.6305 30.8679H89.3547V36.0461H88.6305V30.8679Z"></path>
<path fill="#6E6F71" d="M93.9441 36.0461H92.1548V30.8679H93.9286C95.5011 30.8679 96.1595 31.6193 96.1595 33.4357C96.1595 35.2522 95.4352 36.0461 93.9441 36.0461ZM93.9247 31.5302H92.8597V35.3877H93.9286C94.9433 35.3877 95.4197 35.0004 95.4197 33.4357C95.4197 31.871 94.9859 31.5302 93.9209 31.5302H93.9247Z"></path>
<path fill="#6E6F71" d="M101.949 35.4032L101.93 36.0461H98.6299V30.8679H101.814L101.833 31.5186H99.3348V33.06H101.477V33.6526H99.3348V35.4071H101.953L101.949 35.4032Z"></path>
<path fill="#6E6F71" d="M103.786 36.0461L105.629 30.8679H106.439L108.282 36.0461H107.496L106.191 32.0763L106.024 31.5457H106.005L105.846 32.0763L104.533 36.0461H103.786Z"></path>
<path fill="#6E6F71" d="M113.596 35.3838L113.576 36.0461H110.478V30.8679H111.191V35.3838H113.6H113.596Z"></path>
<path fill="#6E6F71" d="M79.9349 36.046H78.7188V32.8701H79.8846C80.512 32.8701 80.8296 33.1412 80.8296 33.6602C80.8296 34.0553 80.6398 34.276 80.3765 34.3651V34.3728C80.7405 34.458 80.9574 34.6982 80.9574 35.1436C80.9574 35.7052 80.6708 36.046 79.9388 36.046H79.9349ZM79.8691 33.2497H79.1371V34.2334H79.9001C80.2486 34.2334 80.4113 34.0707 80.4113 33.7377C80.4113 33.3852 80.2409 33.2497 79.8691 33.2497ZM79.9194 34.5704H79.1371V35.6703H79.9388C80.3106 35.6703 80.5236 35.527 80.5236 35.1087C80.5236 34.7408 80.3339 34.5704 79.9233 34.5704H79.9194Z"></path>
<path fill="#6E6F71" d="M81.8017 32.8701L82.4911 34.2644L82.6383 34.5742H82.6499L82.7893 34.2644L83.4787 32.8701H83.959L82.859 34.9693V36.046H82.4175V34.9693L81.2982 32.8701H81.7978H81.8017Z"></path>
<path fill="#6E6F71" d="M64.4744 24.2641H56.2017V0.313477H64.4086C71.6898 0.313477 74.7262 3.79531 74.7262 12.1959C74.7262 20.5964 71.3722 24.268 64.4744 24.268V24.2641ZM64.3814 3.37702H59.4627V21.2316H64.4124C69.1065 21.2316 71.3102 19.4422 71.3102 12.192C71.3102 4.94172 69.2963 3.37702 64.3814 3.37702Z"></path>
<path fill="#6E6F71" d="M85.8728 24.6821C80.1252 24.6821 77.569 21.8703 77.569 14.8137C77.569 7.75709 80.1562 4.91431 85.8728 4.91431C91.5893 4.91431 94.0487 7.75709 94.0487 14.8137C94.0487 21.8703 91.5893 24.6821 85.8728 24.6821ZM85.8728 22.1259C89.5444 22.1259 90.9503 20.2398 90.9503 14.8137C90.9503 9.38763 89.5444 7.4976 85.8728 7.4976C82.2011 7.4976 80.6984 9.3489 80.6984 14.8137C80.6984 20.2785 82.1353 22.1259 85.8728 22.1259Z"></path>
<path fill="#6E6F71" d="M109.22 8.582C108.1 8.07076 106.729 7.71832 105.354 7.71832C101.233 7.71832 99.6997 9.69742 99.6997 14.6161C99.6997 19.9802 101.648 21.9632 105.288 21.9632C106.791 21.9632 108.197 21.5798 109.343 20.8788L109.568 23.3691C108.449 24.136 106.659 24.6782 104.649 24.6782C99.3163 24.6782 96.5703 21.6108 96.5703 14.6161C96.5703 8.1947 99.0607 4.9375 104.746 4.9375C106.439 4.9375 108.162 5.32093 109.409 5.86315L109.216 8.57812L109.22 8.582Z"></path>
<path fill="#6E6F71" d="M117.011 7.59468V19.2834C117.011 21.2625 118.065 22.0603 119.788 22.0603C120.33 22.0603 121 21.9635 121.384 21.8047L121.574 24.1053C121 24.3919 119.943 24.5855 118.924 24.5855C115.667 24.5855 113.975 22.7652 113.975 19.3802V7.59468H111.326V5.23215H114.072L114.645 0.507083L117.007 0.251465V5.23215H121.701V7.59468H117.007H117.011Z"></path>
<path fill="#6E6F71" d="M132.02 24.6821C126.272 24.6821 123.716 21.8703 123.716 14.8137C123.716 7.75709 126.303 4.91431 132.02 4.91431C137.737 4.91431 140.196 7.75709 140.196 14.8137C140.196 21.8703 137.737 24.6821 132.02 24.6821ZM132.02 22.1259C135.692 22.1259 137.097 20.2398 137.097 14.8137C137.097 9.38763 135.692 7.4976 132.02 7.4976C128.348 7.4976 126.846 9.3489 126.846 14.8137C126.846 20.2785 128.283 22.1259 132.02 22.1259Z"></path>
<path fill="#6E6F71" d="M143.805 24.2641V5.35606L146.233 5.19727L146.489 9.28716H146.551C147.732 6.5412 149.808 4.94165 152.395 4.94165C153.1 4.94165 153.77 5.03848 154.282 5.19727L154.092 8.26469C153.519 8.07491 152.88 8.00907 152.206 8.00907C149.235 8.00907 146.842 10.5304 146.842 14.6203V24.2641H143.809H143.805Z"></path>
<path fill="#6E6F71" d="M159.142 0C160.718 0 162 1.29746 162 2.88926C162 4.48107 160.722 5.76303 159.142 5.76303C157.562 5.76303 156.283 4.46557 156.283 2.88926C156.283 1.31295 157.562 0 159.142 0ZM159.161 5.38347C160.505 5.38347 161.62 4.25256 161.62 2.89313C161.62 1.53371 160.509 0.402792 159.161 0.402792C157.813 0.402792 156.651 1.49885 156.651 2.89313C156.651 4.28742 157.782 5.38347 159.161 5.38347ZM159.874 3.07129L160.687 4.48494H160.106L159.374 3.10615H158.46V4.48494H157.945V1.1619H159.359C160.257 1.1619 160.571 1.56082 160.571 2.14177C160.571 2.57555 160.323 2.9551 159.874 3.07129ZM159.374 1.61117H158.46V2.70723H159.455C159.87 2.70723 160.071 2.47485 160.071 2.15726C160.071 1.7932 159.874 1.6073 159.374 1.6073V1.61117Z"></path>
<path fill="url(#paint0_linear_150_161)" d="M30.4108 0.290283C30.283 0.681457 30.2404 0.894472 30.2404 1.42895V22.897C30.2404 23.4315 30.283 23.6445 30.4108 24.0357H25.3294C25.4573 23.5748 25.4999 23.2882 25.4999 22.897V1.42895C25.4999 1.03777 25.4573 0.751171 25.3294 0.290283H30.4108ZM15.7825 15.6622L18.9661 23.0403C19.1365 23.4663 19.1791 23.6445 19.1791 24.0357H24.733C24.3496 23.5748 24.2218 23.3966 24.0514 23.0403L14.4386 1.07263C14.3107 0.751171 14.2681 0.573012 14.2255 0.290283H10.124C10.0814 0.611742 10.0388 0.789901 9.91102 1.14622L0.596443 23.0403C0.42603 23.3966 0.298221 23.6445 0 24.0357H2.69174C2.69174 23.6096 2.73434 23.3966 2.86215 23.0403L10.8057 4.13618L14.9847 13.8187M11.2859 13.749C10.0466 13.749 9.04346 14.7521 9.04346 15.9914C9.04346 17.2308 10.0466 18.2339 11.2859 18.2339C12.5253 18.2339 13.5284 17.2308 13.5284 15.9914C13.5284 14.7521 12.5253 13.749 11.2859 13.749ZM48.5481 19.5778C46.6542 16.5337 44.7332 14.3648 42.8354 12.8621H42.9013C44.4388 12.6103 45.1205 12.467 46.0616 12.1494C48.9664 11.2238 50.5892 9.30276 50.5892 6.73883C50.5892 2.89294 46.9602 0.294156 41.6619 0.294156H32.9902C33.1181 0.793774 33.1607 1.0765 33.1607 1.43282V22.9009C33.1607 23.3618 33.1181 23.6135 32.9902 24.0395H38.1181C37.9903 23.5787 37.9477 23.3269 37.9477 22.9009V13.6328C40.5116 15.1859 43.2498 17.9279 46.05 22.4284C58.6024 42.5912 73.1068 30.217 73.1068 30.217C73.1068 30.217 61.1005 39.7407 48.5481 19.5778ZM37.9012 10.3252V2.03313H39.9074C41.658 2.03313 42.8548 2.35459 43.8385 3.06723C45.0353 3.92316 45.7595 5.41814 45.7595 6.91312C45.7595 9.46156 43.8656 11.3012 41.0345 11.6266C39.9733 11.0108 38.9276 10.5847 37.9012 10.3252Z"></path>
</g>
<defs>
<linearGradient gradientUnits="userSpaceOnUse" y2="2.12221" x2="1.99072" y1="34.7561" x1="68.2075" id="paint0_linear_150_161">
<stop stop-color="#2BABE2"></stop>
<stop stop-color="#315FAB" offset="0.46"></stop>
<stop stop-color="#2BABE2" offset="0.97"></stop>
</linearGradient>
<clipPath id="clip0_150_161">
<rect fill="white" height="36.046" width="162"></rect>
</clipPath>
</defs>
</svg>
