<?xml version="1.0" encoding="UTF-8"?>
<svg version="1.1" xmlns="http://www.w3.org/2000/svg" width="960" height="854">
<path d="M0 0 C0.81130371 0.13921875 1.62260742 0.2784375 2.45849609 0.421875 C44.23383182 7.77447025 83.2671514 28.34728106 113.3125 58.0625 C114.31023437 59.04609497 114.31023437 59.04609497 115.328125 60.04956055 C116.24271484 60.97055542 116.24271484 60.97055542 117.17578125 61.91015625 C117.72145752 62.45808838 118.26713379 63.00602051 118.8293457 63.57055664 C120 65 120 65 120 67 C120.66 67 121.32 67 122 67 C123.24814331 68.40678023 124.4230839 69.87879704 125.5625 71.375 C129.18685435 76.06143622 133.07375157 80.34469286 137.21484375 84.578125 C139.30499174 87.41377436 139.68393754 89.52832986 140 93 C135.25 92.125 135.25 92.125 133 91 C133 90.34 133 89.68 133 89 C132.45859375 88.74476563 131.9171875 88.48953125 131.359375 88.2265625 C128.54553661 86.76373923 125.92491222 85.07906845 123.25 83.375 C116.37915411 79.07066097 109.21641853 75.46852627 101.92407227 71.93994141 C99.9208266 70.96132247 97.93342413 69.95427617 95.9453125 68.9453125 C53.41019198 47.65970485 3.48665166 42.95864236 -41.90625 57.19140625 C-48.89794353 59.57708546 -55.57089788 62.53197833 -62.20458984 65.76513672 C-66.80709285 68 -66.80709285 68 -69 68 C-69 68.66 -69 69.32 -69 70 C-69.71542969 70.31710938 -70.43085937 70.63421875 -71.16796875 70.9609375 C-78.10606618 74.21008532 -83.88539129 77.92013985 -89.80932617 82.74755859 C-93.82042163 86 -93.82042163 86 -96 86 C-96 86.66 -96 87.32 -96 88 C-97.57980635 89.36656253 -99.21668653 90.66735132 -100.875 91.9375 C-106.91120304 96.76335899 -111.935582 102.15979335 -117 108 C-117.92232422 109.01707031 -117.92232422 109.01707031 -118.86328125 110.0546875 C-127.85101563 119.66440577 -127.85101563 119.66440577 -134 131 C-134.66 131 -135.32 131 -136 131 C-136.2475 131.680625 -136.495 132.36125 -136.75 133.0625 C-138.23165939 136.54439956 -140.09719335 139.73880766 -142 143 C-154.77163516 165.42498055 -163.63913053 188.75725581 -169 214 C-169.26441895 215.2389502 -169.26441895 215.2389502 -169.53417969 216.50292969 C-173.20182403 234.48333242 -174.26739891 252.81597395 -175.60571289 271.08251953 C-176.35260244 281.23510573 -177.19842118 291.31872046 -178.54443359 301.40991211 C-179.30748695 307.42314877 -179.75955994 313.45954094 -180.25 319.5 C-181.60215448 335.58650777 -183.28296538 351.63638244 -185 367.6875 C-185.12556274 368.86989258 -185.25112549 370.05228516 -185.38049316 371.27050781 C-186.9350732 385.88062032 -188.64067123 400.45896667 -190.60028076 415.02029419 C-191.02503783 418.18664444 -191.4431174 421.35382596 -191.85986328 424.52124023 C-192.60309879 430.16745724 -193.35331753 435.81271185 -194.10717773 441.45751953 C-194.41403847 443.76070265 -194.71934462 446.06409337 -195.02319336 448.36767578 C-195.47136319 451.7638548 -195.92461067 455.15932316 -196.37890625 458.5546875 C-196.51228897 459.5735202 -196.64567169 460.59235291 -196.78309631 461.64205933 C-197.48365875 466.83622128 -198.33650616 471.92309592 -199.56036377 477.02087402 C-200.17473319 479.78660259 -200.51990275 482.57040753 -200.88598633 485.37768555 C-202.53707169 497.68395333 -206.07320606 509.2503134 -210 521 C-210.24089355 521.73847168 -210.48178711 522.47694336 -210.72998047 523.23779297 C-216.49626543 540.72927612 -225.55215706 559.65752873 -237.5625 573.6875 C-240.16995142 576.77781279 -242.66049277 579.84609294 -244.9375 583.1875 C-245.618125 584.115625 -246.29875 585.04375 -247 586 C-247.66 586 -248.32 586 -249 586 C-249.23976563 586.56332031 -249.47953125 587.12664063 -249.7265625 587.70703125 C-251.26937715 590.48504414 -253.13502106 592.43635838 -255.375 594.6875 C-256.14585937 595.47511719 -256.91671875 596.26273438 -257.7109375 597.07421875 C-260.00527519 599.004438 -261.18959765 599.33763645 -264 600 C-264.33 600.99 -264.66 601.98 -265 603 C-275.52331872 613.14106141 -289.04623068 619.80126728 -302.09838867 626.06298828 C-303.35163463 626.68052044 -304.5922774 627.32442005 -305.81762695 627.99560547 C-311.78657679 631.21329706 -318.02802403 632.90279409 -324.5625 634.625 C-326.17995117 635.07359375 -326.17995117 635.07359375 -327.83007812 635.53125 C-342.26817494 639.39508645 -356.2844824 640.3516261 -371.14208984 640.31567383 C-373.86466521 640.312512 -376.58615142 640.33607947 -379.30859375 640.36132812 C-396.33346719 640.42326723 -411.92679641 637.70221822 -428 632 C-428.62616211 631.77973145 -429.25232422 631.55946289 -429.89746094 631.33251953 C-446.1018145 625.52476449 -459.94635854 616.82937439 -473.42773438 606.21972656 C-474.7415492 605.20050003 -476.09334503 604.23048009 -477.453125 603.2734375 C-477.96359375 602.85320313 -478.4740625 602.43296875 -479 602 C-479 601.34 -479 600.68 -479 600 C-479.66 600 -480.32 600 -481 600 C-482.55078125 598.42578125 -482.55078125 598.42578125 -484.3125 596.3125 C-486.28223846 593.96209298 -488.24687903 591.76020841 -490.44921875 589.62109375 C-497.27299747 582.609217 -502.55588671 573.68288802 -507 565 C-507.50402344 564.030625 -508.00804687 563.06125 -508.52734375 562.0625 C-515.99625824 547.45337631 -518.40985352 534.93677047 -518.375 518.4375 C-518.37717529 517.38574585 -518.37717529 517.38574585 -518.37939453 516.31274414 C-518.37684488 505.14400362 -517.33043827 494.70498016 -514 484 C-513.34 484 -512.68 484 -512 484 C-511.87625 483.2884375 -511.7525 482.576875 -511.625 481.84375 C-508.9392782 469.62371581 -501.61091195 459.15857392 -493.5 449.875 C-490.8549648 447.20469201 -490.8549648 447.20469201 -490 444 C-488.5625 442.3125 -488.5625 442.3125 -487 441 C-486.34 441 -485.68 441 -485 441 C-484.773125 440.443125 -484.54625 439.88625 -484.3125 439.3125 C-482.63569499 436.35812928 -480.42675648 434.36897657 -478 432 C-477.319375 431.13375 -476.63875 430.2675 -475.9375 429.375 C-474.09949972 427.1219674 -472.44847989 425.55070393 -470 424 C-469.34 424 -468.68 424 -468 424 C-467.67 423.01 -467.34 422.02 -467 421 C-465.29296875 419.3515625 -465.29296875 419.3515625 -463.1875 417.625 C-460.03846172 414.96344629 -457.54683262 412.24940713 -455 409 C-453.35006476 407.64601727 -451.6850704 406.30999745 -450 405 C-460.84703201 398.71609614 -460.84703201 398.71609614 -472 393 C-472 392.34 -472 391.68 -472 391 C-472.82242188 390.76539063 -473.64484375 390.53078125 -474.4921875 390.2890625 C-478.69000941 388.74643307 -482.30261044 386.67317937 -486.125 384.375 C-486.87491211 383.92842041 -487.62482422 383.48184082 -488.39746094 383.02172852 C-494.73933274 379.21646975 -500.90556577 375.18992353 -507 371 C-508.20773413 370.19051154 -509.41609528 369.38195798 -510.625 368.57421875 C-511.83365837 367.75829378 -513.04199844 366.94189708 -514.25 366.125 C-514.82395508 365.74335693 -515.39791016 365.36171387 -515.98925781 364.96850586 C-517.36253746 364.03012623 -518.68686935 363.02085318 -520 362 C-520 361.34 -520 360.68 -520 360 C-520.82177734 359.90138672 -520.82177734 359.90138672 -521.66015625 359.80078125 C-524.99073779 358.66093281 -526.89281015 356.59807305 -529.4375 354.1875 C-533.38352663 350.47010774 -533.38352663 350.47010774 -537.55859375 347.01953125 C-540.30932637 344.74412523 -542.39735121 342.28647477 -544.625 339.5 C-545.38039063 338.5615625 -546.13578125 337.623125 -546.9140625 336.65625 C-547.60242188 335.7796875 -548.29078125 334.903125 -549 334 C-549.58523438 333.2678125 -550.17046875 332.535625 -550.7734375 331.78125 C-552 330 -552 330 -552 328 C-552.66 328 -553.32 328 -554 328 C-559.44488439 318.90676668 -564.05224126 309.85698253 -568 300 C-568.30679688 299.28585937 -568.61359375 298.57171875 -568.9296875 297.8359375 C-578.87578719 273.73971659 -576.28596554 244.85266639 -570.625 220.125 C-570.42817627 219.25657471 -570.23135254 218.38814941 -570.02856445 217.4934082 C-568.79469795 212.37705354 -567.16527941 207.74747941 -564.88037109 203.00341797 C-564.00752008 201.01711309 -563.4629696 199.11567029 -563 197 C-562.34 197 -561.68 197 -561 197 C-560.87625 196.29875 -560.7525 195.5975 -560.625 194.875 C-559.96161655 191.82343613 -559.02788045 188.94659062 -558 186 C-557.34 186 -556.68 186 -556 186 C-555.76539063 185.14792969 -555.53078125 184.29585937 -555.2890625 183.41796875 C-553.84207253 179.58125292 -551.8052917 176.56643367 -549.375 173.3125 C-548.9313208 172.70672119 -548.4876416 172.10094238 -548.03051758 171.47680664 C-547.12522208 170.24125104 -546.21711475 169.00775058 -545.30615234 167.77636719 C-544.10029567 166.1364021 -542.91815736 164.47906751 -541.73828125 162.8203125 C-538.4333553 158.17453088 -535.21558022 153.87377641 -531 150 C-530.113125 149.071875 -529.22625 148.14375 -528.3125 147.1875 C-526 145 -526 145 -524 145 C-524 144.34 -524 143.68 -524 143 C-523.34 143 -522.68 143 -522 143 C-522 142.34 -522 141.68 -522 141 C-520.22499202 139.42255812 -518.45540939 137.98789852 -516.5625 136.5625 C-515.99281494 136.13018066 -515.42312988 135.69786133 -514.83618164 135.25244141 C-509.98198315 131.62653856 -504.99565753 128.20909564 -499.9375 124.875 C-499.21183838 124.38974854 -498.48617676 123.90449707 -497.73852539 123.40454102 C-497.05008545 122.95908936 -496.36164551 122.5136377 -495.65234375 122.0546875 C-495.04382568 121.65749512 -494.43530762 121.26030273 -493.80834961 120.85107422 C-492 120 -492 120 -488 120 C-487.505 118.515 -487.505 118.515 -487 117 C-484.53524501 115.55555273 -482.13363481 114.2864088 -479.5625 113.0625 C-478.83401855 112.70768555 -478.10553711 112.35287109 -477.35498047 111.98730469 C-471.99302638 109.40320179 -466.5680408 107.10241541 -461 105 C-460.25234375 104.68675781 -459.5046875 104.37351562 -458.734375 104.05078125 C-451.63112875 101.07541486 -444.32994254 98.80961693 -436.96240234 96.59814453 C-435.21417532 96.06528111 -433.47542574 95.50154638 -431.73828125 94.93359375 C-374.50329397 76.98166047 -311.4270076 90.12716417 -259 116 C-253.57150252 118.83689257 -248.26172384 121.86617919 -243 125 C-242.76796875 124.35804688 -242.5359375 123.71609375 -242.296875 123.0546875 C-240.54383283 118.92553395 -238.41559339 115.05013802 -236.25 111.125 C-235.83234375 110.34769531 -235.4146875 109.57039063 -234.984375 108.76953125 C-232.50768287 104.27675131 -229.84368871 100.409835 -226.41503906 96.59521484 C-224.35367914 94.27138363 -222.57019754 91.76492943 -220.75 89.25 C-216.86157777 84.00622248 -212.72180059 79.23438614 -208.26171875 74.47265625 C-205.97311511 72.03122088 -205.97311511 72.03122088 -203.94921875 69.3984375 C-202.1358415 67.16714766 -200.32324222 65.4031968 -198.125 63.5625 C-195.49720519 61.32691337 -193.01713917 59.04844855 -190.625 56.5625 C-188 54 -188 54 -186 54 C-186 53.34 -186 52.68 -186 52 C-184.32210126 50.64240067 -182.58056912 49.36288195 -180.8125 48.125 C-177.88530863 46.06381839 -175.0247251 44.02038674 -172.26171875 41.7421875 C-170 40 -170 40 -168 40 C-168 39.34 -168 38.68 -168 38 C-167.34 38 -166.68 38 -166 38 C-166 37.34 -166 36.68 -166 36 C-164.5459375 35.443125 -164.5459375 35.443125 -163.0625 34.875 C-160.13601169 33.62659725 -157.65937647 32.14529551 -155.0625 30.3125 C-135.71519247 17.11080781 -112.32868723 9.30788593 -90 3 C-88.35112793 2.49448608 -88.35112793 2.49448608 -86.66894531 1.97875977 C-82.89737716 0.97262344 -79.18755233 0.37402828 -75.3203125 -0.0703125 C-74.59888062 -0.15658401 -73.87744873 -0.24285553 -73.13415527 -0.33174133 C-70.79875584 -0.60584976 -68.46230186 -0.8676372 -66.125 -1.125 C-65.32310242 -1.21371368 -64.52120483 -1.30242737 -63.69500732 -1.39382935 C-42.09755123 -3.74243103 -21.44367431 -3.78970287 0 0 Z M-349 134 C-350.02077637 134.14074951 -351.04155273 134.28149902 -352.09326172 134.42651367 C-386.13525831 139.34181348 -421.75705345 151.44327594 -449 173 C-450.1035305 173.81171544 -451.21050338 174.61876527 -452.3203125 175.421875 C-452.88097412 175.83034668 -453.44163574 176.23881836 -454.01928711 176.65966797 C-454.56979736 177.06072754 -455.12030762 177.46178711 -455.6875 177.875 C-457.49887717 179.1961315 -459.28430794 180.5567826 -461 182 C-461 182.66 -461 183.32 -461 184 C-461.556875 184.226875 -462.11375 184.45375 -462.6875 184.6875 C-465.67961603 186.38572802 -467.61600535 188.50764196 -470 191 C-470.57621094 191.53238281 -471.15242188 192.06476563 -471.74609375 192.61328125 C-489.24856522 209.05926551 -500.75183909 233.16401107 -503 257 C-503.47912433 274.89345104 -498.90403743 294.65258233 -488 309 C-487.55011719 309.93328125 -487.10023438 310.8665625 -486.63671875 311.828125 C-484.88635883 315.22023061 -482.85972162 317.93002544 -480.4375 320.875 C-479.65246094 321.84179688 -478.86742187 322.80859375 -478.05859375 323.8046875 C-477.37925781 324.52914062 -476.69992187 325.25359375 -476 326 C-475.34 326 -474.68 326 -474 326 C-473.76925781 326.56589844 -473.53851563 327.13179687 -473.30078125 327.71484375 C-463.98582696 344.07895265 -435.80778522 353.68708725 -418.7734375 358.515625 C-405.3021284 362.18877648 -391.66801707 365.16386866 -378 368 C-377.0527002 368.19899902 -376.10540039 368.39799805 -375.12939453 368.60302734 C-372.37925361 369.17949465 -369.62758472 369.74782821 -366.875 370.3125 C-365.64003784 370.56990967 -365.64003784 370.56990967 -364.38012695 370.83251953 C-360.52673774 371.60845659 -356.95487621 372.214421 -353 372 C-354.25756667 375.48249231 -355.7731892 378.06465849 -358 381 C-358 381.66 -358 382.32 -358 383 C-358.66 383 -359.32 383 -360 383 C-361.81628776 384.94375954 -361.81628776 384.94375954 -363.625 387.375 C-364.25664062 388.18710937 -364.88828125 388.99921875 -365.5390625 389.8359375 C-367.18650808 391.84109879 -367.18650808 391.84109879 -367 394 C-367.598125 394.2475 -368.19625 394.495 -368.8125 394.75 C-371.31626919 396.18072525 -372.48072388 397.5691582 -374 400 C-374 400.66 -374 401.32 -374 402 C-374.54527344 402.19980469 -375.09054687 402.39960938 -375.65234375 402.60546875 C-378.96623548 404.57395352 -381.13830394 407.37724231 -383.5625 410.3125 C-384.63277877 411.58856995 -385.70309203 412.86461099 -386.7734375 414.140625 C-387.31194336 414.78708984 -387.85044922 415.43355469 -388.40527344 416.09960938 C-389.89036087 417.86934615 -391.39584705 419.61804519 -392.9140625 421.359375 C-398.31725077 427.57931332 -403.21521787 433.91962976 -407.8203125 440.76171875 C-409.26558756 442.90891056 -410.73950764 445.03711437 -412.2421875 447.14453125 C-427.30365979 468.27749669 -439.09477213 491.27284861 -436.63671875 517.94140625 C-433.76868205 534.81531545 -425.14286879 547.83144778 -412 558.4375 C-397.33529472 568.62466207 -378.36948664 570.93421192 -361 568 C-358.97137756 567.4456895 -357.11630709 566.77331641 -355.1875 565.9375 C-353.46623203 565.19981373 -351.70673036 564.55131461 -349.9375 563.9375 C-342.4573468 561.30559424 -336.87255254 558.29681209 -331 553 C-330.48373047 552.54109375 -329.96746094 552.0821875 -329.43554688 551.609375 C-320.64988415 543.84567592 -320.64988415 543.84567592 -313 535 C-313 534.01 -313 533.02 -313 532 C-312.01 532 -311.02 532 -310 532 C-308.354512 529.79707313 -306.91814164 527.6550079 -305.5 525.3125 C-304.91412109 524.37374023 -304.91412109 524.37374023 -304.31640625 523.41601562 C-303.55088922 522.18526013 -302.79288542 520.94979536 -302.04296875 519.70947266 C-301.13285551 518.21775615 -300.17928441 516.75272828 -299.21875 515.29296875 C-297.68710765 512.84411108 -297.68710765 512.84411108 -298 509 C-297.34 509 -296.68 509 -296 509 C-279.55454144 473.57901233 -273.97109113 435.86759025 -268.37884521 397.58221436 C-267.85063738 393.98194224 -267.30987375 390.38362681 -266.76953125 386.78515625 C-264.88660179 374.10728544 -263.30460451 361.42456049 -262.03808594 348.66943359 C-261.5068984 343.37737869 -260.89085494 338.13345704 -260.0390625 332.8828125 C-258.66304168 324.23233225 -257.86002437 315.52612585 -257 306.8125 C-256.66811341 303.48553137 -256.33430578 300.15875757 -256 296.83203125 C-255.91786255 296.01162354 -255.8357251 295.19121582 -255.75109863 294.34594727 C-255.11640645 288.04629304 -254.4245586 281.75409326 -253.71594238 275.46238708 C-252.77248598 267.04728007 -251.95789071 258.61995543 -251.14453125 250.19140625 C-250.45447223 243.16467627 -249.6616613 236.16102223 -248.76644897 229.15745544 C-247.55883827 219.63623959 -246.60566966 210.08732895 -245.61865234 200.54125977 C-245.44369677 198.85042195 -245.26872916 197.15958538 -245.09375 195.46875 C-245.0061441 194.62001816 -244.91853821 193.77128632 -244.82827759 192.89683533 C-244.27044122 187.51886219 -243.68761881 182.1441842 -243.08670044 176.77085876 C-242.68753971 173.19075515 -242.29797498 169.60963941 -241.90960693 166.02835083 C-241.72086107 164.31014825 -241.52775043 162.59241917 -241.33013916 160.87521362 C-241.05499137 158.47910808 -240.79537153 156.08177699 -240.5390625 153.68359375 C-240.41138489 152.62362183 -240.41138489 152.62362183 -240.28112793 151.54223633 C-239.86490725 147.47594668 -239.98467273 144.59891674 -242 141 C-246.84785778 137.70285449 -252.06852975 137.12570478 -257.75 136.375 C-259.01457031 136.19324219 -259.01457031 136.19324219 -260.3046875 136.0078125 C-265.55099578 135.26979971 -270.79568014 134.70888631 -276.07519531 134.26806641 C-278 134 -278 134 -279 133 C-288.94788429 131.62843707 -299.11645723 131.81375834 -309.13671875 131.81469727 C-311.73193898 131.81251519 -314.32672967 131.79429923 -316.921875 131.77539062 C-327.76725041 131.73849305 -338.26794802 132.45421113 -349 134 Z " fill="#000000" transform="translate(648,56)"/>
<path d="M0 0 C31.68054833 -0.85170271 60.36037222 6.57497595 87.91113281 22.05761719 C89.04035156 22.68667969 90.16957031 23.31574219 91.33300781 23.96386719 C96.27041195 26.80915093 96.27041195 26.80915093 97.91113281 28.05761719 C97.91113281 28.71761719 97.91113281 29.37761719 97.91113281 30.05761719 C98.42675781 30.28449219 98.94238281 30.51136719 99.47363281 30.74511719 C106.0073355 34.26326479 113.02915359 38.9836682 115.91113281 46.05761719 C116.57113281 46.05761719 117.23113281 46.05761719 117.91113281 46.05761719 C128.96845992 55.88984271 136.1918198 70.70749663 141.91113281 84.05761719 C142.18054688 84.66500732 142.44996094 85.27239746 142.72753906 85.89819336 C151.82003517 106.54665615 149.6042338 133.47181059 142.81347656 154.44824219 C141.64653782 157.40712414 140.34109136 160.2167155 138.91113281 163.05761719 C138.48574219 163.92845947 138.48574219 163.92845947 138.05175781 164.81689453 C133.53245716 174.02066096 128.29095953 182.01194682 121.91113281 190.05761719 C120.78102931 191.55377596 119.65536214 193.05330648 118.53613281 194.55761719 C117.66113281 195.72428385 116.78613281 196.89095052 115.91113281 198.05761719 C115.40324219 198.78980469 114.89535156 199.52199219 114.37207031 200.27636719 C113.88996094 200.86417969 113.40785156 201.45199219 112.91113281 202.05761719 C112.25113281 202.05761719 111.59113281 202.05761719 110.91113281 202.05761719 C110.91113281 202.71761719 110.91113281 203.37761719 110.91113281 204.05761719 C110.25113281 204.05761719 109.59113281 204.05761719 108.91113281 204.05761719 C108.91113281 204.71761719 108.91113281 205.37761719 108.91113281 206.05761719 C108.25113281 206.05761719 107.59113281 206.05761719 106.91113281 206.05761719 C106.67007813 206.62480469 106.42902344 207.19199219 106.18066406 207.77636719 C102.86377376 213.73656392 96.46320363 219.18799207 90.91113281 223.05761719 C90.25113281 223.05761719 89.59113281 223.05761719 88.91113281 223.05761719 C88.91113281 223.71761719 88.91113281 224.37761719 88.91113281 225.05761719 C87.45019531 226.56542969 87.45019531 226.56542969 85.53613281 228.18261719 C84.59640625 228.99085938 84.59640625 228.99085938 83.63769531 229.81542969 C81.91113281 231.05761719 81.91113281 231.05761719 79.91113281 231.05761719 C79.91113281 231.71761719 79.91113281 232.37761719 79.91113281 233.05761719 C77.94391273 234.43885682 75.94244953 235.77249845 73.91113281 237.05761719 C73.58113281 237.38761719 73.25113281 237.71761719 72.91113281 238.05761719 C74.89113281 238.71761719 76.87113281 239.37761719 78.91113281 240.05761719 C78.91113281 240.71761719 78.91113281 241.37761719 78.91113281 242.05761719 C79.77738281 242.18136719 80.64363281 242.30511719 81.53613281 242.43261719 C84.80627135 243.0381984 87.7837018 243.94067754 90.91113281 245.05761719 C90.91113281 245.71761719 90.91113281 246.37761719 90.91113281 247.05761719 C91.63405518 247.17008789 92.35697754 247.28255859 93.10180664 247.3984375 C96.06235213 248.09309926 98.21248148 249.12219785 100.86035156 250.60449219 C101.79169922 251.12011719 102.72304688 251.63574219 103.68261719 252.16699219 C104.64490234 252.70839844 105.6071875 253.24980469 106.59863281 253.80761719 C113.62675616 257.72760943 120.67879178 261.52579603 127.91113281 265.05761719 C127.91113281 265.71761719 127.91113281 266.37761719 127.91113281 267.05761719 C128.57242188 267.26902344 129.23371094 267.48042969 129.91503906 267.69824219 C133.99055917 269.54736996 137.31086014 272.08812658 140.84863281 274.80761719 C141.96709595 275.66673706 141.96709595 275.66673706 143.1081543 276.54321289 C154.37200159 285.37480723 168.97053797 297.27723256 173.91113281 311.05761719 C174.57113281 311.05761719 175.23113281 311.05761719 175.91113281 311.05761719 C177.58475754 313.35846874 179.10700539 315.64129188 180.59863281 318.05761719 C181.26693115 319.13499146 181.26693115 319.13499146 181.94873047 320.23413086 C186.37450175 327.54485525 189.75859383 335.12978457 192.91113281 343.05761719 C193.29914062 343.99863281 193.68714844 344.93964844 194.08691406 345.90917969 C198.23576518 356.51357906 201.45822637 368.63649819 201.91113281 380.05761719 C201.95109375 381.05277344 201.99105469 382.04792969 202.03222656 383.07324219 C202.78545073 421.8864407 187.0664963 457.8455684 160.91113281 486.05761719 C159.25509847 487.73484877 157.58800848 489.40122244 155.91113281 491.05761719 C154.85464718 492.14571793 153.80008639 493.23568966 152.74707031 494.32714844 C146.55232692 500.69310109 140.49767124 506.51709421 133.11816406 511.50683594 C130.94695409 512.93054544 130.94695409 512.93054544 129.4909668 514.51708984 C127.88617864 516.0819505 126.35631877 517.12574075 124.42675781 518.25683594 C123.40787476 518.8572168 123.40787476 518.8572168 122.3684082 519.46972656 C121.64000732 519.89060547 120.91160645 520.31148437 120.16113281 520.74511719 C119.39599365 521.18791016 118.63085449 521.63070312 117.8425293 522.08691406 C116.27265062 522.99095606 114.7009519 523.89184496 113.12744141 524.78955078 C111.76945334 525.56652699 110.41476175 526.34934519 109.06591797 527.14208984 C91.48443941 537.47253583 71.67720648 544.58906764 51.69604492 548.50390625 C49.62494614 548.91569305 47.56155071 549.36661242 45.50317383 549.83789062 C34.0050982 552.30494424 22.8282577 552.52730403 11.09863281 552.43261719 C10.11034485 552.42896149 9.12205688 552.42530579 8.1038208 552.42153931 C-7.81298902 552.35259014 -23.33611681 551.45362141 -39.08886719 549.05761719 C-40.85036003 548.81379202 -42.61207242 548.57154659 -44.37402344 548.33105469 C-54.47588264 546.89878249 -64.23465859 544.68895721 -74.08886719 542.05761719 C-75.88988892 541.62920532 -75.88988892 541.62920532 -77.72729492 541.19213867 C-82.40290379 540.02482198 -86.93233641 538.5065079 -91.48730469 536.94042969 C-92.79980698 536.49278763 -92.79980698 536.49278763 -94.13882446 536.03610229 C-95.97981171 535.40732992 -97.82024824 534.77694301 -99.66015625 534.14501953 C-102.44739772 533.1882705 -105.23672334 532.23780425 -108.02636719 531.28808594 C-109.82597473 530.67257572 -111.625458 530.05670205 -113.42480469 529.44042969 C-114.65497818 529.0214592 -114.65497818 529.0214592 -115.91000366 528.59402466 C-120.96337507 526.8537386 -125.92580977 524.95490435 -130.86727905 522.91783142 C-134.05144936 521.68489874 -136.66186368 520.98586958 -140.08886719 521.05761719 C-142.74004631 523.06360082 -142.74004631 523.06360082 -144.83886719 526.12011719 C-145.25225342 526.65652832 -145.66563965 527.19293945 -146.09155273 527.74560547 C-146.97792385 528.89860047 -147.85418598 530.05942378 -148.72119141 531.22705078 C-150.58977435 533.72805665 -152.52862033 536.17069801 -154.46679688 538.61791992 C-155.83525289 540.34898417 -157.1913892 542.08907032 -158.54589844 543.83105469 C-159.39246366 544.9074345 -160.24012384 545.98295403 -161.08886719 547.05761719 C-161.5392334 547.63415039 -161.98959961 548.21068359 -162.45361328 548.8046875 C-163.61910883 550.26059741 -164.84920612 551.66431392 -166.08886719 553.05761719 C-166.74886719 553.05761719 -167.40886719 553.05761719 -168.08886719 553.05761719 C-168.35763672 553.64639648 -168.62640625 554.23517578 -168.90332031 554.84179688 C-170.86347529 558.50538142 -173.76310998 561.2918416 -176.58886719 564.30761719 C-177.48025391 565.28214844 -177.48025391 565.28214844 -178.38964844 566.27636719 C-178.96070313 566.88996094 -179.53175781 567.50355469 -180.12011719 568.13574219 C-180.64154297 568.69680664 -181.16296875 569.25787109 -181.70019531 569.8359375 C-183.08886719 571.05761719 -183.08886719 571.05761719 -185.08886719 571.05761719 C-185.46011719 571.92386719 -185.46011719 571.92386719 -185.83886719 572.80761719 C-187.27186707 575.38701698 -188.87311395 577.11883311 -191.08886719 579.05761719 C-191.74886719 579.05761719 -192.40886719 579.05761719 -193.08886719 579.05761719 C-193.41886719 580.04761719 -193.74886719 581.03761719 -194.08886719 582.05761719 C-195.80600948 583.59878787 -197.58681892 585.0699157 -199.40136719 586.49511719 C-203.35558623 589.60576595 -203.35558623 589.60576595 -207.04199219 593.01855469 C-228.92820661 614.82123394 -259.5538013 631.40451463 -288.8815155 640.3613739 C-291.03730061 641.04135205 -293.16258382 641.78507746 -295.29516602 642.53417969 C-299.80033322 644.03511516 -304.24817127 645.00058699 -308.93652344 645.72167969 C-309.75242447 645.84781647 -310.5683255 645.97395325 -311.40895081 646.10391235 C-320.44477923 647.39594152 -329.41416894 647.52312569 -338.52636719 647.43261719 C-339.37738007 647.42763214 -340.22839294 647.42264709 -341.10519409 647.41751099 C-362.15772569 647.27320574 -380.21201295 644.12520622 -400.08886719 637.05761719 C-400.78318848 636.81672363 -401.47750977 636.57583008 -402.19287109 636.32763672 C-413.84094744 632.23908175 -424.43861325 626.22607972 -435.08886719 620.05761719 C-436.0450293 619.50388428 -436.0450293 619.50388428 -437.02050781 618.93896484 C-444.76029868 614.41105688 -452.05041278 609.33868848 -459.28808594 604.06152344 C-461.87857931 602.09745113 -461.87857931 602.09745113 -464.08886719 601.05761719 C-464.08886719 600.39761719 -464.08886719 599.73761719 -464.08886719 599.05761719 C-464.64058594 598.81398438 -465.19230469 598.57035156 -465.76074219 598.31933594 C-470.68838042 595.64882059 -474.81680002 591.65391032 -479.08886719 588.05761719 C-479.91257812 587.37183594 -480.73628906 586.68605469 -481.58496094 585.97949219 C-482.308125 585.36589844 -483.03128906 584.75230469 -483.77636719 584.12011719 C-484.41960937 583.57484375 -485.06285156 583.02957031 -485.72558594 582.46777344 C-487.08886719 581.05761719 -487.08886719 581.05761719 -487.08886719 579.05761719 C-487.64960938 578.81269531 -488.21035156 578.56777344 -488.78808594 578.31542969 C-496.36367558 574.17393586 -505.29166414 565.7445778 -509.15136719 557.89746094 C-510.36958391 555.50671062 -511.67794284 555.11239659 -514.08886719 554.05761719 C-514.74886719 553.39761719 -515.40886719 552.73761719 -516.08886719 552.05761719 C-516.08886719 551.06761719 -516.08886719 550.07761719 -516.08886719 549.05761719 C-512.58951953 549.78248206 -509.57311974 551.11380921 -506.33886719 552.62011719 C-505.17871094 553.16023437 -504.01855469 553.70035156 -502.82324219 554.25683594 C-500.32962485 555.44399182 -497.86683023 556.67721946 -495.41699219 557.95214844 C-459.97024631 576.35842352 -419.2913365 587.15145823 -379.33886719 587.37011719 C-378.66743683 587.37406494 -377.99600647 587.3780127 -377.30422974 587.38208008 C-365.30951522 587.41476274 -353.97114779 585.90167276 -342.24072266 583.43261719 C-339.50154746 582.95526603 -336.8612265 582.91194314 -334.08886719 583.05761719 C-334.08886719 582.39761719 -334.08886719 581.73761719 -334.08886719 581.05761719 C-333.19167969 580.85007812 -332.29449219 580.64253906 -331.37011719 580.42871094 C-310.5263244 575.28236127 -292.52890334 565.34559638 -275.68261719 552.12402344 C-274.08886719 551.05761719 -274.08886719 551.05761719 -272.08886719 551.05761719 C-272.08886719 550.39761719 -272.08886719 549.73761719 -272.08886719 549.05761719 C-270.54980469 547.54199219 -270.54980469 547.54199219 -268.46386719 545.80761719 C-265.7483896 543.51101646 -263.17624455 541.18610944 -260.71386719 538.62011719 C-258.08886719 536.05761719 -258.08886719 536.05761719 -256.08886719 536.05761719 C-256.02699219 535.50074219 -255.96511719 534.94386719 -255.90136719 534.37011719 C-254.97653595 531.73790521 -253.60551659 530.47489019 -251.60449219 528.58886719 C-248.42058138 525.37213256 -245.79038093 521.67904294 -243.08886719 518.05761719 C-242.53199219 517.31769531 -241.97511719 516.57777344 -241.40136719 515.81542969 C-235.59185273 507.8273473 -229.22817567 498.47554262 -226.08886719 489.05761719 C-225.42886719 489.05761719 -224.76886719 489.05761719 -224.08886719 489.05761719 C-223.91653564 488.51596924 -223.7442041 487.97432129 -223.56665039 487.41625977 C-221.99498224 482.57776339 -220.24076946 477.86961172 -218.28540039 473.17407227 C-203.52954575 437.65362759 -198.34403166 398.82047095 -194.76464844 360.74121094 C-194.32874104 356.17556639 -193.77123346 351.64595781 -193.13183594 347.10449219 C-191.75884404 337.06065265 -190.95094136 326.96833955 -190.08886719 316.87011719 C-189.75734325 313.02230277 -189.42372004 309.17467452 -189.08886719 305.32714844 C-189.00668442 304.37981339 -188.92450165 303.43247833 -188.83982849 302.45643616 C-188.29536719 296.24004471 -187.69644795 290.03099611 -187.06152344 283.82324219 C-185.99820326 273.41625406 -185.15275413 262.99501921 -184.33618164 252.56616211 C-184.15151521 250.21799012 -183.96229055 247.87022032 -183.77246094 245.52246094 C-183.71827499 244.81322983 -183.66408905 244.10399872 -183.60826111 243.37327576 C-183.36658837 240.411847 -183.03330411 237.89092794 -182.08886719 235.05761719 C-181.77434158 232.25081201 -181.50009101 229.45270298 -181.25683594 226.63964844 C-181.09904507 224.90384503 -180.94074039 223.16808827 -180.78198242 221.43237305 C-180.69971405 220.52357391 -180.61744568 219.61477478 -180.53268433 218.67843628 C-179.11380494 203.13259298 -177.46539627 187.75886671 -174.53710938 172.41357422 C-174.12045925 170.22366477 -173.72849283 168.03117103 -173.34667969 165.83496094 C-170.54126587 150.08996993 -167.32234825 134.18842979 -162.08886719 119.05761719 C-161.72970215 118.00525879 -161.72970215 118.00525879 -161.36328125 116.93164062 C-156.34011123 102.32940218 -150.03695665 88.86098502 -142.21386719 75.55761719 C-141.83246582 74.90374023 -141.45106445 74.24986328 -141.05810547 73.57617188 C-140.1267222 72.03321514 -139.11496071 70.53927921 -138.08886719 69.05761719 C-137.42886719 69.05761719 -136.76886719 69.05761719 -136.08886719 69.05761719 C-135.6828125 68.19136719 -135.6828125 68.19136719 -135.26855469 67.30761719 C-119.86595117 37.9304661 -81.4490193 18.36612853 -51.46386719 8.30761719 C-34.81170909 3.2398524 -17.36195404 0.47889448 0 0 Z M-30.08886719 82.05761719 C-31.14074219 82.53199219 -32.19261719 83.00636719 -33.27636719 83.49511719 C-44.84272398 89.92087096 -58.38731045 98.66769581 -64.08886719 111.05761719 C-64.74886719 111.05761719 -65.40886719 111.05761719 -66.08886719 111.05761719 C-69.05122414 114.69085407 -69.05122414 114.69085407 -70.08886719 119.05761719 C-70.74886719 119.05761719 -71.40886719 119.05761719 -72.08886719 119.05761719 C-81.31568111 130.72219729 -88.49580863 145.90718545 -93.05371094 159.97949219 C-94.08886719 163.05761719 -94.08886719 163.05761719 -95.56933594 166.44433594 C-108.60221398 197.43511277 -108.95013884 235.0413078 -112.08886719 268.05761719 C-113.72103428 285.18869131 -115.57774999 302.23233682 -117.99511719 319.27246094 C-122.94237443 354.22142762 -127.08787642 389.31756087 -130.63818359 424.43457031 C-131.40101462 431.97963194 -132.25290244 439.43097316 -133.58007812 446.90185547 C-134.60449569 453.25580051 -135.25757488 459.65951262 -135.94873047 466.05688477 C-136.21313372 468.48837216 -136.48866244 470.91843636 -136.76464844 473.34863281 C-139.53601573 489.24786249 -139.53601573 489.24786249 -136.08886719 504.05761719 C-132.63107171 505.90177477 -128.82495591 506.89798578 -125.08886719 508.05761719 C-124.04214844 508.39921875 -122.99542969 508.74082031 -121.91699219 509.09277344 C-108.79846285 513.14227252 -95.26899532 514.81154621 -81.65136719 516.24511719 C-80.87196777 516.32906738 -80.09256836 516.41301758 -79.28955078 516.49951172 C-50.32984137 519.31935304 -20.90155037 514.13235618 6.71923828 505.72070312 C9.77326391 504.79680765 12.84074967 503.925424 15.91113281 503.05761719 C15.91113281 502.39761719 15.91113281 501.73761719 15.91113281 501.05761719 C17.07515625 500.95707031 17.07515625 500.95707031 18.26269531 500.85449219 C23.32063847 499.74975942 27.6488658 497.56746843 32.28613281 495.30761719 C33.19363281 494.87707031 34.10113281 494.44652344 35.03613281 494.00292969 C47.34187011 488.08057197 59.81382418 480.30128861 69.91113281 471.05761719 C69.91113281 470.39761719 69.91113281 469.73761719 69.91113281 469.05761719 C70.45125 468.84234375 70.99136719 468.62707031 71.54785156 468.40527344 C74.74976794 466.57938724 77.16165805 464.10355577 79.72363281 461.49511719 C80.25190674 460.96080078 80.78018066 460.42648437 81.32446289 459.87597656 C89.44013809 452.04343744 89.44013809 452.04343744 93.91113281 442.05761719 C94.57113281 442.05761719 95.23113281 442.05761719 95.91113281 442.05761719 C97.41718038 440.06693517 98.76921517 438.10077011 100.09863281 435.99511719 C100.49791992 435.36387939 100.89720703 434.7326416 101.30859375 434.08227539 C114.55609761 412.67005896 121.8149661 387.26675503 116.86425781 362.08886719 C113.71405926 352.07020295 108.13454182 342.46662817 101.91113281 334.05761719 C101.16863281 333.04699219 100.42613281 332.03636719 99.66113281 330.99511719 C99.08363281 330.35574219 98.50613281 329.71636719 97.91113281 329.05761719 C97.25113281 329.05761719 96.59113281 329.05761719 95.91113281 329.05761719 C95.91113281 328.39761719 95.91113281 327.73761719 95.91113281 327.05761719 C95.25113281 327.05761719 94.59113281 327.05761719 93.91113281 327.05761719 C93.688125 326.49300781 93.46511719 325.92839844 93.23535156 325.34667969 C83.48262268 308.48798021 53.14693955 294.95193988 35.91113281 288.05761719 C34.780625 287.60128906 33.65011719 287.14496094 32.48535156 286.67480469 C19.76406768 281.77776646 6.50177472 278.93486385 -6.75073242 275.86401367 C-10.80472973 274.88468557 -14.81346127 273.77579635 -18.8190918 272.61572266 C-21.62007372 271.92700106 -24.21855463 271.82488914 -27.08886719 272.05761719 C-27.08886719 270.73761719 -27.08886719 269.41761719 -27.08886719 268.05761719 C-26.42886719 268.05761719 -25.76886719 268.05761719 -25.08886719 268.05761719 C-25.08886719 267.39761719 -25.08886719 266.73761719 -25.08886719 266.05761719 C-24.53714844 265.98800781 -23.98542969 265.91839844 -23.41699219 265.84667969 C-20.15728107 264.74187827 -18.33171369 262.79013773 -15.83886719 260.43261719 C-12.65746861 257.44372698 -9.46511633 254.51447857 -6.08886719 251.74511719 C3.83279381 243.07885003 11.49810977 231.8534101 18.91113281 221.05761719 C19.2980127 220.5057373 19.68489258 219.95385742 20.08349609 219.38525391 C22.24692581 216.49167708 22.24692581 216.49167708 22.91113281 213.05761719 C23.57113281 213.05761719 24.23113281 213.05761719 24.91113281 213.05761719 C26.30825555 211.10164535 27.6304091 209.09170778 28.91113281 207.05761719 C29.65363281 205.98511719 30.39613281 204.91261719 31.16113281 203.80761719 C33.09009131 201.31966356 33.09009131 201.31966356 32.91113281 199.05761719 C33.57113281 199.05761719 34.23113281 199.05761719 34.91113281 199.05761719 C51.32614466 177.39155818 63.61217331 148.65464814 60.23681641 121.20410156 C58.27721193 108.28892726 52.15979236 95.99882621 41.96582031 87.64355469 C35.23085141 82.96051734 28.88393575 79.24406453 20.91113281 77.05761719 C19.83605469 76.76113281 18.76097656 76.46464844 17.65332031 76.15917969 C1.19336749 71.9964538 -14.88695835 74.67592107 -30.08886719 82.05761719 Z " fill="#000000" transform="translate(672.0888671875,136.9423828125)"/>
<path d="M0 0 C-0.46880539 7.83277418 -2.19515753 15.01146844 -4.25 22.5625 C-9.8670159 44.12290949 -13.80771349 66.68194578 -14 89 C-14.02054443 90.61624268 -14.02054443 90.61624268 -14.04150391 92.26513672 C-14.40245252 119.93163051 -14.40245252 119.93163051 -12.49511719 147.51318359 C-11.65679974 156.66872492 -11.79503262 165.87262374 -11.76171875 175.05859375 C-11.75685392 176.07893267 -11.7519891 177.09927158 -11.74697685 178.15052986 C-11.71032936 185.91284875 -11.69425191 193.67510176 -11.6875 201.4375 C-11.68634941 202.57825989 -11.68519882 203.71901978 -11.68401337 204.89434814 C-11.65812828 241.76574838 -12.3377991 278.2843758 -16 315 C-16.11833191 316.19520264 -16.23666382 317.39040527 -16.35858154 318.62182617 C-20.84627282 363.571014 -20.84627282 363.571014 -25 384 C-25.35698824 385.8966065 -25.71145852 387.79369007 -26.0625 389.69140625 C-26.37423727 391.31525078 -26.68670755 392.9389548 -27 394.5625 C-27.15210938 395.38556641 -27.30421875 396.20863281 -27.4609375 397.05664062 C-28.68572231 403.34621178 -30.40800137 408.61200205 -34 414 C-34.99 414 -35.98 414 -37 414 C-37 414.66 -37 415.32 -37 416 C-38.89454824 416.96087136 -40.79069581 417.91858969 -42.6875 418.875 C-43.74324219 419.40867187 -44.79898437 419.94234375 -45.88671875 420.4921875 C-50.92637008 422.93297221 -54.32110135 424.26413482 -60 424 C-59.59361158 413.94723377 -59.07256792 403.94352071 -58 393.9375 C-55.153926 366.91411854 -54.9378781 339.54904448 -54.93140221 312.39493942 C-54.92968473 309.65183086 -54.92320968 306.90877628 -54.91499329 304.16567993 C-54.91095474 302.79991035 -54.91095474 302.79991035 -54.9068346 301.40654945 C-54.90123439 299.56189231 -54.8954658 297.71723567 -54.88952923 295.87257957 C-54.87651 291.17331873 -54.87669452 286.47461885 -54.90039062 281.77539062 C-54.92297679 277.11922893 -54.91150154 272.46422924 -54.87738419 267.80815125 C-54.87067637 266.06361719 -54.87612327 264.31898678 -54.89474106 262.57453918 C-54.99886644 252.19712487 -54.32735436 244.99703849 -47 237 C-46.505 236.01 -46.505 236.01 -46 235 C-45.34 235 -44.68 235 -44 235 C-44 234.01 -44 233.02 -44 232 C-44.63808594 231.93941406 -45.27617187 231.87882813 -45.93359375 231.81640625 C-46.75988281 231.73261719 -47.58617187 231.64882813 -48.4375 231.5625 C-49.67306641 231.44068359 -49.67306641 231.44068359 -50.93359375 231.31640625 C-53 231 -53 231 -54 230 C-54.12420252 228.02966093 -54.17804746 226.05487195 -54.20532227 224.08081055 C-54.22525238 222.79638565 -54.2451825 221.51196075 -54.26571655 220.18861389 C-54.28278263 218.75465085 -54.29967345 217.32068572 -54.31640625 215.88671875 C-54.3372049 214.39159185 -54.35834068 212.89646961 -54.37979126 211.40135193 C-54.43629327 207.34271209 -54.48567105 203.284016 -54.5328331 199.22525787 C-54.56241828 196.69449027 -54.5933775 194.1637427 -54.62466431 191.63299561 C-54.91992513 167.53066532 -55.12700755 143.42770108 -55.18122482 119.3235817 C-55.18746263 117.13809372 -55.19735126 114.95265053 -55.20828247 112.7671814 C-55.2280486 108.68068318 -55.2303091 104.59435887 -55.23046875 100.5078125 C-55.23760895 99.32545517 -55.24474915 98.14309784 -55.25210571 96.9249115 C-55.22518638 86.96963426 -54.31362742 77.43154987 -51 68 C-50.45563006 66.16746753 -49.91413844 64.33407842 -49.375 62.5 C-45.61718872 50.22729799 -41.088404 38.15953277 -36.3125 26.25 C-33.95993703 20.26527054 -32.29087925 14.13576493 -30.69848633 7.91308594 C-29.20559505 2.20559505 -29.20559505 2.20559505 -27 0 C-18.00609365 -1.44253728 -9.01294295 -0.97315829 0 0 Z " fill="#000000" transform="translate(348,193)"/>
<path d="M0 0 C13.75914046 0.65632852 26.80278347 4.23751062 40 8 C40.41893591 11.97989119 39.80667388 14.8509814 38.3046875 18.48046875 C37.75748047 19.80643066 37.75748047 19.80643066 37.19921875 21.15917969 C36.80347656 22.09665039 36.40773438 23.03412109 36 24 C35.60425781 24.94004883 35.20851563 25.88009766 34.80078125 26.84863281 C28.10974725 42.57466022 20.82016706 57.79440163 12.36328125 72.64453125 C5.35097301 84.97073232 -0.15255129 97.04869587 -3.75 110.8125 C-3.94891846 111.55741699 -4.14783691 112.30233398 -4.3527832 113.06982422 C-9.53655131 134.2452167 -8.13607773 156.26581089 -7.88354492 177.87988281 C-7.84036728 181.66130681 -7.8125722 185.44261862 -7.79324532 189.22423553 C-7.77786863 191.31911694 -7.7449559 193.41321807 -7.71141052 195.50787354 C-7.65101722 207.27796909 -9.78979403 218.13293537 -13.5625 229.25 C-13.97628906 230.49265625 -14.39007812 231.7353125 -14.81640625 233.015625 C-16 236 -16 236 -18 238 C-20.57519531 238.16699219 -20.57519531 238.16699219 -23.828125 238.046875 C-25.01470703 238.00570557 -26.20128906 237.96453613 -27.42382812 237.92211914 C-28.68646484 237.86531982 -29.94910156 237.80852051 -31.25 237.75 C-32.52294922 237.6977124 -33.79589844 237.6454248 -35.10742188 237.59155273 C-58.68968646 236.51839668 -58.68968646 236.51839668 -64 233 C-65.06494141 230.60839844 -65.06494141 230.60839844 -65.8515625 227.609375 C-66.14546875 226.5059375 -66.439375 225.4025 -66.7421875 224.265625 C-67.17917969 222.52539062 -67.17917969 222.52539062 -67.625 220.75 C-67.9240625 219.63625 -68.223125 218.5225 -68.53125 217.375 C-71.97691657 204.14120094 -73.47064687 191.10310113 -73.5 177.4375 C-73.5023465 176.73155701 -73.50469299 176.02561401 -73.5071106 175.29827881 C-73.4783799 154.12464147 -69.04538117 133.64035075 -60.86767578 114.09814453 C-60.25571965 112.61836091 -59.66770783 111.12856423 -59.09716797 109.63232422 C-56.66659329 103.29099336 -53.68310137 97.42506107 -50.375 91.5 C-49.84648438 90.54295166 -49.31796875 89.58590332 -48.7734375 88.59985352 C-47.69628203 86.65123137 -46.61655743 84.70402702 -45.53417969 82.75830078 C-44.15479997 80.27831478 -42.78269048 77.79452374 -41.4140625 75.30859375 C-37.95243596 69.03365813 -34.45559593 62.78108096 -30.88671875 56.56640625 C-30.35498047 55.64029541 -29.82324219 54.71418457 -29.27539062 53.76000977 C-28.25218765 51.98151812 -27.22634647 50.20454039 -26.19726562 48.42944336 C-23.38651511 43.55030552 -20.7762291 38.61767982 -18.28833008 33.56689453 C-15.97642642 28.96061159 -13.48045558 24.45457329 -11 19.9375 C-10.23816406 18.5443457 -10.23816406 18.5443457 -9.4609375 17.12304688 C-6.32984505 11.40278182 -3.17431436 5.69638436 0 0 Z M-33 116 C-41.31162948 131.33795542 -45.42175187 146.86066137 -48 164 C-48.10892578 164.71349609 -48.21785156 165.42699219 -48.33007812 166.16210938 C-50.56250338 182.22620443 -49.28393162 206.82265282 -40.24609375 220.69140625 C-39.64925781 221.30886719 -39.05242188 221.92632813 -38.4375 222.5625 C-37.83808594 223.20316406 -37.23867188 223.84382813 -36.62109375 224.50390625 C-35.05497412 226.08833041 -35.05497412 226.08833041 -33 227 C-32.35165346 225.730447 -31.70642185 224.45930294 -31.0625 223.1875 C-30.70285156 222.47980469 -30.34320312 221.77210938 -29.97265625 221.04296875 C-28.45664009 217.85872597 -27.88290527 215.44981052 -28.03833008 211.97070312 C-28.07206223 211.15271744 -28.10579437 210.33473175 -28.14054871 209.49195862 C-28.20439507 208.15015785 -28.20439507 208.15015785 -28.26953125 206.78125 C-28.30996048 205.83511337 -28.35038971 204.88897675 -28.39204407 203.91416931 C-28.52715481 200.77587117 -28.66992293 197.63796703 -28.8125 194.5 C-28.9073814 192.32172388 -29.00161049 190.14341926 -29.09521484 187.96508789 C-29.24216308 184.54635027 -29.38950407 181.12763483 -29.53881836 177.70899963 C-30.05984381 165.76086844 -30.52902048 153.81084157 -30.99227905 141.86035156 C-31.12421835 138.45765869 -31.2569261 135.05499663 -31.38989258 131.65234375 C-31.59375088 126.43491478 -31.79705691 121.21746464 -32 116 C-32.33 116 -32.66 116 -33 116 Z " fill="#000000" transform="translate(631,411)"/>
<path d="M0 0 C-0.55187258 6.42995729 -1.70705505 12.22218334 -3.625 18.375 C-3.89078857 19.2400415 -4.15657715 20.10508301 -4.43041992 20.99633789 C-8.79340208 34.96879779 -14.05151558 48.50417634 -19.97973633 61.88452148 C-25.69035363 74.86779649 -26.19939229 86.96356148 -26.1875 100.9375 C-26.18858765 102.24586319 -26.18858765 102.24586319 -26.18969727 103.58065796 C-26.18744404 129.1066537 -25.39457179 154.62754214 -24.71166992 180.14233398 C-24.66525678 181.88953651 -24.61884461 183.63673907 -24.57243347 185.38394165 C-24.48574295 188.64367981 -24.39628357 191.90332411 -24.30488586 195.16293335 C-24.06011393 204.11210304 -23.94366904 213.04667427 -24 222 C-31.38496152 222.4344095 -37.87258932 220.83770447 -45 219 C-45.79100098 218.79648926 -46.58200195 218.59297852 -47.39697266 218.38330078 C-62.68813345 214.43728885 -62.68813345 214.43728885 -67 213 C-67.06993164 211.77522949 -67.13986328 210.55045898 -67.21191406 209.28857422 C-68.44706924 187.8890769 -69.74547499 166.50736888 -72 145.1875 C-72.07754517 144.43877625 -72.15509033 143.69005249 -72.23498535 142.91864014 C-73.0844311 134.7999422 -74.16292776 126.7628572 -75.5546875 118.71875 C-76.7861441 111.59438822 -77.65474631 104.53278205 -78.125 97.3125 C-78.20282715 96.18803467 -78.2806543 95.06356934 -78.36083984 93.9050293 C-79.79581522 71.96374431 -80.20386681 49.98311489 -80 28 C-59.26213592 16 -59.26213592 16 -55 16 C-54.72194602 22.87411227 -55.2413936 29.50070984 -56.0625 36.3125 C-57.9028619 50.58300311 -57.9028619 50.58300311 -54 64 C-49.62493367 51.82132978 -46.26429487 39.36878446 -42.8671875 26.890625 C-42.54951416 25.73103271 -42.23184082 24.57144043 -41.90454102 23.37670898 C-41.31315092 21.16901223 -40.74489182 18.954955 -40.20288086 16.73461914 C-39.95675049 15.74582764 -39.71062012 14.75703613 -39.45703125 13.73828125 C-39.25053955 12.86985596 -39.04404785 12.00143066 -38.83129883 11.10668945 C-38 9 -38 9 -34.8125 6.9375 C-33.554375 6.628125 -32.29625 6.31875 -31 6 C-29.98099609 5.70222656 -29.98099609 5.70222656 -28.94140625 5.3984375 C-25.24304047 4.34975155 -21.83967229 3.76002048 -18 4 C-18 3.34 -18 2.68 -18 2 C-15.93827387 1.66191314 -13.8755797 1.32972639 -11.8125 1 C-10.66394531 0.814375 -9.51539063 0.62875 -8.33203125 0.4375 C-5.49584607 0.06510523 -2.85280436 -0.08596021 0 0 Z " fill="#000000" transform="translate(295,196)"/>
<path d="M0 0 C-0.60265736 7.79892536 -1.60457149 15.47084529 -2.875 23.1875 C-3.05353516 24.28102783 -3.23207031 25.37455566 -3.41601562 26.5012207 C-3.93726508 29.66865188 -4.46654143 32.83460452 -5 36 C-5.13696289 36.81855469 -5.27392578 37.63710937 -5.41503906 38.48046875 C-6.79232467 46.60753263 -8.55873921 54.52631314 -10.9375 62.42578125 C-11.78447794 65.27499014 -12.56485858 68.12328257 -13.32421875 70.99609375 C-15.22474435 77.99944123 -17.50577568 84.87186107 -19.8125 91.75 C-20.03542725 92.41596191 -20.25835449 93.08192383 -20.48803711 93.76806641 C-23.68890107 103.30991866 -26.94413122 112.77941445 -31 122 C-31.36061523 122.82902832 -31.72123047 123.65805664 -32.09277344 124.51220703 C-37.14752831 136.07786091 -42.54678182 147.15578772 -49 158 C-50.00963233 159.82804641 -51.01008307 161.66120268 -52 163.5 C-54.69777125 168.49422116 -57.51344234 173.41542784 -60.37304688 178.31835938 C-61.84571725 180.8657596 -63.06608604 183.19825811 -64 186 C-64.68050415 186.67772461 -64.68050415 186.67772461 -65.37475586 187.36914062 C-67.41050744 189.41192574 -68.60079695 191.57417136 -70.00390625 194.09375 C-70.5747998 195.1146875 -71.14569336 196.135625 -71.73388672 197.1875 C-72.3373291 198.280625 -72.94077148 199.37375 -73.5625 200.5 C-74.18656738 201.6240625 -74.81063477 202.748125 -75.45361328 203.90625 C-83.08690889 217.70301537 -90.43092565 231.56092643 -97.0625 245.8671875 C-99.00994982 250.05301715 -101.05277154 254.18725775 -103.125 258.3125 C-103.45741699 258.97483643 -103.78983398 259.63717285 -104.13232422 260.31958008 C-105.64353227 263.32363991 -107.16469055 266.32217115 -108.6953125 269.31640625 C-111.48528636 274.80522416 -114.03286977 280.28824269 -116.23828125 286.0390625 C-117 288 -117 288 -118 290 C-118.99 290 -119.98 290 -121 290 C-121.3556751 282.76793967 -120.47250929 276.10308592 -119.27807617 269.00415039 C-118.15418661 262.23029724 -117.28858725 255.44549631 -116.5 248.625 C-115.63052496 241.12563681 -114.68471221 233.65307708 -113.5625 226.1875 C-112.17066937 216.7528502 -111.05986852 207.28906665 -110 197.8125 C-109.91354218 197.04118744 -109.82708435 196.26987488 -109.73800659 195.47518921 C-108.80823802 187.12071714 -107.94701771 178.7673059 -107.2890625 170.38671875 C-101.64861791 98.73237402 -101.64861791 98.73237402 -86 69 C-85.01 69 -84.02 69 -83 69 C-83.41035184 99.70177833 -88.69660565 132.01378753 -100.46020508 160.43432617 C-103.69702411 168.59388974 -103.85466959 176.42215314 -102 185 C-100.68 185 -99.36 185 -98 185 C-91.6638631 178.39889737 -87.08041556 170.11919422 -83 162 C-82.34390614 160.71346203 -81.68764543 159.42700914 -81.03125 158.140625 C-78.98583406 154.11071427 -76.9841548 150.06036919 -75 146 C-74.54625 145.07574219 -74.0925 144.15148437 -73.625 143.19921875 C-66.47474646 128.07549168 -61.58146457 112.30651671 -58 96 C-57.84015625 95.30261719 -57.6803125 94.60523438 -57.515625 93.88671875 C-53.14228383 74.47059201 -53.36746718 54.41070416 -55.50073242 34.71923828 C-55.60619385 33.65044434 -55.71165527 32.58165039 -55.8203125 31.48046875 C-55.97910889 30.07124146 -55.97910889 30.07124146 -56.14111328 28.63354492 C-55.92291936 24.56147253 -54.20808868 22.09338093 -51.22583008 19.39428711 C-50.58025146 18.9431958 -49.93467285 18.49210449 -49.26953125 18.02734375 C-48.54830078 17.52009766 -47.82707031 17.01285156 -47.08398438 16.49023438 C-45.95959961 15.72163086 -45.95959961 15.72163086 -44.8125 14.9375 C-44.08224609 14.42123047 -43.35199219 13.90496094 -42.59960938 13.37304688 C-37.91740342 10.11748295 -33.16983764 7.3992815 -28 5 C-27.18273437 4.60554687 -26.36546875 4.21109375 -25.5234375 3.8046875 C-17.83052729 0.47575545 -8.26535045 -2.34508929 0 0 Z " fill="#000000" transform="translate(674,217)"/>
<path d="M0 0 C7.2339716 -0.27329426 13.85949012 0.47952077 20.9375 1.9375 C21.86884766 2.11990234 22.80019531 2.30230469 23.75976562 2.49023438 C27.25598548 3.18442965 30.61492925 3.87164308 34 5 C33.72171037 15.67240748 32.81149036 26.19723196 31.46295166 36.78818321 C29.81796749 49.75268574 28.34649875 62.73178432 27 75.73046875 C26.87669186 76.92046258 26.87669186 76.92046258 26.75089264 78.13449669 C26.24727149 83.00440537 25.7479663 87.87474951 25.25 92.74523926 C24.83522934 96.79715165 24.41757808 100.84876675 24 104.90039062 C23.91747451 105.7013746 23.83494902 106.50235857 23.74992275 107.32761478 C23.58324642 108.94534595 23.41655401 110.56307545 23.2498455 112.1808033 C23.00023908 114.60314857 22.75073686 117.02550457 22.50123596 119.44786072 C22.00149565 124.29864322 21.50091391 129.14933856 21 134 C20.91617443 134.81228687 20.83234886 135.62457375 20.74598312 136.46147537 C18.52037958 158.0170311 16.18863991 179.55137673 13.5625 201.0625 C13.41414703 202.28486359 13.26579407 203.50722717 13.11294556 204.76663208 C11.22240875 220.33477192 9.28152308 235.89532675 7.1875 251.4375 C7.08849396 252.17614288 6.98948792 252.91478577 6.88748169 253.67581177 C5.91284861 260.91402107 4.84296496 268.11604552 3.48901367 275.29418945 C2.75317931 279.3657083 2.16058705 283.45641781 1.55541992 287.54907227 C-1.71156959 309.59275635 -7.52615019 330.69617282 -14 352 C-14.99 352 -15.98 352 -17 352 C-17.15196441 334.12006051 -16.71459827 316.26554735 -16.19289017 298.39549637 C-16.1238303 296.02230395 -16.05591614 293.64908095 -15.98825073 291.27584839 C-15.44146645 272.15560999 -14.82503086 253.04285143 -13.94091797 233.93478394 C-13.29764932 220.00249953 -12.79134426 206.06872974 -12.34765625 192.12890625 C-11.21772169 156.7552811 -10.04474295 121.39327404 -8.12444305 86.05217743 C-8.00244554 83.7952422 -7.88313715 81.53817918 -7.76446533 79.28106689 C-6.35771212 52.70423988 -3.60287833 26.36704527 0 0 Z " fill="#000000" transform="translate(369,195)"/>
<path d="M0 0 C4.95 0.495 4.95 0.495 10 1 C10 1.66 10 2.32 10 3 C10.67804688 3.0825 11.35609375 3.165 12.0546875 3.25 C15.80306337 4.20449359 18.84299693 6.02388868 22.125 8 C26.88410997 10.8636866 26.88410997 10.8636866 32 13 C32 13.66 32 14.32 32 15 C32.66 15 33.32 15 34 15 C33.40277225 18.4411875 32.52457943 21.4386345 31.13671875 24.640625 C30.7504834 25.53386475 30.36424805 26.42710449 29.96630859 27.34741211 C29.54430176 28.30526611 29.12229492 29.26312012 28.6875 30.25 C28.24744629 31.25490479 27.80739258 32.25980957 27.35400391 33.29516602 C19.77524391 50.44869987 11.45655379 67.2651336 3 84 C2.12401311 85.74950621 1.24889712 87.49944899 0.375 89.25 C-1.35416667 92.70833333 -3.08333333 96.16666667 -4.8125 99.625 C-5.31394531 100.63175781 -5.81539062 101.63851562 -6.33203125 102.67578125 C-7.52588965 105.05511028 -8.73099839 107.42622573 -9.94921875 109.79296875 C-16.76691238 123.10502586 -22.36484559 136.43922438 -26 151 C-26.21043945 151.81436523 -26.42087891 152.62873047 -26.63769531 153.46777344 C-30.43083952 168.36359724 -31.89809904 182.64975219 -32 198 C-32.01256836 199.19278564 -32.01256836 199.19278564 -32.02539062 200.40966797 C-32.06293449 204.27412579 -32.06122775 208.13584897 -32 212 C-43.23912076 215.47115274 -54.13949066 218.1781303 -66 218 C-65.71297063 215.68227089 -65.42517712 213.36464058 -65.13647461 211.04711914 C-64.8724605 208.92283123 -64.61033836 206.79830755 -64.34985352 204.67358398 C-63.61833711 198.75449181 -62.8434389 192.84675709 -61.98046875 186.9453125 C-59.58265536 170.18646212 -58.31166164 153.58995968 -57.68334961 136.67407227 C-57.36725363 128.34432669 -56.91794944 120.05782511 -56.0859375 111.76171875 C-56.0128537 110.99821106 -55.9397699 110.23470337 -55.86447144 109.44805908 C-53.87584088 90.97437221 -44.48239439 72.71197185 -31 60 C-30.443125 59.236875 -29.88625 58.47375 -29.3125 57.6875 C-28.879375 57.130625 -28.44625 56.57375 -28 56 C-27.34 56 -26.68 56 -26 56 C-25.34 54.35 -24.68 52.7 -24 51 C-23.34 51 -22.68 51 -22 51 C-21.61134766 49.92878906 -21.61134766 49.92878906 -21.21484375 48.8359375 C-19.93142157 45.83991016 -18.36818926 43.33547549 -16.5625 40.625 C-13.90284781 36.51213579 -11.79557459 32.5705535 -10 28 C-9.63390625 27.24976563 -9.2678125 26.49953125 -8.890625 25.7265625 C-4.86255414 17.44663907 -2.43708829 8.84611195 0 0 Z " fill="#000000" transform="translate(700,429)"/>
<path d="M0 0 C6.87876407 0.90135529 11.92682635 8.40346157 15.99609375 13.5 C17.75974272 15.95103999 19.40355757 18.43708384 21 21 C21.5465625 21.87527344 22.093125 22.75054687 22.65625 23.65234375 C27.09724711 31.23904714 30 39.13305827 30 48 C29.34 48 28.68 48 28 48 C27.773125 48.67804688 27.54625 49.35609375 27.3125 50.0546875 C25.64950927 53.78651789 23.41547896 56.84684999 21 60.125 C20.10386221 61.35654936 19.20801823 62.58831256 18.3125 63.8203125 C17.549375 64.86960937 16.78625 65.91890625 16 67 C15.34 67.99 14.68 68.98 14 70 C13.34 70 12.68 70 12 70 C11.71713135 70.58990723 11.4342627 71.17981445 11.14282227 71.78759766 C10.1105676 73.78595096 9.00453738 75.5602474 7.71484375 77.3984375 C7.27116455 78.03539551 6.82748535 78.67235352 6.37036133 79.32861328 C5.89751709 80.0039209 5.42467285 80.67922852 4.9375 81.375 C-0.21538027 88.81174519 -5.23402006 96.30898614 -10 104 C-10.66644531 105.07121094 -11.33289063 106.14242187 -12.01953125 107.24609375 C-19.19798837 119.26682372 -25.32637459 132.31418545 -28.94360352 145.86547852 C-31.52226012 155.46840024 -31.52226012 155.46840024 -35.75 158.4375 C-37.48116415 159.32922382 -39.23530059 160.17663089 -41 161 C-42.35377023 161.74786547 -43.70231164 162.50523682 -45.046875 163.26953125 C-46.53003205 164.09853695 -48.01441995 164.9253442 -49.5 165.75 C-50.54945801 166.33479126 -50.54945801 166.33479126 -51.62011719 166.93139648 C-56.62615156 169.59223537 -61.41862119 171.03713056 -67 172 C-66.30096692 150.81929775 -62.46531218 130.14732212 -56 110 C-55.54803948 108.54952204 -55.09621036 107.09900312 -54.64453125 105.6484375 C-52.80687501 99.8803345 -50.80180697 94.4079051 -48.03515625 89.01977539 C-47.04986438 87.09729434 -46.10696234 85.16009184 -45.17578125 83.2109375 C-40.0917864 72.68834527 -34.14559882 63.06179304 -27.55859375 53.42578125 C-17.93671992 39.2999712 -9.91154197 24.83787312 -3.74267578 8.88134766 C-2.56234284 5.89132608 -1.28096564 2.94813286 0 0 Z " fill="#000000" transform="translate(755,461)"/>
<path d="M0 0 C0.03963867 0.93755127 0.07927734 1.87510254 0.12011719 2.84106445 C0.89325796 20.66195923 1.93307519 38.40234724 4 56.125 C4.08358765 56.84958405 4.16717529 57.57416809 4.2532959 58.32070923 C5.09882563 65.57396921 6.09757696 72.76389142 7.46435547 79.93847656 C8.73352913 87.19255026 9.6217697 94.50989788 10.5625 101.8125 C10.67427582 102.67827667 10.78605164 103.54405334 10.9012146 104.43606567 C12.58773177 117.61844698 13.89782424 130.69728313 14 144 C14.00837891 144.80550293 14.01675781 145.61100586 14.02539062 146.44091797 C14.06535602 150.96154894 14.05828856 155.47939805 14 160 C-0.03980557 158.32514838 -15.04838748 145.19960376 -23.9296875 134.6796875 C-31.94683065 124.30278146 -34.73907303 116.89786545 -36 104 C-36.06669891 103.32466217 -36.13339783 102.64932434 -36.20211792 101.95352173 C-36.74855771 96.30765088 -37.22067016 90.65598307 -37.68429565 85.00280762 C-38.52217166 74.50613124 -38.52217166 74.50613124 -39.84765625 64.0625 C-41.45509932 53.46245499 -40.70268525 46.27000378 -35 37 C-33.679762 35.32294092 -32.34692286 33.65570359 -31 32 C-29.99961591 30.33356385 -28.99961815 28.66689572 -28 27 C-26.67276868 25.27065701 -25.3177845 23.56230105 -23.9375 21.875 C-21.82884189 19.29120663 -19.85142742 16.77714112 -18 14 C-17.34 14 -16.68 14 -16 14 C-15.75121094 13.41347656 -15.50242188 12.82695312 -15.24609375 12.22265625 C-13.82588804 9.68943667 -12.28816254 8.29014647 -10.0625 6.4375 C-7.13001189 3.98518936 -7.13001189 3.98518936 -4.43359375 1.28515625 C-3 0 -3 0 0 0 Z " fill="#000000" transform="translate(195,240)"/>
<path d="M0 0 C0.99 0 1.98 0 3 0 C3.02559448 3.97541285 3.04325828 7.95079106 3.05493164 11.92626953 C3.06216385 13.90789486 3.07489328 15.88949785 3.08789062 17.87109375 C3.1718927 38.24340915 1.89705454 58.36206301 -0.52905273 78.58789062 C-0.94374747 82.05219047 -1.34286909 85.51804863 -1.74023438 88.984375 C-2.00170905 91.21885493 -2.26404591 93.45323417 -2.52734375 95.6875 C-2.6451268 96.70835693 -2.76290985 97.72921387 -2.88426208 98.78100586 C-3.55800041 104.33852615 -4.53358324 109.59768376 -6 115 C-6.70277145 118.07584518 -7.3519529 121.1621907 -8 124.25 C-8.17515137 125.07830322 -8.35030273 125.90660645 -8.53076172 126.76000977 C-9.70149678 132.36764522 -10.70773301 137.97831063 -11.5078125 143.65234375 C-12.00976181 146.04656227 -12.80676943 147.87486622 -14 150 C-23.42336927 149.38543244 -31.48010646 144.6751291 -38 138 C-38.80179688 137.19433594 -39.60359375 136.38867188 -40.4296875 135.55859375 C-41.25726563 134.65238281 -42.08484375 133.74617187 -42.9375 132.8125 C-44.09572266 131.55373047 -44.09572266 131.55373047 -45.27734375 130.26953125 C-47.83489372 125.4154058 -47.29710903 121.39852644 -47 116 C-46.9402057 114.44191614 -46.88339759 112.88371608 -46.82885742 111.32543945 C-46.66379058 106.75648544 -46.46527181 102.18965479 -46.25537109 97.62255859 C-46.12594188 94.77075312 -46.00619706 91.91864363 -45.88671875 89.06640625 C-44.53602903 58.41396138 -44.53602903 58.41396138 -37 48 C-36.085204 46.67156306 -35.17404506 45.34061759 -34.265625 44.0078125 C-32.35492368 41.20661337 -30.42823527 38.41771904 -28.48828125 35.63671875 C-27.00713826 33.50343276 -25.63536859 31.38752005 -24.3046875 29.15234375 C-22.96331669 26.93948352 -21.3854981 25.41856919 -19.51953125 23.6484375 C-17.45887693 21.41297189 -15.76251747 18.97615449 -14 16.5 C-11.24201974 12.63468808 -8.45705175 9.27018409 -5 6 C-4.11637551 4.90272302 -3.24154074 3.7983178 -2.375 2.6875 C-1.59125 1.800625 -0.8075 0.91375 0 0 Z " fill="#000000" transform="translate(270,467)"/>
<path d="M0 0 C4.47300189 0.75365472 7.07747583 2.1652727 10.75 4.875 C11.71421875 5.57367188 12.6784375 6.27234375 13.671875 6.9921875 C16 9 16 9 17 12 C17.66 12 18.32 12 19 12 C29.42851969 24.06728707 30.74833377 39.01226868 29.796875 54.25390625 C26.47524252 85.41226311 4.08741513 113.86347189 -14.5625 137.83984375 C-16.94151618 140.92417723 -19.25439284 144.04991683 -21.5625 147.1875 C-25.73389723 152.7640769 -30.22098907 157.9383119 -35 163 C-35.58394531 163.62519531 -36.16789063 164.25039063 -36.76953125 164.89453125 C-41.45452834 169.75507859 -46.66722541 173.87543215 -52 178 C-52.763125 178.60714844 -53.52625 179.21429688 -54.3125 179.83984375 C-55.01375 180.38769531 -55.715 180.93554688 -56.4375 181.5 C-57.05496094 181.9846875 -57.67242188 182.469375 -58.30859375 182.96875 C-60 184 -60 184 -63 184 C-62.39885597 179.96060539 -61.10607509 176.99679998 -59.125 173.4375 C-58.50753906 172.31859375 -57.89007812 171.1996875 -57.25390625 170.046875 C-56.90344238 169.41845703 -56.55297852 168.79003906 -56.19189453 168.14257812 C-54.81521617 165.66782816 -53.45200474 163.18589456 -52.08984375 160.703125 C-49.39890259 155.79894765 -46.7013138 150.89847041 -44 146 C-43.34 146 -42.68 146 -42 146 C-41.89059082 145.2877124 -41.78118164 144.5754248 -41.66845703 143.84155273 C-40.93726962 140.7333386 -39.80089066 138.35338718 -38.3046875 135.53515625 C-37.75707764 134.49520508 -37.20946777 133.45525391 -36.64526367 132.38378906 C-36.06107666 131.28776367 -35.47688965 130.19173828 -34.875 129.0625 C-33.68054419 126.78799426 -32.48652979 124.51325665 -31.29296875 122.23828125 C-29.8093818 119.42417915 -28.32492538 116.61064265 -26.83056641 113.80224609 C-7.96039264 78.26230751 -2.94052827 39.51758326 0 0 Z " fill="#000000" transform="translate(698,222)"/>
<path d="M0 0 C0.99 0 1.98 0 3 0 C5.42755144 9.28597346 7.63053948 18.4858532 9 28 C7.51988629 27.69201674 6.04092675 27.378482 4.5625 27.0625 C3.32693359 26.80146484 3.32693359 26.80146484 2.06640625 26.53515625 C0 26 0 26 -1 25 C-1.01674294 23.14416777 -0.96275607 21.28760637 -0.87890625 19.43359375 C-0.83056641 18.30888672 -0.78222656 17.18417969 -0.73242188 16.02539062 C-0.67634766 14.84138672 -0.62027344 13.65738281 -0.5625 12.4375 C-0.51029297 11.24962891 -0.45808594 10.06175781 -0.40429688 8.83789062 C-0.2741434 5.89168934 -0.1391636 2.94578724 0 0 Z " fill="#000000" transform="translate(540,612)"/>
</svg>
