<svg xmlns="http://www.w3.org/2000/svg" width="960" height="854"><path d="m648 56 2.5.4c41.7 7.4 80.8 28 110.8 57.7l2 2 1.9 1.8 1.6 1.7c1.2 1.4 1.2 1.4 1.2 3.4h2l3.6 4.4q5.4 7 11.6 13.2c2.1 2.8 2.5 5 2.8 8.4-4.7-.9-4.7-.9-7-2v-2l-1.6-.8q-4.3-2.2-8.1-4.8-10.4-6.4-21.4-11.5l-6-3a186 186 0 0 0-137.8-11.7 176 176 0 0 0-20.3 8.6c-4.6 2.2-4.6 2.2-6.8 2.2v2l-2.2 1c-7 3.2-12.7 7-18.6 11.7-4 3.3-4 3.3-6.2 3.3v2l-4.9 4c-6 4.8-11 10.2-16.1 16l-1.9 2c-9 9.7-9 9.7-15.1 21h-2l-.7 2q-2.3 5.1-5.3 10a244 244 0 0 0-27 71l-.5 2.5c-3.7 18-4.8 36.3-6.1 54.6a514 514 0 0 1-3 30.3q-1 9-1.6 18.1-2.1 24-4.8 48.2l-.4 3.6a1586 1586 0 0 1-8.7 70.2l-2.3 17-.4 3.1a153 153 0 0 1-2.8 15.4q-.9 4.2-1.3 8.4A193 193 0 0 1 438 577l-.7 2.2a154 154 0 0 1-26.9 50.5q-3.9 4.5-7.3 9.5L401 642h-2l-.7 1.7a31 31 0 0 1-5.7 7l-2.3 2.4a12 12 0 0 1-6.3 2.9l-1 3a138 138 0 0 1-37.1 23l-3.7 2c-6 3.2-12.2 4.9-18.8 6.6l-3.2 1a162 162 0 0 1-43.3 4.7h-8.2c-17 .1-32.6-2.6-48.7-8.3l-1.9-.7c-16.2-5.8-30-14.5-43.5-25l-4-3-1.6-1.3v-2h-2c-1.6-1.6-1.6-1.6-3.3-3.7l-6.1-6.7c-6.9-7-12.2-16-16.6-24.6l-1.5-3a88 88 0 0 1-9.9-43.6v-2c0-11.3 1-21.7 4.4-32.4h2l.4-2.2a74 74 0 0 1 18.1-32c2.6-2.6 2.6-2.6 3.5-5.8 1.4-1.7 1.4-1.7 3-3h2l.7-1.7c1.7-3 3.9-5 6.3-7.3l2-2.6c1.9-2.3 3.6-3.8 6-5.4h2l1-3 3.8-3.4q4.6-3.9 8.2-8.6l5-4c-10.8-6.3-10.8-6.3-22-12v-2l-2.5-.7a67 67 0 0 1-11.6-6l-2.3-1.3a358 358 0 0 1-25.8-16.9L132 421l-4-3v-2l-1.7-.2c-3.3-1.1-5.2-3.2-7.7-5.6-4-3.7-4-3.7-8.2-7.2a49 49 0 0 1-7-7.5l-2.3-2.8L99 390l-1.8-2.2C96 386 96 386 96 384h-2q-8-13.3-14-28l-1-2.2c-9.9-24-7.3-53-1.6-77.7l.6-2.6q1.7-7.6 5.1-14.5 1.3-3 1.9-6h2l.4-2.1q1-4.5 2.6-8.9h2l.7-2.6a40 40 0 0 1 7.3-12l6.3-8.6c3.3-4.6 6.5-9 10.7-12.8l2.7-2.8c2.3-2.2 2.3-2.2 4.3-2.2v-2h2v-2q2.6-2.3 5.4-4.4l1.8-1.3q7.2-5.4 14.9-10.4l2.2-1.5 2-1.3 1.9-1.2c1.8-.9 1.8-.9 5.8-.9l1-3 7.4-4 2.2-1q8-3.9 16.4-7l2.3-1a219 219 0 0 1 27-9c57.2-18 120.3-4.9 172.7 21a330 330 0 0 1 16 9l.7-2q2.8-6 6-11.9l1.3-2.3q3.6-6.6 8.6-12.2 3-3.5 5.6-7.3 5.9-7.8 12.5-14.8c2.3-2.5 2.3-2.5 4.4-5.1q2.6-3.2 5.8-5.8l7.5-7c2.6-2.6 2.6-2.6 4.6-2.6v-2l5.2-3.9q4.5-2.9 8.5-6.4C478 96 478 96 480 96v-2h2v-2l3-1.1q4.1-2 8-4.6c19.3-13.2 42.7-21 65-27.3l3.3-1q5.6-1.5 11.4-2 1-.2 2.2-.3l7-.8 2.4-.3c21.6-2.3 42.3-2.4 63.7 1.4M299 190l-3 .4c-34.1 5-69.8 17-97 38.6l-3.3 2.4-1.7 1.3-1.7 1.2-5.3 4.1v2l-1.7.7c-3 1.7-5 3.8-7.3 6.3l-1.7 1.6A104 104 0 0 0 145 313a84 84 0 0 0 15 52l1.4 2.8c1.7 3.4 3.7 6.1 6.2 9l2.3 3 2.1 2.2h2l.7 1.7c9.3 16.4 37.5 26 54.5 30.8q20.3 5.4 40.8 9.5l2.9.6 8.2 1.7 2.5.5A44 44 0 0 0 295 428a32 32 0 0 1-5 9v2h-2c-1.8 2-1.8 2-3.6 4.4l-2 2.4c-1.6 2-1.6 2-1.4 4.2l-1.8.8a13 13 0 0 0-5.2 5.2v2l-1.7.6c-3.3 2-5.4 4.8-7.9 7.7l-3.2 3.8-1.6 2-4.5 5.3a197 197 0 0 0-15 19.4l-4.3 6.3c-15.1 21.2-26.9 44.2-24.4 70.8a65 65 0 0 0 24.6 40.5 70 70 0 0 0 51 9.6q3-.9 5.8-2 2.6-1.1 5.3-2c7.4-2.7 13-5.7 18.9-11l1.6-1.4c8.8-7.8 8.8-7.8 16.4-16.6v-3h3q2.3-3.2 4.5-6.7l1.2-1.9 5-8.1c1.6-2.5 1.6-2.5 1.3-6.3h2c16.4-35.4 22-73.1 27.6-111.4l1.6-10.8q3-19 4.8-38.1.7-8 2-15.8 1.8-13 3-26l1-10 .2-2.6 2-18.8 2.7-25.3q1-10.5 2.3-21 1.8-14.4 3.2-28.7l.5-5q0-1.3.3-2.6l4.3-39.2.2-2.2c.4-4 .3-6.9-1.7-10.5-4.8-3.3-10-3.9-15.7-4.6l-2.6-.4q-7.9-1-15.8-1.7c-1.9-.3-1.9-.3-2.9-1.3-10-1.4-20.1-1.2-30.1-1.2H331q-16.2 0-32.1 2.2"/><path d="M672 137c31.8-1 60.4 6.5 88 22l3.4 2c5 2.8 5 2.8 6.6 4v2l1.6.7c6.5 3.5 13.5 8.2 16.4 15.3h2c11 9.8 18.3 24.6 24 38l.8 1.8c9.1 20.7 6.9 47.6.1 68.6q-1.8 4.5-3.9 8.6l-.9 1.8A137 137 0 0 1 794 327l-3.4 4.5-2.6 3.5-1.5 2.2-1.5 1.8h-2v2h-2v2h-2l-.7 1.7c-3.3 6-9.7 11.4-15.3 15.3h-2v2l-3.4 3.1-1.9 1.7C754 368 754 368 752 368v2l-6 4-1 1 6 2v2l2.6.4q4.8 1 9.4 2.6v2l2.2.3c3 .7 5.1 1.8 7.7 3.2l2.9 1.6 2.9 1.7Q789 396.7 800 402v2l2 .6a56 56 0 0 1 13.2 8.9c11.3 8.8 25.9 20.7 30.8 34.5h2q2.5 3.4 4.7 7l1.3 2.2c4.5 7.3 7.8 14.9 11 22.8l1.2 2.9c4.1 10.6 7.3 22.7 7.8 34.1l.1 3A147 147 0 0 1 828 628l-3.2 3.3a125 125 0 0 1-19.6 17.1c-2.2 1.5-2.2 1.5-3.6 3a25 25 0 0 1-5 3.8l-2.1 1.2-2.3 1.3-2.3 1.3-8.7 5a184 184 0 0 1-57.4 21.4l-6.2 1.4a155 155 0 0 1-34.4 2.6h-3A320 320 0 0 1 598 679l-3.6-.9a166 166 0 0 1-13.8-4.2l-2.6-1-19.3-6.5-2.5-.9q-7.5-2.6-15-5.6c-3.2-1.3-5.8-2-9.2-1.9-2.7 2-2.7 2-4.8 5l-3.8 5.2-5.8 7.4-8 10.1Q508 688 506 690h-2l-.8 1.8c-2 3.6-4.9 6.4-7.7 9.5l-1.8 2-1.7 1.8-1.6 1.7C489 708 489 708 487 708l-.8 1.8q-2 3.5-5.2 6.2h-2l-1 3-5.3 4.4c-4 3.1-4 3.1-7.7 6.6a204 204 0 0 1-81.8 47.3l-6.4 2.2q-6.7 2.1-13.6 3.2-1.3 0-2.5.3c-9 1.3-18 1.5-27.1 1.4H331c-21-.2-39.1-3.3-59-10.4l-2.1-.7A195 195 0 0 1 237 757l-2-1.1q-11.5-6.9-22.2-14.9c-2.6-2-2.6-2-4.8-3v-2l-1.7-.7c-4.9-2.7-9-6.7-13.3-10.3l-2.5-2-2.2-2-2-1.6C185 718 185 718 185 716l-1.7-.7a54 54 0 0 1-20.4-20.5c-1.2-2.4-2.5-2.7-4.9-3.8l-2-2v-3q5 1.1 9.7 3.6l11 5.3a259 259 0 0 0 116 29.4h2c12 0 23.4-1.5 35.1-4q4.1-.5 8.2-.3v-2l2.7-.6a146 146 0 0 0 55.7-28.3c1.6-1.1 1.6-1.1 3.6-1.1v-2c1.5-1.5 1.5-1.5 3.6-3.2q4-3.5 7.8-7.2c2.6-2.6 2.6-2.6 4.6-2.6l.2-1.7c1-2.6 2.3-3.9 4.3-5.8q4.6-5 8.5-10.5l1.7-2.2c5.8-8 12.2-17.4 15.3-26.8h2l.5-1.6a188 188 0 0 1 5.3-14.3c14.8-35.5 20-74.3 23.5-112.4q.7-6.8 1.7-13.7 1.8-15 3-30.2l1-11.5.2-2.9 1.8-18.6a1325 1325 0 0 0 3.3-38.3l.2-2.2c.2-3 .6-5.5 1.5-8.3l1.3-13.6q0-1.4.3-2.8a477 477 0 0 1 7.1-52.8c2.8-15.8 6-31.7 11.3-46.8l.7-2.1a225 225 0 0 1 19.2-41.4l1.1-2 3-4.5h2l.8-1.7c15.4-29.4 53.8-49 83.8-59a196 196 0 0 1 51.5-8.4m-30 82-3.2 1.4c-11.6 6.5-25.1 15.2-30.8 27.6h-2c-3 3.6-3 3.6-4 8h-2a135 135 0 0 0-21 41c-1 3-1 3-2.5 6.4-13 31-13.4 68.6-16.5 101.6a1121 1121 0 0 1-6 51.2q-7.3 52.4-12.5 105.2-1.1 11.3-3 22.4-1.4 9.6-2.4 19.2l-.8 7.3c-2.7 15.9-2.7 15.9.7 30.7 3.5 1.8 7.3 2.8 11 4l3.2 1c13 4 26.6 5.8 40.2 7.2l2.4.2c29 2.9 58.4-2.3 86-10.7q4.5-1.4 9.2-2.7v-2l2.4-.2c5-1.1 9.3-3.3 14-5.5l2.7-1.4C719.4 625 732 617.2 742 608v-2l1.6-.7q4.6-2.8 8.2-6.9l1.6-1.6c8.1-7.8 8.1-7.8 12.6-17.8h2l4.2-6 1.2-2a101 101 0 0 0 15.6-72 98 98 0 0 0-15-28l-2.3-3-1.7-2h-2v-2h-2l-.7-1.7c-9.7-16.9-40-30.4-57.3-37.3l-3.4-1.4c-12.7-4.9-26-7.7-39.3-10.8q-6-1.5-12-3.2a25 25 0 0 0-8.3-.6v-4h2v-2l1.7-.2c3.2-1.1 5-3 7.5-5.4q4.8-4.6 9.8-8.7c10-8.7 17.6-19.9 25-30.7l1.2-1.7c2.1-2.9 2.1-2.9 2.8-6.3h2l4-6 2.2-3.2c2-2.5 2-2.5 1.8-4.8h2c16.4-21.7 28.7-50.4 25.3-77.9-2-12.9-8-25.2-18.2-33.5A67 67 0 0 0 693 214l-3.3-.9A69 69 0 0 0 642 219"/><path d="M348 193c-.5 7.8-2.2 15-4.2 22.6A275 275 0 0 0 334 282v3.3c-.4 27.6-.4 27.6 1.5 55.2.8 9.2.7 18.4.7 27.6v3l.1 23.3v3.5c0 36.9-.6 73.4-4.3 110.1l-.4 3.6c-4.4 45-4.4 45-8.6 65.4l-2 10.6-.5 2.5c-1.2 6.2-3 11.5-6.5 16.9h-3v2l-5.7 2.9-3.2 1.6c-5 2.4-8.4 3.8-14.1 3.5q.5-15 2-30a781 781 0 0 0 3-89.8v-2.8l.1-38.8c-.1-10.4.6-17.6 7.9-25.6l1-2h2v-3l-2-.2-2.4-.2-2.5-.3c-2.1-.3-2.1-.3-3.1-1.3l-.2-6v-3.8l-1-119.7V290c0-10 .9-19.5 4.2-28.9l1.6-5.5a458 458 0 0 1 13-36.2q3.5-9 5.7-18.4c1.5-5.7 1.5-5.7 3.7-7.9 9-1.4 18-1 27 0M631 411c13.8.7 26.8 4.2 40 8 .4 4-.2 6.9-1.7 10.5l-1.1 2.7-1.2 2.8-1.2 2.8q-10 23.7-22.4 45.8c-7 12.4-12.6 24.4-16.1 38.2l-.7 2.3c-5.1 21.1-3.7 43.2-3.5 64.8l.2 17.6c0 11.8-2 22.6-5.9 33.8l-1.2 3.7c-1.2 3-1.2 3-3.2 5-2.6.2-2.6.2-5.8 0h-3.6l-3.9-.2-3.8-.2c-23.6-1-23.6-1-28.9-4.6-1-2.4-1-2.4-1.9-5.4l-.8-3.3-1-3.5-.8-3.4c-3.5-13.3-5-26.3-5-40v-2.1a158 158 0 0 1 14.4-65.7q3.7-9.3 8.7-18.1l1.6-2.9 18-32q.7-1.5 1.5-2.8l3.1-5.4q4.1-7.3 8-14.8 3.4-6.9 7.2-13.7l1.5-2.8zm-33 116a141 141 0 0 0-15.3 50.2c-2.3 16-1 40.6 8 54.5l1.9 1.9 1.8 1.9a8 8 0 0 0 3.6 2.5l3-6c1.5-3.1 2.1-5.6 2-9l-.1-2.5-.2-2.7v-2.9l-.5-9.4L599 527zM295 196a84 84 0 0 1-3.6 18.4l-.8 2.6q-6.7 20.9-15.6 40.9c-5.7 13-6.2 25-6.2 39v2.7c0 25.5.8 51 1.5 76.5l.4 15q.4 13.5.3 26.9a66 66 0 0 1-23.4-3.6c-15.3-4-15.3-4-19.6-5.4l-.2-3.7c-1.2-21.4-2.5-42.8-4.8-64.1l-.2-2.3q-1.3-12.1-3.4-24.2a202 202 0 0 1-2.8-24.8A884 884 0 0 1 215 224c20.7-12 20.7-12 25-12q.3 10.2-1 20.3c-1.9 14.3-1.9 14.3 2 27.7 4.4-12.2 7.7-24.6 11.1-37.1l1-3.5 1.7-6.7.7-3 .7-2.6c.8-2.1.8-2.1 4-4.2l3.8-.9 2-.6c3.8-1 7.2-1.6 11-1.4v-2l6.2-1 3.5-.6q4-.5 8.3-.4M674 217q-1 11.7-2.9 23.2l-.5 3.3-1.6 9.5-.4 2.5q-2 12-5.5 24-1.4 4.2-2.4 8.5-3 10.5-6.5 20.8l-.7 2c-3.2 9.5-6.4 19-10.5 28.2l-1 2.5q-7.5 17.4-17 33.5l-3 5.5q-4 7.6-8.4 14.8a41 41 0 0 0-3.6 7.7l-1.4 1.4c-2 2-3.2 4.2-4.6 6.7l-1.7 3-1.9 3.4-1.9 3.4a661 661 0 0 0-21.6 42 461 461 0 0 1-11.6 23.4q-4.2 8.2-7.5 16.7l-1.8 4h-3c-.4-7.2.5-13.9 1.7-21q1.6-10.2 2.8-20.4 1.3-11.3 3-22.4 1.9-14.2 3.5-28.4 0-1.2.3-2.3 1.4-12.5 2.4-25.1c5.7-71.7 5.7-71.7 21.3-101.4h3c-.4 30.7-5.7 63-17.5 91.4-3.2 8.2-3.4 16-1.5 24.6h4a93 93 0 0 0 15-23l8-16 1.4-2.8a220 220 0 0 0 16-49.3c4.5-19.4 4.2-39.5 2.1-59.2l-.3-3.2-.3-2.9c.2-4 1.9-6.5 4.9-9.2l2-1.4 2.1-1.5 2.3-1.6 2.2-1.5A96 96 0 0 1 646 222l2.5-1.2c7.7-3.3 17.2-6.1 25.5-3.8M369 195c7.2-.3 13.9.5 21 2l2.8.5q5.2 1 10.2 2.5a316 316 0 0 1-2.5 31.8q-2.6 19.5-4.5 39l-.2 2.3-1.6 14.6L393 300l-3 29.1-.3 2.5q-3.2 32.2-7.1 64.6l-.5 3.7q-2.8 23.3-6 46.6l-.2 2.3q-1.4 10.8-3.4 21.6l-2 12.2c-3.2 22-9 43.2-15.5 64.5h-3a1422 1422 0 0 1 1-60.7q.9-28.7 2-57.4 1-20.8 1.7-41.8a4749 4749 0 0 1 4.5-112.8q2.3-39.9 7.8-79.3"/><path d="m700 429 10 1v2q1 0 2 .3a37 37 0 0 1 10.1 4.7c4.8 2.9 4.8 2.9 9.9 5v2h2a41 41 0 0 1-4 12.3l-1.3 3-1.3 3a1085 1085 0 0 1-27 56l-5.2 10.3-1.5 3-3.6 7.2A191 191 0 0 0 674 580l-.6 2.5A181 181 0 0 0 668 627v14a108 108 0 0 1-34 6l4-31a478 478 0 0 0 4.3-50.3q.4-12.5 1.6-25l.2-2.3A82 82 0 0 1 669 489l1.7-2.3 1.3-1.7h2l2-5h2l.8-2.2a50 50 0 0 1 4.6-8.2q4-5.9 6.6-12.6l1.1-2.3c4-8.3 6.5-16.9 8.9-25.7M755 461c6.9.9 12 8.4 16 13.5q2.6 3.8 5 7.5.7 1.3 1.7 2.7A48 48 0 0 1 785 509h-2l-.7 2a54 54 0 0 1-6.3 10.1l-2.7 3.7-2.3 3.2-2 3h-2l-.9 1.8q-1.5 3-3.4 5.6l-1.3 2-1.5 2q-7.7 11.1-14.9 22.6l-2 3.2c-7.2 12-13.3 25.1-17 38.7-2.5 9.6-2.5 9.6-6.7 12.5q-2.6 1.4-5.3 2.6l-8.5 4.8-2.1 1.1A49 49 0 0 1 688 633a227 227 0 0 1 12.4-66.4 107 107 0 0 1 9.4-22.4 229 229 0 0 1 17.6-29.8 218 218 0 0 0 23.9-44.5q1.7-4.5 3.7-8.9M195 240l.1 2.8c.8 17.9 1.8 35.6 3.9 53.3l.3 2.2q1.2 11 3.2 21.6 1.7 11 3 22l.4 2.5c1.7 13.2 3 26.3 3.1 39.6v16c-14-1.7-29-14.8-38-25.3a52 52 0 0 1-12-30.7l-.2-2-1.5-17c-.8-10.5-.8-10.5-2.1-21a35 35 0 0 1 8.8-32l3-5 4-5.1q3.2-3.8 6-7.9h2l.8-1.8c1.4-2.5 3-4 5.1-5.8 3-2.4 3-2.4 5.7-5.1 1.4-1.3 1.4-1.3 4.4-1.3M270 467h3v17.9a491 491 0 0 1-4.7 71l-1.2 9.9q-1 8.2-3.1 16.2l-2 9.3-.5 2.5q-1.8 8.4-3 16.9a21 21 0 0 1-2.5 6.3 37 37 0 0 1-24-12l-2.4-2.4-2.5-2.8-2.4-2.5c-2.5-4.9-2-8.9-1.7-14.3l.7-18.4.4-8.5c1.4-30.7 1.4-30.7 8.9-41.1l12.7-18.8a26 26 0 0 1 4.8-5.6q2.9-3.3 5.5-7.1c2.8-3.9 5.5-7.2 9-10.5l2.6-3.3zM698 222c4.5.8 7 2.2 10.8 4.9l2.9 2c2.3 2.1 2.3 2.1 3.3 5.1h2c10.4 12 11.7 27 10.8 42.3-3.3 31.1-25.7 59.6-44.4 83.5l-7 9.4q-6.2 8.3-13.4 15.8l-1.8 1.9a137 137 0 0 1-17.5 15l-2.1 1.6-2 1.5c-1.6 1-1.6 1-4.6 1 .6-4 1.9-7 3.9-10.6l1.8-3.4 1.1-1.9L654 368h2l.3-2.2c.8-3 1.9-5.4 3.4-8.3l1.7-3.1 9.8-18.6C690 300.3 695 261.5 698 222M540 612h3q3.8 13.8 6 28l-4.4-1-2.5-.5c-2.1-.5-2.1-.5-3.1-1.5l.1-5.6.2-3.4.1-3.6.2-3.6z"/></svg>