<svg xmlns="http://www.w3.org/2000/svg" viewBox="0 0 960 960"><circle cx="480" cy="480" r="480" fill="#fff"/><g fill="#6b3fa0"><path d="m631.2 151.4 2.2.4a190 190 0 0 1 99.8 51.9l1.8 1.7 1.7 1.7 1.4 1.5c1.1 1.3 1.1 1.3 1.1 3.1h1.8l3.2 4q5 6.2 10.5 11.8c1.9 2.6 2.2 4.5 2.5 7.6-4.3-.8-4.3-.8-6.3-1.8v-1.8l-1.5-.7q-3.7-2-7.3-4.4-9.3-5.5-19.2-10.3l-5.3-2.6a167 167 0 0 0-124.1-10.6q-9.4 3.3-18.3 7.7c-4.1 2-4.1 2-6.1 2v1.8l-2 .9a78 78 0 0 0-16.7 10.6c-3.6 2.9-3.6 2.9-5.6 2.9v1.8l-4.4 3.5q-8 6.6-14.5 14.5l-1.7 1.9c-8 8.6-8 8.6-13.6 18.8h-1.8l-.7 1.9q-2 4.5-4.7 8.9a220 220 0 0 0-24.3 63.9l-.5 2.3c-3.3 16.1-4.2 32.6-5.4 49q-1 13.8-2.7 27.4-.9 8-1.5 16.3a1921 1921 0 0 1-4.3 43.3l-.3 3.2a1433 1433 0 0 1-4.7 39.4l-1.2 8.6-2 15.2-.8 6.2-1.2 9.2-.4 2.8q-.9 7-2.5 13.8-.8 3.8-1.2 7.5c-1.5 11.1-4.7 21.5-8.2 32.1l-.7 2a138 138 0 0 1-24.1 45.4q-3.6 4.1-6.6 8.6l-1.9 2.5h-1.8l-.7 1.5c-1.3 2.5-3 4.3-5 6.3l-2.1 2.2c-2.1 1.7-3.2 2-5.7 2.6l-.9 2.7a124 124 0 0 1-33.4 20.8l-3.3 1.7c-5.4 2.9-11 4.4-17 6l-2.8.8c-13 3.5-25.7 4.3-39 4.3h-7.4c-15.3 0-29.3-2.4-43.8-7.5l-1.7-.6c-14.6-5.2-27-13-39.2-22.6l-3.6-2.7-1.4-1.1v-1.8h-1.8l-3-3.3a79 79 0 0 0-5.5-6 91 91 0 0 1-14.9-22.2l-1.4-2.6a79 79 0 0 1-8.8-39.3v-2c0-10 .9-19.4 3.9-29h1.8l.3-2c2.5-11 9-20.4 16.4-28.7 2.3-2.4 2.3-2.4 3.1-5.3 1.3-1.5 1.3-1.5 2.7-2.7h1.8l.6-1.5c1.5-2.7 3.5-4.5 5.7-6.6l1.9-2.4c1.6-2 3.1-3.4 5.3-4.8h1.8l.9-2.7c1.5-1.5 1.5-1.5 3.4-3 2.9-2.4 5.1-4.9 7.4-7.8l4.5-3.6c-9.8-5.7-9.8-5.7-19.8-10.8v-1.8l-2.2-.6c-3.8-1.4-7-3.3-10.5-5.4l-2-1.2a323 323 0 0 1-16.8-10.8l-3.3-2.2-3.2-2.2-1.6-1-3.6-2.7v-1.8l-1.5-.2c-3-1-4.7-2.9-7-5-3.5-3.4-3.5-3.4-7.3-6.5q-3.6-3-6.4-6.8l-2-2.5-1.9-2.4-1.6-2c-1.1-1.6-1.1-1.6-1.1-3.4h-1.8c-4.9-8.2-9-16.3-12.6-25.2l-.8-2c-9-21.6-6.7-47.6-1.6-69.9l.6-2.4q1.5-6.7 4.6-13 1.1-2.6 1.7-5.4h1.8l.3-2q1-4 2.4-7.9h1.8l.6-2.3c1.3-3.5 3.2-6.2 5.4-9.1l1.2-1.7 2.4-3.3 3.2-4.5q4.3-6.2 9.7-11.5l2.4-2.5c2.1-2 2.1-2 3.9-2v-1.8h1.8v-1.8l4.9-4 1.5-1.2q6.6-4.8 13.5-9.3l2-1.3 1.8-1.3 1.7-1c1.6-.8 1.6-.8 5.2-.8l.9-2.7 6.7-3.5 2-1a181 181 0 0 1 14.7-6.3l2-.9a197 197 0 0 1 24.3-8.2c51.5-16.1 108.3-4.3 155.5 19q7.4 3.9 14.4 8.1l.6-1.7q2.4-5.6 5.5-10.8l1.1-2.1a57 57 0 0 1 7.7-11q2.8-3 5.1-6.6 5.2-7 11.3-13.3c2-2.2 2-2.2 3.8-4.5q2.4-2.9 5.3-5.3 3.6-3 6.7-6.3c2.4-2.3 2.4-2.3 4.2-2.3v-1.8l4.7-3.5 7.7-5.7c2-1.6 2-1.6 3.8-1.6v-1.8h1.8v-1.8l2.6-1a38 38 0 0 0 7.2-4.1 200 200 0 0 1 58.6-24.6l3-1q5-1.2 10.2-1.8l2-.2 6.3-.7 2.2-.3c19.4-2 38-2.1 57.3 1.3M317.1 272l-2.8.4c-30.6 4.4-62.7 15.3-87.2 34.7l-3 2.2-1.5 1-1.5 1.2-4.8 3.7v1.8l-1.5.6c-2.7 1.5-4.5 3.5-6.6 5.7l-1.6 1.5a94 94 0 0 0-28.1 57.9 76 76 0 0 0 13.5 46.8l1.2 2.5c1.6 3.1 3.4 5.5 5.6 8.2l2.1 2.6 1.9 2h1.8l.6 1.5c8.4 14.8 33.8 23.4 49.1 27.8q18.2 4.8 36.7 8.5l2.6.5 7.4 1.6 2.3.4q5 1.2 10.2 1.1a29 29 0 0 1-4.5 8.1v1.8h-1.8l-3.3 4-1.7 2.2c-1.5 1.8-1.5 1.8-1.3 3.7l-1.6.7a12 12 0 0 0-4.7 4.7v1.8l-1.5.5c-3 1.8-5 4.3-7.1 7L283 524l-1.5 1.8-4 4.7q-7.3 8.3-13.4 17.5l-4 5.7c-13.6 19-24.2 39.7-22 63.7a58 58 0 0 0 22.2 36.5 63 63 0 0 0 45.9 8.6 38 38 0 0 0 5.2-1.9l4.8-1.8c6.7-2.3 11.7-5 17-9.8l1.4-1.3c8-7 8-7 14.8-14.9v-2.7h2.7l4-6 1.1-1.7 2-3.4 2.6-4c1.4-2.1 1.4-2.1 1.1-5.6h1.8c14.8-31.9 19.8-65.8 24.9-100.3l1.4-9.7a713 713 0 0 0 4.3-34.3q.6-7.2 1.8-14.2 1.7-11.7 2.7-23.5l.9-9 .2-2.2 1.9-17 2.3-22.7 2.1-19q1.6-12.8 2.8-25.7l.5-4.6.3-2.3 1.5-14.5 1-9.7.6-4.6.7-6.5.2-2c.4-3.6.3-6.2-1.5-9.4-4.4-3-9-3.5-14.2-4.2l-2.3-.3a253 253 0 0 0-14.2-1.6c-1.7-.2-1.7-.2-2.6-1.1-9-1.2-18.1-1-27.1-1l-7-.1q-14.5 0-28.9 2"/><path d="M652.9 224.2c28.5-.7 54.3 6 79.1 19.9l3 1.7c4.5 2.6 4.5 2.6 6 3.7v1.8l1.4.6c5.9 3.2 12.2 7.4 14.8 13.8h1.8a96 96 0 0 1 21.6 34.2l.7 1.7c8.2 18.5 6.2 42.8.1 61.7L778 371l-.8 1.6c-4 8.3-8.8 15.5-14.5 22.7l-3 4-2.4 3.2-1.4 2-1.3 1.6h-1.8v1.8h-1.8v1.8h-1.8l-.7 1.5c-3 5.4-8.7 10.3-13.7 13.8h-1.8v1.8c-1.3 1.4-1.3 1.4-3 2.8l-1.7 1.5c-1.6 1.1-1.6 1.1-3.4 1.1v1.8l-5.4 3.6-.9.9 5.4 1.8v1.8l2.4.3q4.4.9 8.4 2.4v1.8l2 .3a25 25 0 0 1 7 2.9l2.5 1.4 2.6 1.5q9.5 5.3 19.2 10.1v1.8l1.8.6a50 50 0 0 1 9.8 6.4l2 1.5c10.2 8 23.4 18.7 27.8 31.1h1.8l4.2 6.3 1.2 2c4 6.5 7 13.4 9.9 20.5l1 2.6a98 98 0 0 1 7.1 30.7l.1 2.7c.7 35-13.5 67.3-37 92.7l-4.5 4.5-2.8 3c-5.6 5.7-11 11-17.7 15.4-2 1.3-2 1.3-3.3 2.7a22 22 0 0 1-4.5 3.4l-1.9 1-2 1.2-2 1.2-4.3 2.5-3.7 2a165 165 0 0 1-57.2 20.5 139 139 0 0 1-31 2.3h-2.6c-14.4 0-28.3-.8-42.5-3l-4.8-.7q-13.4-1.9-26.7-5.6l-3.3-.8q-6.3-1.6-12.4-3.8l-2.3-.8-5-1.7-7.5-2.6-4.9-1.7-2.2-.7a242 242 0 0 1-13.5-5.1 20 20 0 0 0-8.3-1.7c-2.4 1.8-2.4 1.8-4.3 4.6l-1.1 1.4-2.4 3.2-5.1 6.6-3.7 4.7-2.3 2.9-1.2 1.6-3.3 3.8h-1.8l-.7 1.6c-1.8 3.3-4.4 5.8-7 8.5l-1.6 1.8-1.5 1.7-1.4 1.5c-1.3 1.1-1.3 1.1-3.1 1.1l-.7 1.6a20 20 0 0 1-4.7 5.6h-1.8l-.9 2.7-4.8 4c-3.5 2.8-3.5 2.8-6.9 5.9a183 183 0 0 1-73.6 42.6l-5.8 2q-6 1.8-12.3 2.8l-2.2.3c-8.1 1.2-16.2 1.3-24.4 1.2H346c-19-.1-35.2-3-53.1-9.3l-1.9-.7c-10.5-3.6-20-9-29.6-14.6l-1.7-1q-10.4-6.1-20-13.4c-2.4-1.8-2.4-1.8-4.4-2.7v-1.8l-1.5-.7c-4.4-2.4-8.2-6-12-9.2l-2.2-1.9-2-1.6-1.8-1.5c-1.2-1.3-1.2-1.3-1.2-3.1l-1.5-.7a48 48 0 0 1-18.4-18.3c-1-2.2-2.2-2.6-4.4-3.5l-1.8-1.8v-2.7q4.6 1.1 8.8 3.2l3.1 1.5 6.7 3.3a233 233 0 0 0 104.5 26.5h1.8c10.8 0 21-1.3 31.6-3.6a32 32 0 0 1 7.3-.3v-1.8l2.4-.6c18.8-4.6 35-13.5 50.2-25.4 1.4-1 1.4-1 3.2-1v-1.8l3.3-3q3.6-2.9 7-6.4c2.3-2.3 2.3-2.3 4.1-2.3l.2-1.5c.8-2.4 2-3.5 3.8-5.2q4.2-4.5 7.7-9.5l1.5-2c5.2-7.2 11-15.6 13.8-24.1h1.8l.5-1.5a169 169 0 0 1 4.7-12.8c13.3-32 18-67 21.2-101.2l1.5-12.3q1.7-13.4 2.7-27.2l.9-10.4.2-2.5 1.6-16.8q1.4-14.1 2.5-28.1l.5-6.4.1-2c.3-2.6.6-4.8 1.4-7.4l.7-7.6.5-4.7.2-2.4a429 429 0 0 1 6.5-47.6c2.5-14.2 5.4-28.5 10.1-42.1l.7-2a203 203 0 0 1 17.2-37.2l1-1.7 2.7-4.1h1.8l.7-1.6c13.9-26.4 48.5-44 75.5-53 15-4.6 30.7-7.1 46.3-7.6m-27.1 73.9-2.9 1.3c-10.4 5.8-22.6 13.6-27.7 24.8h-1.8c-2.7 3.3-2.7 3.3-3.6 7.2H588a122 122 0 0 0-18.9 36.8c-.9 2.8-.9 2.8-2.2 5.8-11.8 28-12 61.8-14.9 91.5q-2.1 23.1-5.3 46-6.7 47.3-11.4 94.7-1 10.1-2.6 20.3-1.4 8.5-2.2 17.2l-.7 6.6c-2.5 14.3-2.5 14.3.6 27.6 3.1 1.7 6.5 2.6 9.9 3.6l2.9 1c11.8 3.6 24 5 36.2 6.4l2.1.2c26 2.5 52.6-2.1 77.4-9.7l8.3-2.4v-1.8l2.1-.2c4.6-1 8.5-3 12.6-5l2.5-1.1c11-5.4 22.3-12.4 31.4-20.7v-1.8l1.5-.6c2.9-1.6 5-3.9 7.3-6.2l1.5-1.5c7.3-7 7.3-7 11.3-16h1.8l3.8-5.5 1-1.7a91 91 0 0 0 14-64.8c-2.8-9-7.8-17.6-13.4-25.2l-2-2.8-1.6-1.7h-1.8v-1.8h-1.8l-.6-1.5c-8.8-15.2-36-27.4-51.6-33.6l-3-1.2c-11.5-4.5-23.5-7-35.4-9.8l-10.9-2.9q-3.6-.9-7.4-.5v-3.6h1.8v-1.8l1.5-.2c3-1 4.6-2.7 6.8-4.9q4.3-4 8.8-7.8c9-7.8 15.8-17.9 22.5-27.6l1-1.5c2-2.6 2-2.6 2.6-5.7h1.8l3.6-5.4 2-3c1.8-2.2 1.8-2.2 1.6-4.2h1.8c14.8-19.5 25.8-45.4 22.8-70a48 48 0 0 0-16.5-30.3c-6-4.2-11.7-7.5-18.9-9.5l-3-.8a62 62 0 0 0-42.9 5.3"/><path d="M361.2 274.7c-.4 7-2 13.5-3.8 20.3a248 248 0 0 0-8.8 59.8v3c-.4 24.8-.4 24.8 1.4 49.7.7 8.2.6 16.5.6 24.8V459c.1 33.2-.5 66-3.8 99.1l-.3 3.3c-4 40.4-4 40.4-7.8 58.8l-1 5.1-.8 4.4-.4 2.3a40 40 0 0 1-5.9 15.2h-2.7v1.8l-5.1 2.6-2.9 1.4a23 23 0 0 1-12.7 3.2q.5-13.5 1.8-27c2.6-24.4 2.8-49 2.8-73.4V511c-.1-9.3.5-15.8 7.1-23l.9-1.8h1.8v-2.7l-1.7-.2-2.3-.2-2.2-.2c-1.9-.3-1.9-.3-2.8-1.2l-.2-5.3V469l-.1-4-.2-11v-6.8l-.6-65.1v-20.2c0-9 .8-17.5 3.8-26l1.5-5q5.1-16.5 11.7-32.6 3-8.1 5-16.5c1.4-5.1 1.4-5.1 3.4-7.1a91 91 0 0 1 24.3 0m254.7 196.2c12.4.6 24.1 3.8 36 7.2.4 3.6-.2 6.2-1.5 9.4l-1 2.4-1.1 2.6-1 2.6a396 396 0 0 1-20.3 41.2c-6.3 11-11.2 22-14.5 34.3l-.5 2c-4.7 19.1-3.4 39-3.2 58.4v10.2l.2 5.7c0 10.5-2 20.3-5.3 30.3l-1.1 3.4c-1.1 2.7-1.1 2.7-2.9 4.5-2.3.2-2.3.2-5.2 0h-3.3l-3.4-.2-3.5-.2c-21.2-1-21.2-1-26-4.1-1-2.2-1-2.2-1.7-4.9l-.8-3-.8-3.1-.8-3c-3-12-4.4-23.7-4.5-36v-2q.1-28.5 11.4-55l1.6-4q3.4-8.5 7.9-16.3l1.4-2.7 3-5.2 3.6-6.7 9.5-16.9 1.5-2.5 2.7-4.8a233 233 0 0 0 7.1-13.4l6.6-12.3 1.4-2.5zm-29.7 104.4a127 127 0 0 0-13.5 43.2l-.3 2c-2 14.4-.9 36.5 7.3 49l1.6 1.7 1.6 1.8c1.5 1.4 1.5 1.4 3.3 2.2l1.7-3.4 1-2c1.4-2.8 1.9-5 1.8-8.1l-.1-2.3-.1-2.4-.2-2.6-.3-8.4-.3-6-.4-9.2-1.3-32.2-.4-9.2-.5-14.1zM313.5 277.4c-.5 5.8-1.5 11-3.3 16.5l-.7 2.4q-6 18.9-14 36.8a82 82 0 0 0-5.6 35.1v2.4q.2 34.5 1.4 69v4.6l.3 8.8q.4 12.1.3 24.2c-6.6.4-12.5-1-18.9-2.7l-2.2-.6c-13.7-3.5-13.7-3.5-17.6-4.8l-.2-3.3q-1.5-29-4.3-57.7l-.2-2q-1.1-11-3-21.9-1.7-9.5-2.3-19.2l-.2-3a796 796 0 0 1-1.5-59.4c18.7-10.8 18.7-10.8 22.5-10.8a113 113 0 0 1-1 18.3c-1.6 12.8-1.6 12.8 1.9 24.9 4-11 7-22.2 10-33.4l.9-3.2 1.5-6 .7-2.6.6-2.4c.7-1.9.7-1.9 3.6-3.8l3.4-.8 1.9-.5q4.8-1.6 9.8-1.3v-1.8l5.6-.9 3.1-.5a46 46 0 0 1 7.5-.4m341.1 18.9q-.8 10.5-2.6 20.9l-.5 3-1.4 8.5-.4 2.2q-1.7 11-5 21.6l-2 7.7q-2.8 9.4-6 18.7l-.5 1.8c-3 8.6-5.8 17.1-9.5 25.4l-1 2.3a269 269 0 0 1-15.2 30.1l-2.7 5-7.5 13.3a37 37 0 0 0-3.3 6.9l-1.2 1.2c-1.9 1.9-3 3.8-4.2 6l-1.6 2.9-1.6 3-1.7 3a595 595 0 0 0-19.5 37.8q-2.6 5.6-5.4 11.2l-1 1.8-4 8q-3.8 7.5-6.8 15.1l-1.6 3.6h-2.7c-.3-6.5.5-12.5 1.6-18.9a376 376 0 0 0 2.5-18.3q1-10.2 2.6-20.2 1.8-12.7 3.2-25.6l.2-2q1.3-11.4 2.2-22.7c5.1-64.4 5.1-64.4 19.2-91.2h2.7c-.4 27.6-5.1 56.7-15.7 82.3-3 7.3-3 14.4-1.4 22.1h3.6c5.7-6 9.8-13.4 13.5-20.7l1.8-3.5 5.4-10.9 1.2-2.5a198 198 0 0 0 14.1-42.5l.4-1.9c4-17.5 3.8-35.5 1.8-53.3l-.2-2.9-.3-2.5c.2-3.7 1.7-6 4.4-8.3l1.8-1.3 2-1.4 2-1.4 2-1.4a86 86 0 0 1 13.1-7.5l2.2-1c7-3 15.6-5.6 23-3.5m-274.5-19.8c6.5-.2 12.5.4 18.8 1.7l2.6.5q4.7 1 9.2 2.3-.3 14.3-2.3 28.6a1534 1534 0 0 0-4 35l-.2 2.2-1.4 13.2-1.1 11L399 397l-.2 2.2q-3 29.1-6.5 58.2l-.4 3.3q-2.5 21-5.3 42l-.3 2q-1.3 9.7-3 19.5-1 5.4-1.8 11c-3 19.8-8.2 38.8-14 58h-2.7q0-24.1.7-48.2l.2-6.5q.6-25.8 1.9-51.6l1.4-37.6q1.3-47.7 3.8-95.5l.3-6a863 863 0 0 1 7-71.4"/><path d="m678 487.1 9 .9v1.8l1.9.2c3.3.9 6 2.5 9 4.3 4.3 2.6 4.3 2.6 8.9 4.5v1.8h1.8a37 37 0 0 1-2.6 8.7l-1 2.4-1.2 2.6-1.2 2.8a976 976 0 0 1-21.9 45.6l-2.4 4.7-4.6 9.4-1.4 2.7-3.3 6.4c-6 12-11.1 24-14.4 37.1l-.6 2.2a163 163 0 0 0-4.8 40.1v12.6a97 97 0 0 1-30.6 5.4l.8-6.3.7-5.7 2.1-16q3.2-22.5 3.9-45.2.4-11.3 1.4-22.4l.2-2.1a74 74 0 0 1 22.4-44.5l1.5-2 1.2-1.6h1.8l1.8-4.5h1.8l.7-2a45 45 0 0 1 4.2-7.3q3.5-5.4 5.9-11.4l1-2c3.6-7.5 5.8-15.2 8-23.2m49.5 28.8c6.2.8 10.7 7.6 14.4 12.2l4.5 6.7 1.5 2.4c4 6.8 6.6 14 6.6 21.9h-1.8l-.6 1.8a48 48 0 0 1-5.7 9.1l-2.4 3.3-2.1 2.9-1.8 2.7h-1.8l-.8 1.6-3 5-1.3 1.8-1.3 1.8a477 477 0 0 0-13.4 20.4l-1.8 3c-6.5 10.7-12 22.5-15.2 34.7-2.4 8.6-2.4 8.6-6.2 11.3l-4.7 2.3-3.6 2-4 2.3-2 1a44 44 0 0 1-13.8 4.6q1-28.6 9.9-55.8l1.2-4a96 96 0 0 1 8.5-20.1c4.6-9.5 10-18.1 15.9-26.8a197 197 0 0 0 21.4-40.1q1.6-4 3.4-8M223.5 317l.1 2.6q.8 24 3.5 48l.2 1.9q1.1 9.8 3 19.4l2.7 19.7.3 2.4c1.5 11.9 2.7 23.6 2.8 35.6V461c-12.6-1.5-26.1-13.3-34.1-22.8-7.3-9.3-9.8-16-10.9-27.6l-.2-1.8-1.3-15.3c-.8-9.4-.8-9.4-2-18.8-1.4-9.6-.7-16 4.4-24.4l3.6-4.5 2.7-4.5 3.7-4.6q2.8-3.4 5.3-7.1h1.8l.7-1.6c1.3-2.3 2.6-3.5 4.6-5.2 2.7-2.2 2.7-2.2 5.1-4.6 1.3-1.2 1.3-1.2 4-1.2M291 521.3h2.7v16.1a442 442 0 0 1-4.3 64l-.7 6-.3 2.8q-.9 7.4-2.8 14.6l-1.8 8.3-.5 2.3a235 235 0 0 0-2.7 15.2 19 19 0 0 1-2.2 5.7 33 33 0 0 1-21.6-10.8l-2.2-2.2-2.2-2.5-2.2-2.3c-2.3-4.3-1.8-8-1.5-12.8l.2-4.2.5-12.3q0-4 .3-7.7c1.2-27.6 1.2-27.6 8-37l2.5-3.6 5.2-7.5 3.7-5.9c1.2-2 2.7-3.3 4.3-5q2.7-3 5-6.3 3.6-5.2 8.1-9.5l2.4-3zm385.2-220.5c4 .7 6.4 2 9.7 4.4l2.6 1.9c2.1 1.8 2.1 1.8 3 4.5h1.8c9.4 10.9 10.6 24.3 9.7 38-3 28-23.1 53.7-40 75.3l-6.2 8.4q-5.7 7.4-12.1 14.2l-1.6 1.7c-4.2 4.4-8.9 8-13.7 11.8l-2 1.7-2 1.5-1.7 1.3c-1.5.9-1.5.9-4.2.9.5-3.6 1.7-6.3 3.5-9.5l1.7-3 1-1.8 3.6-6.7 7.3-13.2h1.8l.3-2c.7-2.7 1.7-4.9 3-7.4l1.5-2.9 1.6-3 3.2-6 4-7.7c17-32 21.6-66.8 24.2-102.4M534 651.8h2.7q3.5 12.5 5.4 25.2l-4-.8-2.2-.5c-1.9-.5-1.9-.5-2.8-1.4l.1-5 .1-3 .2-3.3.1-3.2z"/></g></svg>