<svg xmlns="http://www.w3.org/2000/svg" viewBox="0 0 960 960"><circle cx="480" cy="480" r="480" fill="#fff"/><g fill="#6b3fa0"><path d="m631.2 151.4 2.213.38c37.597 6.617 72.727 25.133 99.768 51.876l1.814 1.789 1.663 1.674 1.488 1.495c1.054 1.286 1.054 1.286 1.054 3.086h1.8a68 68 0 0 1 3.206 3.938c3.262 4.217 6.76 8.072 10.487 11.882 1.881 2.552 2.223 4.455 2.507 7.58-4.275-.787-4.275-.787-6.3-1.8v-1.8l-1.477-.696c-2.532-1.317-4.89-2.833-7.298-4.367-6.184-3.873-12.63-7.115-19.193-10.291a396 396 0 0 1-5.381-2.695c-38.282-19.157-83.213-23.388-124.067-10.579-6.292 2.147-12.298 4.807-18.268 7.717-4.142 2.011-4.142 2.011-6.116 2.011v1.8l-1.951.865c-6.244 2.924-11.446 6.263-16.777 10.608-3.61 2.927-3.61 2.927-5.572 2.927v1.8a95 95 0 0 1-4.387 3.544c-5.433 4.343-9.955 9.2-14.513 14.456l-1.677 1.85c-8.089 8.648-8.089 8.648-13.623 18.85h-1.8l-.675 1.856c-1.333 3.134-3.012 6.009-4.725 8.944-11.494 20.182-19.475 41.182-24.3 63.9l-.48 2.253c-3.302 16.182-4.26 32.681-5.465 49.121-.672 9.138-1.434 18.213-2.645 27.295-.687 5.412-1.094 10.845-1.535 16.281-1.217 14.478-2.73 28.923-4.275 43.369l-.342 3.224c-1.4 13.15-2.935 26.27-4.698 39.375q-.573 4.275-1.134 8.551a8170 8170 0 0 1-2.022 15.243q-.415 3.11-.825 6.219-.606 4.584-1.22 9.168l-.364 2.779c-.63 4.675-1.398 9.253-2.5 13.84-.552 2.49-.863 4.995-1.192 7.522-1.486 11.076-4.669 21.485-8.203 32.06l-.657 2.014c-5.19 15.742-13.34 32.778-24.15 45.405-2.346 2.781-4.587 5.542-6.637 8.55L408.9 678.8h-1.8l-.654 1.536c-1.388 2.5-3.068 4.257-5.083 6.283l-2.103 2.148c-2.065 1.737-3.13 2.037-5.66 2.633l-.9 2.7c-9.471 9.127-21.642 15.121-33.389 20.757a87 87 0 0 0-3.347 1.739c-5.372 2.896-10.99 4.417-16.87 5.966l-2.941.816c-12.994 3.478-25.609 4.338-38.98 4.306-2.451-.003-4.9.018-7.35.041-15.323.056-29.357-2.393-43.823-7.525l-1.708-.6c-14.584-5.228-27.044-13.054-39.177-22.602a97 97 0 0 0-3.623-2.652L200.1 693.2v-1.8h-1.8c-1.396-1.417-1.396-1.417-2.981-3.319-1.773-2.115-3.541-4.097-5.523-6.022-6.142-6.31-10.896-14.344-14.896-22.159l-1.375-2.644c-6.722-13.148-8.894-24.413-8.862-39.262l-.004-1.913c.002-10.051.944-19.447 3.941-29.081h1.8l.338-1.94c2.417-10.999 9.012-20.417 16.312-28.772 2.38-2.404 2.38-2.404 3.15-5.288 1.294-1.519 1.294-1.519 2.7-2.7h1.8l.619-1.519c1.509-2.659 3.497-4.449 5.681-6.581l1.856-2.363c1.654-2.027 3.14-3.441 5.344-4.837h1.8l.9-2.7c1.536-1.484 1.536-1.484 3.431-3.037 2.834-2.396 5.077-4.839 7.369-7.763a219 219 0 0 1 4.5-3.6c-9.762-5.656-9.762-5.656-19.8-10.8v-1.8l-2.243-.64c-3.778-1.388-7.03-3.254-10.47-5.323l-2.045-1.217c-5.707-3.425-11.257-7.05-16.742-10.82q-1.63-1.093-3.262-2.183l-3.263-2.204-1.565-1.041c-1.236-.845-2.428-1.753-3.61-2.672v-1.8l-1.494-.18c-2.998-1.025-4.71-2.882-7-5.051-3.551-3.346-3.551-3.346-7.309-6.451-2.475-2.048-4.355-4.26-6.36-6.768l-2.06-2.56L137.1 452l-1.596-1.997C134.4 448.4 134.4 448.4 134.4 446.6h-1.8c-4.9-8.184-9.047-16.329-12.6-25.2l-.837-1.948c-8.951-21.686-6.62-47.685-1.525-69.94l.536-2.368c1.11-4.605 2.577-8.771 4.634-13.04.785-1.789 1.275-3.5 1.692-5.404h1.8l.338-1.912c.597-2.747 1.437-5.336 2.362-7.988h1.8l.64-2.324c1.302-3.453 3.135-6.166 5.323-9.095l1.21-1.652a900 900 0 0 1 2.451-3.33 349 349 0 0 0 3.212-4.46c2.974-4.182 5.87-8.053 9.664-11.539l2.419-2.531c2.081-1.969 2.081-1.969 3.881-1.969v-1.8h1.8v-1.8a77 77 0 0 1 4.894-3.994l1.553-1.179c4.37-3.263 8.857-6.339 13.41-9.34l1.978-1.323 1.878-1.215 1.66-1.083c1.627-.766 1.627-.766 5.227-.766l.9-2.7a87 87 0 0 1 6.694-3.544c.655-.32 1.311-.638 1.987-.967A181 181 0 0 1 216.3 245.9l2.04-.854c6.392-2.678 12.963-4.717 19.594-6.708 1.573-.48 3.138-.987 4.702-1.498 51.511-16.157 108.28-4.326 155.464 18.96 4.886 2.553 9.664 5.28 14.4 8.1l.633-1.75c1.578-3.717 3.493-7.205 5.442-10.737l1.14-2.12c2.228-4.044 4.626-7.524 7.711-10.957 1.856-2.092 3.46-4.348 5.099-6.611 3.5-4.72 7.225-9.014 11.24-13.3 2.06-2.197 2.06-2.197 3.88-4.566 1.633-2.009 3.264-3.596 5.243-5.253 2.365-2.012 4.597-4.062 6.75-6.3C462 200 462 200 463.8 200v-1.8a84 84 0 0 1 4.669-3.487c2.634-1.856 5.209-3.695 7.695-5.745C478.2 187.4 478.2 187.4 480 187.4v-1.8h1.8v-1.8l2.644-1.013c2.634-1.123 4.863-2.456 7.2-4.106 17.412-11.881 38.46-18.904 58.556-24.581l2.998-.92c3.394-.905 6.733-1.443 10.214-1.843l1.967-.236q3.153-.368 6.308-.713l2.187-.242c19.438-2.114 38.027-2.157 57.326 1.254M317.1 272l-2.784.384c-30.638 4.424-62.697 15.315-87.216 34.716q-1.49 1.095-2.988 2.18l-1.53 1.114-1.5 1.094c-1.631 1.189-3.238 2.413-4.782 3.712v1.8l-1.519.619c-2.693 1.528-4.435 3.438-6.581 5.681l-1.571 1.452c-15.753 14.801-26.106 36.496-28.129 57.948-.431 16.104 3.686 33.887 13.5 46.8l1.227 2.545c1.575 3.053 3.4 5.492 5.58 8.142l2.14 2.637 1.853 1.976h1.8l.63 1.543c8.383 14.728 33.743 23.375 49.074 27.721 12.124 3.306 24.395 5.983 36.696 8.536l2.584.543q3.712.777 7.429 1.538l2.245.468c3.468.699 6.683 1.244 10.242 1.051-1.132 3.134-2.496 5.458-4.5 8.1v1.8h-1.8c-1.635 1.75-1.635 1.75-3.262 3.938l-1.723 2.214c-1.483 1.805-1.483 1.805-1.315 3.748l-1.631.675c-2.254 1.288-3.302 2.537-4.669 4.725v1.8l-1.487.545c-2.983 1.772-4.937 4.295-7.12 6.936l-2.89 3.446-1.468 1.763a330 330 0 0 1-4.058 4.733c-4.863 5.598-9.27 11.305-13.415 17.463a259 259 0 0 1-3.98 5.744c-13.555 19.02-24.167 39.716-21.955 63.717 2.581 15.187 10.344 26.901 22.173 36.447 13.198 9.168 30.267 11.247 45.9 8.606a38 38 0 0 0 5.231-1.856c1.55-.664 3.133-1.248 4.725-1.8 6.732-2.369 11.759-5.077 17.044-9.844l1.408-1.252c7.907-6.987 7.907-6.987 14.792-14.948v-2.7h2.7a73 73 0 0 0 4.05-6.019l1.065-1.707q1.034-1.661 2.046-3.335a138 138 0 0 1 2.542-3.975c1.379-2.204 1.379-2.204 1.097-5.664h1.8c14.8-31.879 19.826-65.82 24.859-100.276.475-3.24.962-6.479 1.448-9.717a713 713 0 0 0 4.259-34.305c.478-4.762 1.032-9.482 1.799-14.207 1.238-7.786 1.961-15.621 2.735-23.464l.9-8.982.224-2.238c.571-5.67 1.194-11.332 1.832-16.995.849-7.573 1.582-15.158 2.314-22.744a651 651 0 0 1 2.14-18.93c1.087-8.57 1.945-17.163 2.833-25.755l.473-4.565.239-2.315q.754-7.26 1.567-14.513c.36-3.222.71-6.445 1.06-9.668q.255-2.32.52-4.638c.249-2.157.482-4.314.713-6.473l.232-1.927c.375-3.66.267-6.249-1.547-9.488-4.363-2.967-9.062-3.487-14.175-4.163l-2.3-.33a253 253 0 0 0-14.193-1.566C381 272 381 272 380.1 271.1c-8.953-1.234-18.105-1.068-27.123-1.067-2.336-.002-4.671-.018-7.007-.035-9.76-.033-19.211.61-28.87 2.002"/><path d="M652.88 224.248c28.512-.766 54.324 5.918 79.12 19.852l3.08 1.716c4.443 2.56 4.443 2.56 5.92 3.684v1.8l1.406.619c5.88 3.166 12.2 7.414 14.794 13.781h1.8c9.952 8.849 16.453 22.185 21.6 34.2l.735 1.657c8.183 18.583 6.189 42.816.077 61.695-1.05 2.663-2.225 5.191-3.512 7.748l-.773 1.583c-4.068 8.284-8.785 15.476-14.527 22.717a699 699 0 0 0-3.038 4.05l-2.362 3.15-1.385 1.997-1.315 1.603h-1.8v1.8h-1.8v1.8h-1.8l-.657 1.547c-2.986 5.364-8.746 10.27-13.743 13.753h-1.8v1.8c-1.315 1.357-1.315 1.357-3.038 2.813l-1.708 1.469C726.6 432.2 726.6 432.2 724.8 432.2v1.8a135 135 0 0 1-5.4 3.6l-.9.9 5.4 1.8v1.8l2.362.338c2.944.545 5.623 1.357 8.438 2.362v1.8l1.972.307c2.664.625 4.6 1.551 6.982 2.885l2.54 1.406 2.625 1.477c6.325 3.528 12.672 6.946 19.181 10.125v1.8l1.804.577c3.667 1.664 6.656 3.95 9.84 6.398l2.033 1.562c10.138 7.948 23.276 18.66 27.723 31.063h1.8a99 99 0 0 1 4.219 6.3l1.215 1.959c3.983 6.58 7.029 13.406 9.866 20.541l1.058 2.566c3.734 9.544 6.634 20.455 7.042 30.734l.109 2.714c.678 34.932-13.47 67.295-37.009 92.686q-2.235 2.265-4.5 4.5-1.426 1.47-2.848 2.943c-5.575 5.729-11.024 10.97-17.666 15.461-1.954 1.282-1.954 1.282-3.264 2.71-1.444 1.408-2.821 2.347-4.558 3.365l-1.852 1.092-1.987 1.148-2.087 1.207q-2.12 1.221-4.243 2.433-1.835 1.048-3.656 2.117c-15.823 9.297-33.65 15.702-51.633 19.226-1.864.37-3.72.776-5.573 1.2-10.348 2.22-20.408 2.42-30.964 2.336l-2.696-.01c-14.325-.063-28.296-.872-42.473-3.028q-2.377-.33-4.757-.654c-9.091-1.289-17.874-3.278-26.743-5.646l-3.275-.779c-4.208-1.05-8.284-2.417-12.384-3.826l-2.386-.814q-2.485-.85-4.97-1.702-3.762-1.29-7.529-2.572l-4.858-1.662-2.237-.762a242 242 0 0 1-13.462-5.109c-2.865-1.11-5.215-1.739-8.299-1.674-2.386 1.805-2.386 1.805-4.275 4.556l-1.127 1.463a235 235 0 0 0-2.367 3.133c-1.682 2.251-3.427 4.45-5.171 6.652a742 742 0 0 0-3.671 4.692q-1.143 1.454-2.289 2.904l-1.228 1.572c-1.05 1.31-2.156 2.574-3.272 3.828h-1.8l-.733 1.606c-1.764 3.297-4.374 5.805-6.917 8.519l-1.62 1.772-1.558 1.673-1.422 1.53c-1.25 1.1-1.25 1.1-3.05 1.1l-.675 1.575c-1.29 2.321-2.73 3.88-4.725 5.625h-1.8l-.9 2.7a95 95 0 0 1-4.781 3.994c-3.559 2.8-3.559 2.8-6.877 5.87-19.697 19.623-47.26 34.548-73.655 42.61-1.94.611-3.853 1.28-5.773 1.955-4.054 1.35-8.057 2.22-12.277 2.869l-2.225.344c-8.132 1.162-16.205 1.277-24.406 1.196l-2.32-.014c-18.948-.13-35.197-2.963-53.086-9.324l-1.894-.657c-10.483-3.68-20.02-9.091-29.606-14.643l-1.738-1.007c-6.966-4.075-13.527-8.64-20.041-13.39-2.332-1.767-2.332-1.767-4.321-2.703v-1.8l-1.505-.664c-4.435-2.404-8.15-6-11.995-9.236l-2.246-1.87-1.973-1.674-1.754-1.487C214.5 747.2 214.5 747.2 214.5 745.4l-1.53-.668c-6.817-3.727-14.853-11.314-18.326-18.376-1.097-2.152-2.274-2.507-4.444-3.456l-1.8-1.8v-2.7c3.15.652 5.864 1.85 8.775 3.206l3.164 1.473a210 210 0 0 1 6.666 3.326c31.902 16.566 68.513 26.28 104.47 26.476l1.831.011c10.795.03 21-1.332 31.557-3.554 2.466-.43 4.842-.47 7.337-.338v-1.8l2.447-.566c18.76-4.632 34.957-13.575 50.119-25.474 1.434-.96 1.434-.96 3.234-.96v-1.8c1.385-1.364 1.385-1.364 3.262-2.925 2.444-2.067 4.76-4.16 6.975-6.469 2.363-2.306 2.363-2.306 4.163-2.306l.169-1.519c.832-2.369 2.066-3.505 3.867-5.203 2.865-2.895 5.233-6.219 7.664-9.478l1.519-2.018c5.228-7.19 10.956-15.606 13.781-24.082h1.8l.47-1.477a169 169 0 0 1 4.753-12.818c13.28-31.969 17.947-66.918 21.169-101.19.392-4.109.894-8.185 1.47-12.273 1.235-9.04 1.962-18.122 2.738-27.21q.448-5.196.9-10.39l.224-2.583c.49-5.595 1.03-11.183 1.6-16.77.958-9.366 1.719-18.745 2.453-28.131q.251-3.17.508-6.34l.148-1.934c.217-2.665.517-4.934 1.367-7.484.283-2.526.53-5.044.749-7.576l.427-4.687.225-2.478c1.277-13.992 2.76-27.828 5.396-41.639.375-1.97.727-3.944 1.071-5.92 2.525-14.17 5.422-28.482 10.132-42.1l.653-1.913c4.52-13.142 10.194-25.264 17.234-37.237l1.04-1.783c.839-1.389 1.75-2.734 2.673-4.067h1.8l.738-1.575c13.863-26.44 48.438-44.047 75.424-53.1 14.987-4.561 30.692-7.046 46.318-7.477M625.8 298.1l-2.869 1.294c-10.41 5.783-22.6 13.655-27.731 24.806h-1.8c-2.666 3.27-2.666 3.27-3.6 7.2H588c-8.304 10.498-14.766 24.165-18.868 36.83-.932 2.77-.932 2.77-2.264 5.818-11.73 27.892-12.043 61.737-14.868 91.452-1.469 15.418-3.14 30.757-5.316 46.093-4.452 31.454-8.183 63.04-11.378 94.646-.687 6.79-1.454 13.497-2.648 20.22-.922 5.72-1.51 11.483-2.132 17.24-.238 2.189-.486 4.376-.734 6.563-2.494 14.31-2.494 14.31.608 27.638 3.112 1.66 6.538 2.556 9.9 3.6l2.855.932c11.806 3.644 23.983 5.147 36.239 6.437.701.075 1.403.15 2.125.229 26.064 2.538 52.55-2.13 77.408-9.701 2.749-.832 5.51-1.616 8.273-2.397v-1.8l2.116-.183c4.553-.994 8.448-2.958 12.621-4.992l2.475-1.174c11.076-5.33 22.3-12.332 31.388-20.651v-1.8l1.473-.587c2.882-1.643 5.052-3.872 7.358-6.22l1.441-1.456c7.304-7.05 7.304-7.05 11.328-16.037h1.8a77 77 0 0 0 3.769-5.456l1.089-1.722c11.922-19.27 18.455-42.134 14-64.794-2.835-9.017-7.857-17.66-13.458-25.228l-2.025-2.756L741 520.4h-1.8v-1.8h-1.8l-.608-1.54c-8.778-15.173-36.08-27.355-51.592-33.56l-3.083-1.245c-11.45-4.407-23.385-6.965-35.313-9.73-3.648-.88-7.256-1.879-10.861-2.923-2.521-.62-4.86-.711-7.443-.502v-3.6h1.8v-1.8l1.505-.19c2.933-.994 4.576-2.75 6.82-4.872 2.863-2.69 5.736-5.327 8.775-7.82 8.93-7.799 15.828-17.902 22.5-27.618l1.055-1.505c1.947-2.604 1.947-2.604 2.545-5.695h1.8c1.257-1.76 2.447-3.57 3.6-5.4l2.025-2.925c1.736-2.24 1.736-2.24 1.575-4.275h1.8c14.774-19.5 25.83-45.363 22.793-70.068-1.764-11.624-7.27-22.685-16.444-30.205-6.061-4.214-11.773-7.56-18.949-9.527l-2.932-.809c-14.814-3.746-29.286-1.335-42.968 5.309"/><path d="M361.2 274.7c-.422 7.05-1.976 13.51-3.825 20.306-5.055 19.405-8.602 39.708-8.775 59.794l-.037 2.939c-.325 24.9-.325 24.9 1.391 49.723.755 8.24.63 16.523.66 24.79l.014 2.783a5442 5442 0 0 1 .056 24.07c.024 33.184-.588 66.05-3.884 99.095l-.323 3.26c-4.039 40.454-4.039 40.454-7.777 58.84q-.482 2.56-.956 5.122-.42 2.193-.844 4.384l-.415 2.245c-1.102 5.66-2.652 10.4-5.885 15.249h-2.7v1.8q-2.558 1.297-5.119 2.587l-2.879 1.456c-4.536 2.197-7.591 3.395-12.702 3.157.366-9.047.835-18.05 1.8-27.056 2.561-24.321 2.756-48.95 2.762-73.389q.002-3.702.015-7.406l.007-2.483.015-4.98c.012-4.23.012-8.459-.01-12.688-.02-4.19-.01-8.38.021-12.57q.009-2.355-.015-4.71c-.094-9.34.51-15.82 7.105-23.018l.9-1.8h1.8v-2.7c-.574-.055-1.149-.11-1.74-.165l-2.254-.229-2.246-.221c-1.86-.285-1.86-.285-2.76-1.185a109 109 0 0 1-.185-5.327l-.054-3.503-.046-3.872q-.028-2.018-.057-4.037-.074-5.479-.138-10.958-.04-3.417-.082-6.833c-.266-21.692-.452-43.385-.501-65.079q-.01-2.95-.024-5.9c-.018-3.678-.02-7.356-.02-11.034l-.02-3.225c.024-8.96.845-17.544 3.827-26.032q.735-2.475 1.462-4.95c3.383-11.045 7.458-21.906 11.757-32.625 2.117-5.386 3.62-10.903 5.052-16.503 1.344-5.137 1.344-5.137 3.329-7.122 8.095-1.298 16.188-.876 24.3 0M615.9 470.9c12.383.59 24.123 3.814 36 7.2.377 3.582-.174 6.166-1.526 9.432l-.995 2.411-1.079 2.557-1.08 2.564c-6.021 14.153-12.582 27.851-20.193 41.216-6.311 11.094-11.264 21.964-14.502 34.351l-.543 2.032c-4.665 19.058-3.404 38.876-3.177 58.329q.057 5.104.081 10.21c.014 1.885.044 3.77.074 5.655.054 10.593-1.87 20.363-5.266 30.368l-1.129 3.39C601.5 683.3 601.5 683.3 599.7 685.1c-2.318.15-2.318.15-5.245.042l-3.236-.112-3.444-.155-3.472-.143c-21.224-.965-21.224-.965-26.003-4.132-.958-2.152-.958-2.152-1.666-4.852l-.802-3.009-.794-3.164-.816-3.038c-3.101-11.91-4.446-23.644-4.472-35.943l-.006-1.926c.025-19.056 4.015-37.492 11.375-55.08q.824-1.998 1.594-4.019c2.187-5.707 4.872-10.986 7.85-16.319l1.44-2.61q1.455-2.63 2.916-5.258a1770 1770 0 0 0 3.708-6.704 1127 1127 0 0 1 9.475-16.868l1.45-2.526q1.381-2.4 2.77-4.798a233 233 0 0 0 7.119-13.376c2.08-4.145 4.327-8.2 6.559-12.266l1.385-2.533A2325 2325 0 0 1 615.9 470.9m-29.7 104.4c-7.48 13.804-11.18 27.775-13.5 43.2l-.297 1.946c-2.01 14.458-.859 36.594 7.276 49.076l1.627 1.684c.54.577 1.08 1.153 1.635 1.748 1.41 1.425 1.41 1.425 3.259 2.246a1105 1105 0 0 0 1.744-3.431l.98-1.93c1.365-2.866 1.881-5.034 1.742-8.165l-.092-2.231-.117-2.44-.11-2.58c-.121-2.825-.25-5.649-.378-8.473q-.128-2.94-.255-5.881-.198-4.616-.399-9.23a6679 6679 0 0 1-1.308-32.265l-.358-9.187-.549-14.087zM313.5 277.4c-.497 5.787-1.536 11-3.262 16.538l-.725 2.359c-3.927 12.575-8.66 24.757-13.995 36.8-5.14 11.684-5.597 22.57-5.587 35.147l-.002 2.379c.002 22.973.716 45.942 1.33 68.905l.126 4.718q.117 4.4.24 8.8c.22 8.055.326 16.096.275 24.154-6.646.391-12.485-1.046-18.9-2.7l-2.157-.555c-13.762-3.551-13.762-3.551-17.643-4.845l-.19-3.34c-1.112-19.26-2.28-38.503-4.31-57.691l-.211-2.042c-.765-7.307-1.736-14.54-2.988-21.78-1.109-6.412-1.89-12.767-2.314-19.266l-.212-3.066c-1.291-19.748-1.658-39.53-1.475-59.315 18.664-10.8 18.664-10.8 22.5-10.8.25 6.187-.217 12.15-.956 18.281-1.657 12.844-1.657 12.844 1.856 24.919 3.938-10.96 6.962-22.168 10.02-33.398l.866-3.163q.8-2.98 1.531-5.978l.672-2.697.563-2.368c.748-1.896.748-1.896 3.617-3.752l3.431-.844 1.853-.541c3.328-.944 6.391-1.475 9.847-1.259v-1.8q2.784-.455 5.569-.9l3.132-.506a45.6 45.6 0 0 1 7.499-.394M654.6 296.3c-.542 7.019-1.444 13.924-2.587 20.869l-.487 2.982q-.706 4.275-1.426 8.549l-.374 2.232c-1.24 7.315-2.829 14.442-4.97 21.551a262 262 0 0 0-2.148 7.713c-1.71 6.303-3.763 12.489-5.84 18.679l-.607 1.816c-2.881 8.588-5.81 17.11-9.461 25.409-.325.746-.65 1.492-.983 2.261-4.55 10.41-9.41 20.38-15.217 30.139a524 524 0 0 0-2.7 4.95c-2.428 4.495-4.962 8.924-7.536 13.337-1.325 2.292-2.423 4.391-3.264 6.913l-1.237 1.232c-1.832 1.839-2.904 3.785-4.167 6.052l-1.556 2.785-1.646 2.981-1.702 3.066c-6.87 12.417-13.48 24.889-19.448 37.764-1.753 3.768-3.591 7.489-5.457 11.201l-.906 1.807q-2.04 4.054-4.107 8.097c-2.51 4.94-4.804 9.874-6.788 15.05-.686 1.765-.686 1.765-1.586 3.565h-2.7c-.32-6.509.475-12.507 1.55-18.896 1.011-6.097 1.79-12.203 2.5-18.341.783-6.75 1.634-13.475 2.644-20.194 1.252-8.491 2.252-17.009 3.206-25.538l.236-2.103c.837-7.52 1.612-15.037 2.204-22.58 5.076-64.489 5.076-64.489 19.16-91.248h2.7c-.37 27.632-5.127 56.712-15.714 82.29-2.913 7.345-3.055 14.39-1.386 22.11h3.6c5.703-5.941 9.828-13.393 13.5-20.7l1.772-3.473A806 806 0 0 0 587.1 427.7l1.237-2.52c6.436-13.612 10.84-27.804 14.063-42.48l.436-1.902c3.936-17.474 3.733-35.528 1.813-53.25l-.287-2.916-.289-2.562c.196-3.665 1.74-5.886 4.424-8.315l1.76-1.23 1.967-1.384 2.045-1.397 1.991-1.408a86.4 86.4 0 0 1 13.14-7.536l2.229-1.076c6.924-2.996 15.532-5.535 22.971-3.424M380.1 276.5c6.51-.246 12.474.432 18.844 1.744l2.54.497c3.146.625 6.17 1.243 9.216 2.259-.25 9.605-1.07 19.078-2.283 28.61a1534 1534 0 0 0-4.017 35.047l-.224 2.164q-.68 6.574-1.351 13.15-.561 5.47-1.125 10.94L399 397.1c-.075.731-.15 1.462-.229 2.215-2.003 19.4-4.101 38.781-6.465 58.141l-.404 3.334c-1.702 14.011-3.449 28.016-5.333 42.004l-.27 2.014c-.877 6.515-1.84 12.996-3.059 19.457-.662 3.664-1.195 7.346-1.74 11.03-2.94 19.838-8.174 38.832-14 58.005h-2.7c-.137-16.092.257-32.161.726-48.244q.094-3.204.185-6.408c.492-17.208 1.046-34.41 1.842-51.607.58-12.539 1.035-25.08 1.434-37.625 1.017-31.836 2.073-63.662 3.801-95.469q.164-3.047.324-6.094c1.266-23.92 3.745-47.623 6.988-71.353"/><path d="m678 487.1 9 .9v1.8l1.85.225c3.373.859 6.109 2.496 9.063 4.275 4.283 2.577 4.283 2.577 8.887 4.5v1.8h1.8c-.538 3.097-1.328 5.795-2.577 8.677l-1.053 2.436-1.151 2.612-1.2 2.74c-6.821 15.439-14.308 30.574-21.919 45.635l-2.363 4.725-4.668 9.338-1.368 2.745a697 697 0 0 1-3.255 6.406c-6.136 11.98-11.174 23.981-14.446 37.086l-.574 2.221c-3.414 13.406-4.734 26.264-4.826 40.079l-.023 2.169c-.034 3.478-.032 6.953.023 10.431-10.115 3.124-19.926 5.56-30.6 5.4l.777-6.258q.357-2.867.708-5.736a724 724 0 0 1 2.133-15.955c2.158-15.083 3.302-30.02 3.867-45.244.284-7.497.689-14.955 1.438-22.421l.199-2.083c1.79-16.626 10.244-33.062 22.378-44.503l1.519-2.081 1.181-1.519h1.8l1.8-4.5h1.8l.707-1.948c1.155-2.696 2.562-4.95 4.187-7.39 2.393-3.701 4.29-7.249 5.906-11.362l.998-2.046c3.626-7.452 5.809-15.192 8.002-23.154M727.5 515.9c6.19.811 10.734 7.563 14.396 12.15a121 121 0 0 1 4.504 6.75l1.49 2.387c3.998 6.828 6.61 13.933 6.61 21.913h-1.8l-.619 1.85c-1.496 3.358-3.507 6.112-5.681 9.063l-2.419 3.325-2.081 2.862-1.8 2.7h-1.8c-.255.53-.51 1.062-.771 1.609-.93 1.798-1.925 3.395-3.086 5.05l-1.21 1.737c-.425.608-.85 1.215-1.29 1.841-4.637 6.694-9.154 13.441-13.443 20.363l-1.818 2.921c-6.46 10.82-11.976 22.562-15.231 34.758-2.321 8.643-2.321 8.643-6.126 11.315a135 135 0 0 1-4.725 2.306 343 343 0 0 0-3.642 2.043q-2.003 1.119-4.008 2.232l-1.908 1.063c-4.506 2.395-8.819 3.695-13.842 4.562.63-19.063 4.081-37.667 9.9-55.8l1.22-3.916c1.654-5.192 3.458-10.117 5.948-14.966.887-1.73 1.736-3.474 2.574-5.228 4.575-9.47 9.927-18.134 15.855-26.807 8.66-12.713 15.883-25.729 21.435-40.09 1.062-2.69 2.215-5.34 3.368-7.993M223.5 317l.108 2.557c.696 16.039 1.632 32.005 3.492 47.955l.228 1.977c.76 6.528 1.66 12.999 2.89 19.456 1.142 6.528 1.942 13.114 2.788 19.686l.305 2.361c1.518 11.865 2.697 23.636 2.789 35.608l.023 2.197q.055 6.1-.023 12.203c-12.636-1.507-26.144-13.32-34.137-22.788-7.215-9.34-9.728-16.004-10.863-27.612l-.182-1.842c-.492-5.081-.917-10.168-1.334-15.255-.754-9.447-.754-9.447-1.947-18.847-1.447-9.54-.77-16.013 4.363-24.356q1.782-2.265 3.6-4.5l2.7-4.5a190 190 0 0 1 3.656-4.613c1.898-2.325 3.678-4.588 5.344-7.087h1.8l.679-1.6c1.278-2.28 2.662-3.539 4.665-5.206 2.639-2.207 2.639-2.207 5.066-4.637C220.8 317 220.8 317 223.5 317M291 521.3h2.7q.034 5.367.05 10.734.01 2.675.03 5.35c.075 18.335-1.073 36.442-3.256 54.645-.373 3.118-.733 6.237-1.09 9.357l-.709 6.033-.32 2.784c-.607 5.002-1.485 9.735-2.805 14.597a480 480 0 0 0-1.8 8.325l-.478 2.259a235 235 0 0 0-2.679 15.203c-.452 2.155-1.17 3.8-2.243 5.713-8.481-.553-15.732-4.792-21.6-10.8l-2.187-2.197-2.257-2.472-2.106-2.288c-2.301-4.37-1.817-7.984-1.55-12.843q.08-2.103.154-4.207c.149-4.112.327-8.222.516-12.333.117-2.566.224-5.133.332-7.7 1.216-27.587 1.216-27.587 7.998-36.96a909 909 0 0 0 2.46-3.593 873 873 0 0 1 5.2-7.534 98 98 0 0 0 3.766-5.836c1.207-1.991 2.627-3.36 4.306-4.953 1.855-2.012 3.382-4.205 4.968-6.434 2.482-3.479 4.989-6.507 8.1-9.45q1.193-1.482 2.363-2.981zM676.2 300.8c4.026.678 6.37 1.949 9.675 4.387l2.63 1.906c2.095 1.807 2.095 1.807 2.995 4.507h1.8c9.386 10.86 10.574 24.311 9.717 38.029-2.99 28.042-23.138 53.648-39.923 75.227-2.141 2.776-4.223 5.589-6.3 8.413-3.755 5.019-7.793 9.675-12.094 14.231l-1.593 1.705c-4.216 4.375-8.908 8.083-13.707 11.795l-2.081 1.656-1.913 1.494-1.684 1.322c-1.522.928-1.522.928-4.222.928.541-3.635 1.705-6.303 3.488-9.506l1.683-3.052.956-1.714c1.24-2.227 2.466-4.46 3.692-6.695q3.634-6.62 7.281-13.233h1.8l.298-1.943c.658-2.797 1.681-4.939 3.028-7.475l1.493-2.837 1.593-2.989q1.613-3.07 3.224-6.142c1.336-2.532 2.672-5.064 4.016-7.592 16.984-31.986 21.502-66.856 24.148-102.422M534 651.8h2.7c2.185 8.357 4.167 16.637 5.4 25.2q-1.998-.417-3.994-.844l-2.246-.474c-1.86-.482-1.86-.482-2.76-1.382-.015-1.67.034-3.341.109-5.01l.132-3.067.153-3.23.142-3.239q.176-3.977.364-7.954"/></g></svg>