<svg xmlns="http://www.w3.org/2000/svg" viewBox="0 0 174.56 197.04" width="174.56" height="197.04">
  <title>logo</title>
  <path d="M828.59,519.64c-.7,0-.73,0-.62-.72.32-2.07.65-4.13,1-6.19.13-.86.22-1.73.31-2.59a.77.77,0,0,0-.62-.87c-.44-.13-.66.17-.8.51s-.17.64-.25,1c-.36,1.57-.67,3.15-1.11,4.7a3.5,3.5,0,0,1-1.87,2.29c-1.35.62-2.17.26-2.29-1.15a6.67,6.67,0,0,1,0-1.67c.25-1.51.6-3,.86-4.5a1.19,1.19,0,0,0-.23-.86c-.27-.29-.65-.19-.94.09l-.35.35a3.51,3.51,0,0,1-4.42.33.88.88,0,0,0-1.14,0c-.4.29-.26.63-.13,1a8.41,8.41,0,0,1,.5,3.78,4.15,4.15,0,0,1-1,2.47,1.44,1.44,0,0,1-2.58-.39,3.76,3.76,0,0,1-.28-.88,14.11,14.11,0,0,1,0-5.06,1.49,1.49,0,0,1,.41-.73c.59-.63,1.26-1.2,1.81-1.86a17.57,17.57,0,0,0,3.78-7.18,3.9,3.9,0,0,0-.22-2.67.91.91,0,0,0-1.18-.53,2.7,2.7,0,0,0-.74.31,7.84,7.84,0,0,0-2.69,3.41,26.19,26.19,0,0,0-2.31,7.43,1.37,1.37,0,0,1-.87,1.11,3.35,3.35,0,0,1-3.63-.21,1.06,1.06,0,0,0-.9,0,.86.86,0,0,0-.21.73c.12.82.37,1.61.46,2.43a4.94,4.94,0,0,1-.76,3.73,1.91,1.91,0,0,1-1.75,1c-1.05-.15-1.28-1.25-1.34-2.14a41.61,41.61,0,0,1-.1-5.16s.28-.21.75-.6a11.73,11.73,0,0,0,1.56-1.51,18.18,18.18,0,0,0,3.54-6.28,4.59,4.59,0,0,0,.15-3.51c-.32-.72-.71-1-1.45-.76a4.51,4.51,0,0,0-2.48,2.22,23.55,23.55,0,0,0-3.16,8.81c-.14.74-.17,1.06-.17,1.06a5.05,5.05,0,0,1-3.16.65s-.16-.48-1.16-1.24a2.82,2.82,0,0,0-3.52.11c-2.15,1.52-3.07,5.81-2,8.15a3.08,3.08,0,0,0,3.73,1.78,3.84,3.84,0,0,0,2.51-2.14,7.45,7.45,0,0,0,.8-5.7,10,10,0,0,0,1.43,0,3.09,3.09,0,0,0,1.18-.38,22,22,0,0,0-.08,2.68,13.34,13.34,0,0,0,.56,3.71,2.39,2.39,0,0,0,2.7,1.93,4.48,4.48,0,0,0,3.54-3.9,13.77,13.77,0,0,0-.09-4.09,8.73,8.73,0,0,0,3.64-.19c.05,0-.13.95-.13,1.88a12.06,12.06,0,0,0,.5,4.54c.69,1.8,2.05,2.23,3.73,1.44a4.54,4.54,0,0,0,2.62-3.62,17.2,17.2,0,0,0,0-3.21,2.41,2.41,0,0,0-.06-.6,6.17,6.17,0,0,0,3.56-.36s0,.09-.1.61S821,513.46,821,514a8.34,8.34,0,0,0,.26,4.29,2,2,0,0,0,2.28,1.45,5.81,5.81,0,0,0,1.83-.69,15.71,15.71,0,0,0,1.49-1.14c-.11.59-.3,1.54-.44,2.13a.7.7,0,0,1-.34.42,12,12,0,0,0-4.68,5.16,8,8,0,0,0-.91,4.92,1.81,1.81,0,0,0,1,1.59,1.68,1.68,0,0,0,1.82-.5,7.3,7.3,0,0,0,1.38-1.66,25.55,25.55,0,0,0,2.57-7.47c.27-1.29.24-1.29,1.45-1.53.49-.1.58-.5.57-.91s-.35-.42-.68-.41M813.08,507.1c.46-1.27.92-2.55,1.48-3.79a17,17,0,0,1,1.11-2.11,8.77,8.77,0,0,1,.8-1.12,1.11,1.11,0,0,1,.54-.39c.9-.13-.22,3.08-.37,3.43a17.88,17.88,0,0,1-2.24,3.82l-.59.78c-.28.35-.56.7-.85,1-.07.07-.34.27-.37.36.06-.21.25-1.34.49-2m-9.63-1.31a22,22,0,0,1,1-2.69,13.24,13.24,0,0,1,1.23-2.13c.16-.23.94-1.43,1.31-1.29.64.26,0,1.91-.13,2.32a21.52,21.52,0,0,1-1.28,2.86,32.53,32.53,0,0,1-3.07,4.33c0-.24.67-2.66.9-3.4m-6.31,7.77a6.19,6.19,0,0,1-1,3.23,2.55,2.55,0,0,1-1.84,1.34c-1.32.18-1.85-1.36-1.94-2.37a5.55,5.55,0,0,1,1-3.92l.08-.11a2.22,2.22,0,0,1,2.4-.89,2.35,2.35,0,0,1,1.29,2.16c0,.19,0,.38,0,.56m28.34,10.22a22.4,22.4,0,0,1-2.18,5.57c-.29.46-.58,1.17-1.21.9s-.48-1-.35-1.57a11.67,11.67,0,0,1,3.17-5.78c.23-.23,1-.92,1.05-.87-.13.46-.34,1.29-.48,1.75" transform="translate(-712.96 -384.96)" style="fill:#225b41"/>
  <path d="M822,532.36a1.75,1.75,0,0,1-.58-.11,1.92,1.92,0,0,1-1.12-1.7,8.16,8.16,0,0,1,.92-5,12.13,12.13,0,0,1,4.73-5.21.64.64,0,0,0,.28-.34c.11-.48.26-1.19.37-1.77a6.79,6.79,0,0,1-1.23.92,5.74,5.74,0,0,1-1.87.71,2.11,2.11,0,0,1-2.43-1.53,8.47,8.47,0,0,1-.27-4.36c0-.21.07-.43.11-.64l.15-1c0-.16,0-.28,0-.37a6.7,6.7,0,0,1-3.21.32c0,.1,0,.23,0,.42l0,.58a13.79,13.79,0,0,1-.05,2.65,4.69,4.69,0,0,1-2.69,3.73,3,3,0,0,1-2.41.22,2.83,2.83,0,0,1-1.51-1.75,11.34,11.34,0,0,1-.51-4.23v-.35c0-.56.07-1.13.11-1.5,0-.07,0-.13,0-.19a9.63,9.63,0,0,1-3.34.17,13.46,13.46,0,0,1,.06,3.94,4.62,4.62,0,0,1-3.65,4,2.53,2.53,0,0,1-2.85-2,13.08,13.08,0,0,1-.56-3.74,20.7,20.7,0,0,1,0-2.46,3.22,3.22,0,0,1-1,.28,5,5,0,0,1-1.29,0,7.44,7.44,0,0,1-.84,5.62,4,4,0,0,1-2.6,2.21,3.19,3.19,0,0,1-3.88-1.85c-1-2.28-.22-6.72,2.06-8.32a3,3,0,0,1,3.67-.11,4,4,0,0,1,1.17,1.23,4.87,4.87,0,0,0,2.94-.61c0-.13.06-.45.17-1a23.72,23.72,0,0,1,3.18-8.85,4.59,4.59,0,0,1,2.56-2.27,1.2,1.2,0,0,1,1.6.82,4.68,4.68,0,0,1-.14,3.61,18.5,18.5,0,0,1-3.57,6.33,11.44,11.44,0,0,1-1.57,1.52l-.71.57a38,38,0,0,0,.08,4.67l0,.41c.07,1.25.47,1.91,1.22,2a1.74,1.74,0,0,0,1.62-.92,4.82,4.82,0,0,0,.74-3.63c-.05-.44-.15-.88-.24-1.31s-.17-.74-.23-1.12a1,1,0,0,1,.28-.87,1.18,1.18,0,0,1,1,0,3.16,3.16,0,0,0,3.49.2,1.26,1.26,0,0,0,.8-1,26,26,0,0,1,2.32-7.47,8.08,8.08,0,0,1,2.74-3.47,3.08,3.08,0,0,1,.77-.32,1.05,1.05,0,0,1,1.34.6,4,4,0,0,1,.23,2.76,17.66,17.66,0,0,1-3.8,7.23,14.23,14.23,0,0,1-1.07,1.12c-.25.24-.51.49-.75.75a1.34,1.34,0,0,0-.38.66,14.09,14.09,0,0,0,0,5,3.84,3.84,0,0,0,.27.85,1.51,1.51,0,0,0,1,.94,1.56,1.56,0,0,0,1.33-.59,4.06,4.06,0,0,0,1-2.39,8.32,8.32,0,0,0-.5-3.73l0-.05c-.12-.36-.25-.77.2-1.1a1,1,0,0,1,1.3,0,3.37,3.37,0,0,0,4.24-.31l.23-.23.13-.12a1,1,0,0,1,.66-.31.67.67,0,0,1,.46.22,1.27,1.27,0,0,1,.27,1c-.13.72-.27,1.45-.41,2.15s-.32,1.56-.45,2.35a6.68,6.68,0,0,0,0,1.61,1.44,1.44,0,0,0,.55,1.22,1.71,1.71,0,0,0,1.55-.15,3.36,3.36,0,0,0,1.8-2.21c.3-1.06.55-2.16.78-3.22l.33-1.47,0-.21a5.38,5.38,0,0,1,.21-.76c.25-.66.65-.69.95-.6a.9.9,0,0,1,.72,1l0,.54c-.08.67-.15,1.37-.25,2.05-.19,1.26-.39,2.51-.59,3.77-.13.81-.25,1.61-.38,2.42,0,.2-.07.49,0,.54s.31,0,.5,0a.89.89,0,0,1,.67.13.55.55,0,0,1,.16.41c0,.6-.22,1-.69,1-1.09.22-1.09.22-1.32,1.35l0,.08a26.26,26.26,0,0,1-2.59,7.51,7.07,7.07,0,0,1-1.4,1.69,2,2,0,0,1-1.38.64m4.79-14.6.07,0,.08.05v.09c-.11.61-.3,1.55-.44,2.14a.87.87,0,0,1-.4.51,11.74,11.74,0,0,0-4.63,5.1,7.87,7.87,0,0,0-.9,4.84,1.67,1.67,0,0,0,1,1.49,1.57,1.57,0,0,0,1.68-.47,7.27,7.27,0,0,0,1.35-1.63,25.89,25.89,0,0,0,2.56-7.43l0-.09c.26-1.26.3-1.3,1.53-1.55.33-.07.48-.3.47-.77a.26.26,0,0,0-.07-.22.75.75,0,0,0-.47-.06c-.38,0-.6,0-.72-.12s-.1-.37,0-.76c.12-.81.25-1.61.38-2.42.19-1.26.39-2.51.58-3.77.1-.68.18-1.37.25-2l.06-.54a.64.64,0,0,0-.53-.73c-.18-.06-.44-.07-.63.43a5.59,5.59,0,0,0-.2.73l0,.21-.33,1.47c-.23,1.06-.48,2.16-.78,3.23a3.63,3.63,0,0,1-2,2.39,2,2,0,0,1-1.79.14,1.74,1.74,0,0,1-.69-1.41,7.43,7.43,0,0,1,0-1.7c.13-.79.29-1.59.44-2.36s.29-1.43.41-2.14a1,1,0,0,0-.19-.75.39.39,0,0,0-.28-.13.67.67,0,0,0-.47.23l-.12.12-.23.23a3.66,3.66,0,0,1-4.59.34.74.74,0,0,0-1,0c-.29.2-.23.41-.11.8l0,.05a8.51,8.51,0,0,1,.52,3.84,4.43,4.43,0,0,1-1.08,2.55,1.82,1.82,0,0,1-1.57.66,1.72,1.72,0,0,1-1.23-1.09,3.87,3.87,0,0,1-.29-.91,14.13,14.13,0,0,1,0-5.11,1.65,1.65,0,0,1,.44-.8l.76-.76a13.64,13.64,0,0,0,1.05-1.1,17.31,17.31,0,0,0,3.75-7.13,3.71,3.71,0,0,0-.21-2.57.78.78,0,0,0-1-.47,3,3,0,0,0-.71.3,7.79,7.79,0,0,0-2.64,3.36,25.9,25.9,0,0,0-2.3,7.39,1.52,1.52,0,0,1-1,1.21,3.45,3.45,0,0,1-3.76-.22.94.94,0,0,0-.76.05c-.09,0-.18.37-.14.59s.14.75.22,1.11.19.88.25,1.32a5.14,5.14,0,0,1-.79,3.83,2,2,0,0,1-1.88,1c-.88-.12-1.37-.89-1.45-2.26l0-.41a35.91,35.91,0,0,1-.08-4.77v-.06l0,0,.75-.6a11.57,11.57,0,0,0,1.54-1.48,18.31,18.31,0,0,0,3.52-6.24,4.48,4.48,0,0,0,.15-3.42c-.31-.68-.64-.85-1.3-.68a4.36,4.36,0,0,0-2.4,2.16,23.51,23.51,0,0,0-3.14,8.76c-.14.73-.17,1-.17,1v.07l-.06,0a5.12,5.12,0,0,1-3.26.66l-.07,0,0-.07a3.29,3.29,0,0,0-1.12-1.18,2.67,2.67,0,0,0-3.35.12c-2.18,1.53-3,5.8-2,8a3,3,0,0,0,3.57,1.7,3.68,3.68,0,0,0,2.43-2.07,7.29,7.29,0,0,0,.79-5.61l0-.08.07-.06c.06-.05.12,0,.23,0a4.28,4.28,0,0,0,1.27,0,3,3,0,0,0,1.12-.35h0l0,0,.07.14.09.05c0,.17-.07,1.88,0,2.62a12.94,12.94,0,0,0,.55,3.67,2.27,2.27,0,0,0,2.55,1.84c1.9-.23,3.18-2.13,3.43-3.79a13.57,13.57,0,0,0-.08-4,.45.45,0,0,1,0-.08v-.17l.16,0a8.56,8.56,0,0,0,3.56-.18l.07,0,.06,0c.08.06.07.1,0,.52a13.49,13.49,0,0,0-.11,1.47V514a11.21,11.21,0,0,0,.49,4.14,2.54,2.54,0,0,0,1.36,1.59,2.71,2.71,0,0,0,2.2-.22,4.41,4.41,0,0,0,2.53-3.52,13.16,13.16,0,0,0,.05-2.59l0-.59a4.39,4.39,0,0,0,0-.53l-.36-.36.51.15a6.08,6.08,0,0,0,3.45-.34l0-.06.09.05c.09,0,.07.14.06.19s0,.23-.09.56-.1.64-.15,1-.07.42-.1.63a8.19,8.19,0,0,0,.25,4.23,1.86,1.86,0,0,0,2.14,1.36,5.86,5.86,0,0,0,1.78-.68,7,7,0,0,0,1.25-.95c.15-.14.23-.21.3-.21m-4.44,12.68a.81.81,0,0,1-.32-.07c-.74-.33-.52-1.34-.44-1.72a11.83,11.83,0,0,1,3.22-5.84c1-1,1.15-.93,1.21-.9l.08.06-.15.56c-.11.45-.25,1-.35,1.29l-.17.56a19.72,19.72,0,0,1-2,5l-.12.2c-.21.36-.48.82-.93.82m3.38-8.12c-.22.19-.54.48-.73.68a11.46,11.46,0,0,0-3.14,5.71c-.12.55-.2,1.2.28,1.41s.62-.14.91-.63a1.07,1.07,0,0,1,.13-.21,20.36,20.36,0,0,0,2-5l.17-.56.12,0-.12,0c.1-.33.23-.83.34-1.28Zm-31.61-4a1.44,1.44,0,0,1-.9-.32,3.27,3.27,0,0,1-1-2.19,5.59,5.59,0,0,1,1-4l.08-.11a2.33,2.33,0,0,1,2.55-.93,2.49,2.49,0,0,1,1.39,2.28v.56a6.3,6.3,0,0,1-1,3.3,2.72,2.72,0,0,1-1.94,1.4l-.23,0m1.15-7.4a2.28,2.28,0,0,0-1.72.93l-.09.11a5.44,5.44,0,0,0-.94,3.83,3,3,0,0,0,.87,2,1.15,1.15,0,0,0,.92.25,2.46,2.46,0,0,0,1.75-1.28,6.05,6.05,0,0,0,.94-3.16V513a2.21,2.21,0,0,0-1.21-2,1.54,1.54,0,0,0-.52-.09m7.39-1.62-.1-.07h-.15v0c0-.38.7-2.75.91-3.41a22,22,0,0,1,1-2.71,13.72,13.72,0,0,1,1.24-2.15l.06-.09c.51-.73,1-1.38,1.41-1.24.68.27.23,1.64,0,2.3a1.89,1.89,0,0,1-.06.18,11.26,11.26,0,0,1-.86,2l-.43.87a28.91,28.91,0,0,1-2.87,4.09,2.61,2.61,0,0,0-.2.26M807,499.8c-.08,0-.35.13-1.06,1.15l-.06.1a13.09,13.09,0,0,0-1.22,2.1,23.18,23.18,0,0,0-1,2.68c-.2.62-.59,2.06-.78,2.84a27.66,27.66,0,0,0,2.7-3.87c.14-.31.29-.6.44-.88a11.92,11.92,0,0,0,.84-2,1.83,1.83,0,0,1,.06-.19c.14-.44.59-1.78.14-2h0m5.77,9.35-.26-.07h0a1.38,1.38,0,0,0,.06-.28,15.55,15.55,0,0,1,.43-1.73l.11-.29c.42-1.16.85-2.37,1.38-3.51a16.14,16.14,0,0,1,1.12-2.13l.08-.13a7,7,0,0,1,.73-1,1.19,1.19,0,0,1,.62-.43.37.37,0,0,1,.37.14c.49.62-.58,3.44-.59,3.47a18.9,18.9,0,0,1-2.26,3.85c-.2.26-.39.52-.6.78s-.59.74-.85,1l-.13.11a2.12,2.12,0,0,0-.21.2m4.34-9.33h0a1.06,1.06,0,0,0-.45.34,8.2,8.2,0,0,0-.72,1l-.08.13a18.37,18.37,0,0,0-1.1,2.1c-.52,1.14-.95,2.33-1.37,3.49l-.11.29a12.56,12.56,0,0,0-.39,1.55l.05,0c.26-.3.54-.63.84-1l.59-.78a17.92,17.92,0,0,0,2.23-3.79c.22-.54.94-2.8.63-3.21a.11.11,0,0,0-.09,0" transform="translate(-712.96 -384.96)" style="fill:#225b41"/>
  <path d="M884.85,517c0-.05-.44-.36-.43-.4a7.25,7.25,0,0,0-.82-3.94c-.37-.88-.79-1.74-1.08-2.64-.14-.46-.35-.76-.78-.84a.94.94,0,0,0-1.07.57c-.62,1.31-1.24,2.62-1.85,3.93a12.15,12.15,0,0,1-2.83,4.11,2.61,2.61,0,0,1-2.68.67c-.47-.16-.52-.34-.17-.7s.72-.63,1.06-1a5.58,5.58,0,0,0,1.8-5.62,2.55,2.55,0,0,0-1.17-1.75,2.8,2.8,0,0,0-3.42.76,6.51,6.51,0,0,0-1.64,5,6.19,6.19,0,0,0,.36,1.81c.33.89.28,1.1-.62,1.41l-.59.19a1.64,1.64,0,0,1-2.26-1.83,4.13,4.13,0,0,1,.07-.49c.19-1,.39-1.9.57-2.86a4.41,4.41,0,0,0-.29-2.61,2.21,2.21,0,0,0-3.39-1c-.32.2-.61.43-.92.64s-.61.19-.73-.28c-.16-.64-.47-.86-1.12-.68a12.24,12.24,0,0,0-1.24.54,5.47,5.47,0,0,1-3.54.57,6.74,6.74,0,0,1-1.64-.85,2.15,2.15,0,0,0-3,.12c-1.83,1.49-2.47,3.54-2.76,6,.11.53.2,1.23.39,1.9a3.25,3.25,0,0,0,3.3,2.3,4.65,4.65,0,0,0,3.51-2.58,7.55,7.55,0,0,0,.84-4.8c-.08-.54.1-.67.62-.71.81-.06,1.62-.24,2.43-.36.31-.05.69-.13.58.4-.22,1.11-.47,2.22-.71,3.33s-.57,2.5-.8,3.76c-.12.66.13.93.71,1s.91-.26,1-.92a15.49,15.49,0,0,1,1.92-6.42,3.11,3.11,0,0,1,1.76-1.58,1,1,0,0,1,1.47.75,6.76,6.76,0,0,1,0,2c-.12,1.13-.4,2.24-.5,3.37a2.63,2.63,0,0,0,3.22,2.85c.88-.18,1.72-.57,2.59-.81a1,1,0,0,1,.77.08,3.74,3.74,0,0,0,3.05.61,6.2,6.2,0,0,0,3.35-2.33,19.18,19.18,0,0,0,2.78-5.3c.06-.16.18-.62.31-.64s.32.42.39.55A20.17,20.17,0,0,1,883,515c.14.36.34,1.11,0,1a4,4,0,0,0-1.57-.13,2.21,2.21,0,0,0-2,1.42,1.84,1.84,0,0,0,.34,2.13,2.25,2.25,0,0,0,2.64.3,5.77,5.77,0,0,0,1.3-1c.44-.45.51-.7.89-.19s.4,1.06.7,1.19.66-.48.62-1.16-.46-1-1-1.54m-31.38.83a1.72,1.72,0,0,1-3-1.12,6.9,6.9,0,0,1,1-4.86,2.39,2.39,0,0,1,2.5-1,2.47,2.47,0,0,1,1.42,2.45c-.27,1.57-.51,3.32-2,4.53m19-1.28a1.27,1.27,0,0,1-.45.25h-.05c-.13,0-.21-.16-.27-.51a7.1,7.1,0,0,1-.17-2.34,5.41,5.41,0,0,1,.85-2.43,1.56,1.56,0,0,1,.16-.2,2.66,2.66,0,0,1,.59-.52c.95-.59,1.58.32,1.69,1.17a2.25,2.25,0,0,1,0,.51,2.63,2.63,0,0,1,0,.49,3.83,3.83,0,0,1-.28.93,6.65,6.65,0,0,1-1.15,1.69,8.76,8.76,0,0,1-.91,1m10.64.61c0,.35-.63,1.1-.86,1.26a1.74,1.74,0,0,1-.72.29.83.83,0,0,1-.72-.24,1,1,0,0,1,0-1.3c.48-.47,2.23-.49,2.26,0" transform="translate(-712.96 -384.96)" style="fill:#225b41"/>
  <path d="M867.83,520.16a2.71,2.71,0,0,1-1.85-.7,2.78,2.78,0,0,1-.91-2.37c0-.61.16-1.22.26-1.82s.18-1,.24-1.55a6.75,6.75,0,0,0,0-1.92.83.83,0,0,0-.38-.59,1.07,1.07,0,0,0-.92,0,2.91,2.91,0,0,0-1.68,1.52,15.39,15.39,0,0,0-1.9,6.36c-.06.75-.44,1.1-1.11,1.05a1,1,0,0,1-.71-.31,1,1,0,0,1-.12-.82c.16-.89.36-1.77.55-2.63.09-.38.17-.76.25-1.14l.18-.8c.18-.84.36-1.68.53-2.53a.29.29,0,0,0,0-.24c-.05-.05-.23,0-.37,0h-.05l-.78.13a15.41,15.41,0,0,1-1.66.23c-.26,0-.4.06-.46.14a.57.57,0,0,0,0,.42,7.71,7.71,0,0,1-.86,4.89,4.85,4.85,0,0,1-3.6,2.65,3.42,3.42,0,0,1-3.45-2.41c-.13-.48-.22-1-.3-1.41,0-.17,0-.34-.09-.5v0c.25-2.06.77-4.39,2.81-6.05a2.29,2.29,0,0,1,3.15-.12l0,0a6.35,6.35,0,0,0,1.55.8,5.28,5.28,0,0,0,3.43-.56c.18-.07.34-.15.49-.22a4.25,4.25,0,0,1,.79-.33,1.09,1.09,0,0,1,.83,0,1.1,1.1,0,0,1,.45.74c0,.12.08.26.18.3s.19,0,.35-.1l.43-.31c.16-.11.32-.23.49-.33a2.34,2.34,0,0,1,3.58,1.1,4.52,4.52,0,0,1,.31,2.69l-.36,1.81-.21,1a2.89,2.89,0,0,0-.08.47,1.72,1.72,0,0,0,.53,1.49,1.69,1.69,0,0,0,1.56.2l.59-.19c.42-.14.61-.25.68-.39s0-.43-.15-.84a6.4,6.4,0,0,1-.36-1.85,6.54,6.54,0,0,1,1.67-5.08,2.94,2.94,0,0,1,3.59-.78,2.6,2.6,0,0,1,1.23,1.83,5.72,5.72,0,0,1-1.84,5.75l-.49.45c-.19.16-.38.33-.56.51s-.2.27-.19.29,0,.1.3.18a2.46,2.46,0,0,0,2.55-.64,12.24,12.24,0,0,0,2.8-4.07l.15-.33c.57-1.2,1.13-2.4,1.71-3.59a1,1,0,0,1,1.2-.65,1.16,1.16,0,0,1,.89.93c.2.61.46,1.21.72,1.8.12.27.24.55.35.83l0,.09a7.31,7.31,0,0,1,.8,3.87l.26.22.13.12.13.13c.53.55.91,1,.94,1.49a1.52,1.52,0,0,1-.5,1.24.29.29,0,0,1-.31,0c-.21-.09-.28-.27-.37-.5a3.12,3.12,0,0,0-.39-.73c-.15-.2-.21-.23-.24-.23h0c-.05,0-.15.12-.25.23s-.12.13-.2.2a6,6,0,0,1-1.32,1,2.41,2.41,0,0,1-2.81-.32,2,2,0,0,1-.36-2.28,2.36,2.36,0,0,1,2.12-1.5,3.69,3.69,0,0,1,1.62.13h0a2.06,2.06,0,0,0-.18-.8,18.07,18.07,0,0,0-1.29-2.83l0-.1a3.6,3.6,0,0,0-.22-.37,3.06,3.06,0,0,0-.15.4s0,.1,0,.14a19.21,19.21,0,0,1-2.8,5.34,6.19,6.19,0,0,1-3.41,2.37,3.85,3.85,0,0,1-3.16-.63.89.89,0,0,0-.67-.06c-.35.1-.7.22-1,.34a11.57,11.57,0,0,1-1.55.47,3.37,3.37,0,0,1-.62.07m-3.16-9.34a1.17,1.17,0,0,1,.62.16,1.08,1.08,0,0,1,.5.77,7.3,7.3,0,0,1,.05,2c-.06.53-.15,1.06-.24,1.57a18.14,18.14,0,0,0-.26,1.8,2.5,2.5,0,0,0,.81,2.14,2.57,2.57,0,0,0,2.24.57,11.12,11.12,0,0,0,1.52-.46c.34-.12.7-.25,1.06-.35a1.19,1.19,0,0,1,.88.1,3.59,3.59,0,0,0,2.95.59,5.94,5.94,0,0,0,3.27-2.28,19.26,19.26,0,0,0,2.77-5.27s0-.08,0-.13c.11-.34.2-.57.37-.59s.32.2.48.53a.41.41,0,0,1,0,.09,18.6,18.6,0,0,1,1.31,2.87c.08.2.32.89.11,1.1a.24.24,0,0,1-.28,0,3.5,3.5,0,0,0-1.5-.11,2.07,2.07,0,0,0-1.9,1.33,1.72,1.72,0,0,0,.3,2,2.13,2.13,0,0,0,2.49.27,5.18,5.18,0,0,0,1.26-1l.19-.19c.17-.19.29-.32.45-.32h0c.16,0,.29.15.44.34a3.25,3.25,0,0,1,.42.79c.08.21.13.31.23.36a.25.25,0,0,0,.1-.07,1.32,1.32,0,0,0,.33-1c0-.45-.37-.82-.86-1.32l-.13-.14-.11-.09c-.33-.28-.38-.32-.36-.42a7,7,0,0,0-.78-3.78l0-.09c-.11-.28-.23-.55-.35-.83a19.12,19.12,0,0,1-.72-1.82c-.15-.48-.35-.69-.69-.75a.79.79,0,0,0-.91.5c-.58,1.2-1.14,2.4-1.71,3.6l-.15.33a12.49,12.49,0,0,1-2.86,4.15,2.73,2.73,0,0,1-2.82.7c-.19-.07-.43-.17-.47-.38s.11-.4.26-.54.38-.35.57-.52l.49-.44a5.44,5.44,0,0,0,1.76-5.5,2.36,2.36,0,0,0-1.11-1.66,2.64,2.64,0,0,0-3.25.73,6.29,6.29,0,0,0-1.6,4.89,6,6,0,0,0,.34,1.76c.18.49.26.8.14,1.05s-.41.39-.84.54l-.59.19a2,2,0,0,1-1.81-.25,2,2,0,0,1-.62-1.72,4.29,4.29,0,0,1,.07-.5c.07-.36.14-.71.22-1.06.12-.6.24-1.2.35-1.8a4.27,4.27,0,0,0-.28-2.54,2.24,2.24,0,0,0-1.36-1.29,2.17,2.17,0,0,0-1.84.31,5,5,0,0,0-.47.33c-.15.1-.29.21-.45.31a.54.54,0,0,1-.93-.35.88.88,0,0,0-.33-.58.85.85,0,0,0-.62,0,3.89,3.89,0,0,0-.74.31,4.31,4.31,0,0,1-.49.22,5.47,5.47,0,0,1-3.63.57,6.44,6.44,0,0,1-1.61-.82l-.06,0a2,2,0,0,0-2.83.11c-2,1.59-2.47,3.85-2.71,5.85,0,.15.06.32.09.49a13.13,13.13,0,0,0,.29,1.38,3.1,3.1,0,0,0,3.15,2.21,4.51,4.51,0,0,0,3.41-2.51,7.53,7.53,0,0,0,.83-4.72.76.76,0,0,1,.09-.63.92.92,0,0,1,.65-.23c.54,0,1.1-.14,1.63-.23l.79-.13h0c.21,0,.46-.07.61.08a.57.57,0,0,1,.08.49c-.17.84-.36,1.68-.54,2.52l-.18.81c-.08.38-.16.76-.25,1.14-.19.85-.39,1.74-.55,2.61a.79.79,0,0,0,.07.62.72.72,0,0,0,.52.2c.55,0,.77-.2.82-.8a15.44,15.44,0,0,1,1.94-6.47,3.22,3.22,0,0,1,1.83-1.65,1.65,1.65,0,0,1,.52-.08m16.7,8a.93.93,0,0,1-.7-.29,1.14,1.14,0,0,1,.05-1.48,2.57,2.57,0,0,1,2.14-.29c.27.1.34.25.35.36,0,.43-.68,1.21-.93,1.38a1.76,1.76,0,0,1-.77.32h-.14m.77-1.9a2.06,2.06,0,0,0-1.24.32.89.89,0,0,0,0,1.11.71.71,0,0,0,.6.2,1.37,1.37,0,0,0,.66-.28c.25-.16.83-.86.81-1.13,0,0-.07-.09-.17-.13a1.68,1.68,0,0,0-.63-.09m-30,1.53a1.68,1.68,0,0,1-.63-.12,2,2,0,0,1-1.14-1.63,7,7,0,0,1,1.07-5,2.52,2.52,0,0,1,2.65-1.05,2.59,2.59,0,0,1,1.51,2.58l0,.2c-.25,1.52-.54,3.24-2,4.43a2.28,2.28,0,0,1-1.4.55m1.41-7.58a2.44,2.44,0,0,0-1.89,1,6.72,6.72,0,0,0-1,4.77,1.69,1.69,0,0,0,1,1.42,1.74,1.74,0,0,0,1.76-.39c1.41-1.13,1.68-2.72,1.94-4.26l0-.19a2.34,2.34,0,0,0-1.34-2.3,1.33,1.33,0,0,0-.45-.07m18.37,6c-.26,0-.34-.31-.41-.62a7.54,7.54,0,0,1-.17-2.38,5.59,5.59,0,0,1,.88-2.49l.17-.22a2.65,2.65,0,0,1,.62-.54,1.06,1.06,0,0,1,1.06-.12,1.83,1.83,0,0,1,.84,1.39,4.67,4.67,0,0,1,0,.52,2.76,2.76,0,0,1-.05.51,3.91,3.91,0,0,1-.29,1,6.52,6.52,0,0,1-1.17,1.73l-.19.22a6.6,6.6,0,0,1-.74.76,1.34,1.34,0,0,1-.49.27h-.09Zm1.75-6.19a.92.92,0,0,0-.52.17,2.51,2.51,0,0,0-.56.48,2.43,2.43,0,0,0-.14.2,5.23,5.23,0,0,0-.84,2.37,7,7,0,0,0,.17,2.29c.08.41.14.41.15.41a1,1,0,0,0,.4-.22h0a5.36,5.36,0,0,0,.7-.73l.2-.22a6.28,6.28,0,0,0,1.13-1.66,3.93,3.93,0,0,0,.27-.89,3.57,3.57,0,0,0,0-.47,4.15,4.15,0,0,0,0-.49,1.56,1.56,0,0,0-.69-1.18.67.67,0,0,0-.28-.06" transform="translate(-712.96 -384.96)" style="fill:#225b41"/>
  <path d="M786,506.92c-.45-.21-.34-.42-.06-.7a24,24,0,0,0,1.7-1.79,6.87,6.87,0,0,0,1.7-4.86,3.3,3.3,0,0,0-2.36-3.1,9.32,9.32,0,0,0-4.83-.38,10.06,10.06,0,0,0-4.81,2.14,14.39,14.39,0,0,0-4,5.28,24.14,24.14,0,0,0-1.88,5.8,20.33,20.33,0,0,0-.43,5.92,10.08,10.08,0,0,0,1.47,4.85,1.87,1.87,0,0,0,2.69.53,5.7,5.7,0,0,0,1.43-1.25,18.75,18.75,0,0,0,2.95-6.24c.41-1.34,1.29-4.65,1.34-4.73a11.79,11.79,0,0,0,3.43-.87,13.11,13.11,0,0,1,1.46.68,4.75,4.75,0,0,1,2.44,3.08,5.63,5.63,0,0,1-1.81,6,7.09,7.09,0,0,1-4.28,1.61,5.54,5.54,0,0,1-3.62-.52.54.54,0,0,0-.5.08,1,1,0,0,0,.16,1.62c2.47,1.15,4.94.75,7.33-.21a6.93,6.93,0,0,0,4.24-5.5,6.37,6.37,0,0,0-3.75-7.48m-2.24-1a13.33,13.33,0,0,0-2.37,0c-.09,0,.4-2,.57-2.85a5.63,5.63,0,0,0,.1-1.23c0-.22-.1-.58-.34-.65s-.53.23-.61.42a9,9,0,0,0-.44,1.54c-.23.94-.4,2.08-.66,3a2.31,2.31,0,0,0-2,2.07.65.65,0,0,0,.69.63c.43,0,.65-.14.54.21a43.53,43.53,0,0,1-2.92,7.85,7.73,7.73,0,0,1-1.48,1.88c-.68.63-1.28.42-1.63-.45a12.79,12.79,0,0,1-.68-4.2c0-.37,0-.75,0-1.12a23.73,23.73,0,0,1,2-8.91,10.83,10.83,0,0,1,5.55-5.93,8.57,8.57,0,0,1,6.06-.4,2.35,2.35,0,0,1,1.58,3.18,7.66,7.66,0,0,1-4,4.93" transform="translate(-712.96 -384.96)" style="fill:#225b41"/>
  <path d="M774,521.09a2,2,0,0,1-1.66-.93,10.27,10.27,0,0,1-1.5-4.91,20.62,20.62,0,0,1,.44-6,24.34,24.34,0,0,1,1.88-5.82,14.57,14.57,0,0,1,4.06-5.34,10.17,10.17,0,0,1,4.87-2.17,9.61,9.61,0,0,1,4.89.39,3.43,3.43,0,0,1,2.45,3.22,6.93,6.93,0,0,1-1.72,4.95c-.43.53-.92,1-1.39,1.49l-.32.32c-.06.05-.22.21-.21.3s0,.09.23.17a6.52,6.52,0,0,1,3.82,7.64,7.06,7.06,0,0,1-4.32,5.59c-2.88,1.16-5.25,1.23-7.44.21a1,1,0,0,1-.61-.84,1.13,1.13,0,0,1,.43-1,.7.7,0,0,1,.65-.09,5.43,5.43,0,0,0,3.53.51,6.88,6.88,0,0,0,4.21-1.58,5.5,5.5,0,0,0,1.77-5.9,4.63,4.63,0,0,0-2.38-3,12.6,12.6,0,0,0-1.39-.64,11.87,11.87,0,0,1-3.33.84c-.06.2-.24.84-.43,1.52-.29,1.07-.66,2.39-.88,3.13a18.67,18.67,0,0,1-3,6.28,5.47,5.47,0,0,1-1.46,1.28,2.33,2.33,0,0,1-1.21.37m9.91-25a10.94,10.94,0,0,0-1.77.15,9.93,9.93,0,0,0-4.76,2.11,14.39,14.39,0,0,0-4,5.24,24.53,24.53,0,0,0-1.87,5.77,20.07,20.07,0,0,0-.43,5.88A10.16,10.16,0,0,0,772.6,520a1.75,1.75,0,0,0,2.51.49,5.32,5.32,0,0,0,1.39-1.23,18.23,18.23,0,0,0,2.93-6.19c.23-.73.59-2.06.89-3.12.4-1.47.44-1.6.47-1.65l0-.05h.06a11.58,11.58,0,0,0,3.39-.85l.05,0,0,0a11.53,11.53,0,0,1,1.47.68,4.89,4.89,0,0,1,2.51,3.17,5.75,5.75,0,0,1-1.85,6.17,7.16,7.16,0,0,1-4.36,1.65,5.71,5.71,0,0,1-3.7-.55.48.48,0,0,0-.35.07.83.83,0,0,0-.32.77.79.79,0,0,0,.45.63c2.12,1,4.42.92,7.23-.21a6.75,6.75,0,0,0,4.16-5.41A6.25,6.25,0,0,0,786,507c-.15-.07-.34-.18-.38-.37a.66.66,0,0,1,.28-.54l.32-.32a19.06,19.06,0,0,0,1.37-1.47,6.63,6.63,0,0,0,1.66-4.77,3.19,3.19,0,0,0-2.27-3,8.56,8.56,0,0,0-3-.52m-9.82,23.22-.17,0a1.34,1.34,0,0,1-.84-.88,12.38,12.38,0,0,1-.67-3.93v-.31a6.8,6.8,0,0,1,0-.78V513a23.9,23.9,0,0,1,2-9,10.82,10.82,0,0,1,5.62-6,8.62,8.62,0,0,1,6.15-.4,2.45,2.45,0,0,1,1.67,3.33,7.8,7.8,0,0,1-4,5l0,0h0a12.18,12.18,0,0,0-2.35,0h-.07l-.05-.05c-.07-.08-.07-.14.26-1.61.11-.5.22-1,.29-1.35a5.38,5.38,0,0,0,.09-1.2c0-.24-.1-.49-.23-.53s-.39.18-.46.34a8.77,8.77,0,0,0-.38,1.29l-.05.23c-.1.4-.18.82-.27,1.27s-.24,1.21-.39,1.75l0,.08-.08,0a2.21,2.21,0,0,0-1.86,1.94.52.52,0,0,0,.57.49,1.4,1.4,0,0,0,.3,0c.15,0,.27,0,.35.08a.36.36,0,0,1,0,.32l-.38,1.21a35.51,35.51,0,0,1-2.56,6.67,7.77,7.77,0,0,1-1.5,1.91,1.24,1.24,0,0,1-.84.4m9.59-21.76a9.16,9.16,0,0,0-3.57.77,10.67,10.67,0,0,0-5.48,5.86,23.59,23.59,0,0,0-2,8.86v.36c0,.24,0,.5,0,.75l0,.32a11.78,11.78,0,0,0,.65,3.84c.17.41.39.66.65.72a1,1,0,0,0,.77-.32,7.65,7.65,0,0,0,1.45-1.84,35.84,35.84,0,0,0,2.54-6.62c.13-.41.25-.82.38-1.21,0,0,0,0,0-.06h-.1a1.7,1.7,0,0,1-.33,0,.77.77,0,0,1-.82-.76,2.44,2.44,0,0,1,2-2.19c.14-.51.26-1.09.37-1.65s.17-.88.27-1.28l.05-.23a9,9,0,0,1,.4-1.34c.09-.21.43-.57.76-.48s.42.44.44.76a5.18,5.18,0,0,1-.1,1.26c-.07.36-.18.87-.29,1.37s-.24,1.07-.28,1.32a12.59,12.59,0,0,1,2.22,0,7.55,7.55,0,0,0,3.87-4.83,2.21,2.21,0,0,0-1.49-3,7.82,7.82,0,0,0-2.4-.38" transform="translate(-712.96 -384.96)" style="fill:#225b41"/>
  <path d="M846.77,513.3a1.89,1.89,0,0,0,.85-.45.83.83,0,0,0,.08-.67.56.56,0,0,0-.42-.27c-.8-.07-.8-.07-.73-.9a54.85,54.85,0,0,0,.35-9.92,7.59,7.59,0,0,0-.67-2.42,2.49,2.49,0,0,0-3.75-1.09,6.82,6.82,0,0,0-2,2,14,14,0,0,0-1.84,9.12c.25,2.4,2.23,5.12,5.23,5,.33,0,.59.08.59.46s-.15.62-.59.64a7.51,7.51,0,0,0-5.35,2.77,15.62,15.62,0,0,0-4,9.55,9.26,9.26,0,0,0,.55,4.33c.61,1.47,1.44,2.12,2.94,1.81a3.65,3.65,0,0,0,2.31-1.35,22.26,22.26,0,0,0,2.24-3.41,43.93,43.93,0,0,0,3.19-11.55c.13-.7.26-.79,1-.56.18,0,.52,0,.55,0a.9.9,0,0,0,0-.68,1.12,1.12,0,0,0-.66-.51.6.6,0,0,1-.49-.78c.06-.44,0-.93.58-1.09m-2.69,3.51a50.8,50.8,0,0,1-2.58,9.62,11.09,11.09,0,0,1-2.62,4.31,1.64,1.64,0,0,1-1.59.5c-.62-.17-.78-.77-.86-1.32-.12-.76-.16-1.52-.23-2.29a14.66,14.66,0,0,1,2.93-8.49,7.48,7.48,0,0,1,4.22-3c.69-.17.85,0,.73.65m1.28-11.17-.5,6.06a.62.62,0,0,1-.67.65,3.57,3.57,0,0,1-3.34-2.08,8.1,8.1,0,0,1-.71-5.08,11.26,11.26,0,0,1,1.74-5.05,5.42,5.42,0,0,1,1.13-1.21,1.09,1.09,0,0,1,1.71.3,4.66,4.66,0,0,1,.63,2.62c0,1.22,0,2.44,0,3.79" transform="translate(-712.96 -384.96)" style="fill:#225b41"/>
  <path d="M837.37,533.46c-1.08,0-1.81-.62-2.38-2a9.31,9.31,0,0,1-.55-4.39,15.76,15.76,0,0,1,4-9.62,7.59,7.59,0,0,1,5.45-2.83c.33,0,.46-.15.45-.5a.33.33,0,0,0-.08-.25.49.49,0,0,0-.36-.08c-3,.15-5.1-2.53-5.38-5.09a14.17,14.17,0,0,1,1.86-9.21,7.08,7.08,0,0,1,2-2,2.63,2.63,0,0,1,2.21-.39,2.74,2.74,0,0,1,1.74,1.53,7.64,7.64,0,0,1,.68,2.47,42.14,42.14,0,0,1-.2,8.18l-.15,1.76c0,.7,0,.7.59.75.2,0,.51.18.56.38s.08.61-.12.8a2.15,2.15,0,0,1-.9.48c-.4.1-.44.33-.47.74a1.94,1.94,0,0,1,0,.24c-.05.37,0,.53.4.63a1.29,1.29,0,0,1,.73.57,1,1,0,0,1,0,.8c-.09.21-.59.13-.71.09-.32-.1-.49-.12-.58-.07s-.14.21-.2.54a44,44,0,0,1-3.2,11.58,17.85,17.85,0,0,1-1.88,2.91l-.37.51a3.76,3.76,0,0,1-2.39,1.41,3.17,3.17,0,0,1-.72.08M844,513.55a.67.67,0,0,1,.49.16.57.57,0,0,1,.16.44.67.67,0,0,1-.71.77,7.32,7.32,0,0,0-5.26,2.73,15.5,15.5,0,0,0-3.95,9.47,9.07,9.07,0,0,0,.53,4.27c.63,1.51,1.44,2,2.8,1.73a3.61,3.61,0,0,0,2.22-1.3l.38-.52a18.47,18.47,0,0,0,1.85-2.87,44,44,0,0,0,3.18-11.51c.07-.37.14-.61.33-.72s.43-.07.79,0a.93.93,0,0,0,.4,0,.68.68,0,0,0,0-.52,1.06,1.06,0,0,0-.57-.46.73.73,0,0,1-.6-.92l0-.22c0-.37.06-.82.66-1a1.85,1.85,0,0,0,.79-.41.73.73,0,0,0,0-.55.45.45,0,0,0-.3-.17c-.86-.08-.92-.14-.85-1,.05-.61.1-1.2.16-1.79a43.15,43.15,0,0,0,.2-8.12,7.66,7.66,0,0,0-.66-2.39,2.44,2.44,0,0,0-1.57-1.38,2.39,2.39,0,0,0-2,.35,6.78,6.78,0,0,0-1.92,2,13.84,13.84,0,0,0-1.82,9c.25,2.38,2.18,4.86,4.88,4.86H844m-6.31,17.88a1.4,1.4,0,0,1-.41-.06c-.78-.22-.91-1-1-1.43s-.12-1.08-.16-1.6l-.06-.69a14.6,14.6,0,0,1,3-8.59,7.61,7.61,0,0,1,4.29-3c.31-.07.62-.11.79.05s.15.46.1.76a51.45,51.45,0,0,1-2.58,9.65,11.3,11.3,0,0,1-2.66,4.36,2,2,0,0,1-1.3.59m6.1-15.2a1.85,1.85,0,0,0-.39.06,7.23,7.23,0,0,0-4.14,2.93,14.48,14.48,0,0,0-2.91,8.42c0,.21,0,.44.06.67,0,.53.09,1.07.17,1.59s.26,1.07.77,1.22a1.52,1.52,0,0,0,1.46-.48,11.05,11.05,0,0,0,2.59-4.26,49.92,49.92,0,0,0,2.56-9.6c.06-.28,0-.46,0-.51a.22.22,0,0,0-.16,0m.27-3.75a3.66,3.66,0,0,1-3.3-2.14,8.13,8.13,0,0,1-.73-5.16,11.22,11.22,0,0,1,1.76-5.12,5.51,5.51,0,0,1,1.16-1.23,1.27,1.27,0,0,1,1-.32,1.43,1.43,0,0,1,.94.65,4.71,4.71,0,0,1,.65,2.68c0,.86,0,1.7,0,2.6,0,.39,0,.79,0,1.2h0l-.11,1.35c-.13,1.53-.26,3.12-.39,4.71a.74.74,0,0,1-.79.77H844m-.29-13.71a1,1,0,0,0-.65.26,5.26,5.26,0,0,0-1.11,1.18,11.09,11.09,0,0,0-1.72,5,7.94,7.94,0,0,0,.7,5,3.42,3.42,0,0,0,3.07,2h.14a.48.48,0,0,0,.55-.52c.12-1.59.26-3.18.38-4.71l.12-1.35v-1.19c0-.9,0-1.74,0-2.58a4.51,4.51,0,0,0-.6-2.55,1.17,1.17,0,0,0-.76-.53h-.1" transform="translate(-712.96 -384.96)" style="fill:#225b41"/>
  <path d="M887.52,504.09a1.63,1.63,0,1,1-1.63-1.62,1.6,1.6,0,0,1,1.63,1.62m-.46,0a1.17,1.17,0,1,0-1.17,1.19,1.13,1.13,0,0,0,1.17-1.19m-1.16-.76c.37,0,.6.2.6.5a.43.43,0,0,1-.28.43l.36.59h-.37l-.3-.53h-.2v.53h-.34v-1.52Zm-.19.71h.23a.19.19,0,0,0,.22-.2c0-.11-.08-.19-.22-.19h-.23Z" transform="translate(-712.96 -384.96)" style="fill:#225b41"/>
  <path d="M747.75,567.33h0a4.81,4.81,0,0,1-4.81-4.82V404.76a4.81,4.81,0,1,1,9.62,0V562.51a4.81,4.81,0,0,1-4.81,4.82" transform="translate(-712.96 -384.96)" style="fill:#3a7c59"/>
  <path d="M762.73,493.47h0a4.81,4.81,0,0,1-4.81-4.81V389.78a4.82,4.82,0,1,1,9.63,0v98.88a4.81,4.81,0,0,1-4.82,4.81" transform="translate(-712.96 -384.96)" style="fill:#61a27e"/>
  <path d="M777.72,481.7h0a4.81,4.81,0,0,1-4.81-4.82V395.13a4.81,4.81,0,1,1,9.62,0v81.75a4.81,4.81,0,0,1-4.81,4.82" transform="translate(-712.96 -384.96)" style="fill:#64a67f"/>
  <path d="M792.7,484.91h0a4.82,4.82,0,0,1-4.81-4.81V393a4.82,4.82,0,1,1,9.63,0V480.1a4.82,4.82,0,0,1-4.82,4.81" transform="translate(-712.96 -384.96)" style="fill:#78b492"/>
  <path d="M807.69,464.57h0a4.81,4.81,0,0,1-4.81-4.81V399.41a4.81,4.81,0,1,1,9.62,0v60.35a4.81,4.81,0,0,1-4.81,4.81" transform="translate(-712.96 -384.96)" style="fill:#90c0a6"/>
  <path d="M822.67,451.72h0a4.81,4.81,0,0,1-4.81-4.81V408a4.82,4.82,0,0,1,9.63,0v38.94a4.81,4.81,0,0,1-4.82,4.81" transform="translate(-712.96 -384.96)" style="fill:#a6d1ba"/>
  <path d="M732.76,509.53h0a4.81,4.81,0,0,1-4.81-4.82V420.82a4.81,4.81,0,1,1,9.62,0v83.89a4.81,4.81,0,0,1-4.81,4.82" transform="translate(-712.96 -384.96)" style="fill:#2f6c4e"/>
  <path d="M717.78,492.4h0a4.81,4.81,0,0,1-4.82-4.81V435.8a4.82,4.82,0,0,1,9.63,0v51.79a4.81,4.81,0,0,1-4.81,4.81" transform="translate(-712.96 -384.96)" style="fill:#225b41"/>
  <path d="M812.78,550.11h-7.95c-1.93-5.33-6-8-12.32-8a13.48,13.48,0,0,0-10.66,4.68c-2.75,3.09-4.1,7.06-4.1,11.88a17.3,17.3,0,0,0,4.1,11.87,13.67,13.67,0,0,0,10.79,4.68c6.6,0,10.78-3.21,12.57-8.28h7.7c-2.56,9.57-9.49,15-20.27,15a21.4,21.4,0,0,1-16.18-6.61c-4.17-4.43-6.28-9.95-6.28-16.68s2.11-12.26,6.28-16.69a21.12,21.12,0,0,1,16-6.61c10.71,0,17.77,5.52,20.27,14.7" transform="translate(-712.96 -384.96)" style="fill:#225b41"/>
  <path d="M848.72,548.44h-7.31c-.07-4.17-2.63-6.61-6.48-6.61s-6.1,2.25-6.1,5.9a5,5,0,0,0,1.8,4.18,27.7,27.7,0,0,0,6.67,3.27c4.68,1.6,8,3.46,9.88,5.52a10.84,10.84,0,0,1,3,8,12.34,12.34,0,0,1-4,9.75A15.09,15.09,0,0,1,835.7,582c-9.69,0-15.08-5.58-15.28-14.31h7.25c.2,5.13,3,8,8.09,8,4.56,0,7.12-2.57,7.12-6.42,0-3.4-2.37-5.33-8.79-7.44-4.3-1.48-7.44-3.21-9.5-5.2s-3-4.75-3-8.28a12.31,12.31,0,0,1,3.66-9.24c2.43-2.44,5.71-3.66,9.88-3.66,8.21,0,13.28,4.56,13.6,13" transform="translate(-712.96 -384.96)" style="fill:#225b41"/>
  <polygon points="172.27 151.28 172.27 158.02 154.69 158.02 154.69 170.34 169.64 170.34 169.64 177.08 154.69 177.08 154.69 196.2 147.5 196.2 147.5 151.28 172.27 151.28" style="fill:#225b41"/>
</svg>
