<svg xmlns="http://www.w3.org/2000/svg" width="152.478" height="106.76" viewBox="0 0 152.478 106.76">
    <g transform="translate(42.431 -0.001)">
        <path d="M104.339,37.477a.473.473,0,0,0-.249-.351l-2.366-1.178c-1-.453-1.019-1.178-.747-2.14.226-.827,2.581-9.171,2.6-9.25a.451.451,0,0,0-.113-.442.469.469,0,0,0-.43-.136c-.068.011-6.284,1.4-7.744,1.608a2.419,2.419,0,0,1-.385.034c-.5,0-.725-.2-1.064-.951-.362-.77-1.857-4.438-1.88-4.484a.477.477,0,0,0-.34-.283.446.446,0,0,0-.419.147c-3.023,3.351-7.62,8.424-7.892,8.673-.623.566-1.3.657-1.664.215a1.265,1.265,0,0,1-.215-1.064C81.672,26.46,85.363,9.522,85.4,9.352a.482.482,0,0,0-.181-.476.466.466,0,0,0-.5-.023s-4.11,2.434-5.5,3.261a2.436,2.436,0,0,1-1.11.43c-.249,0-.566-.113-1-.928-.476-.8-2.763-5.355-4.269-8.356C71.312.215,71.3.215,71.244.136A.541.541,0,0,0,70.836,0a.448.448,0,0,0-.351.26c-.034.068-4.993,10.077-5.74,11.39-.442.8-.759.917-1.019.917a2.34,2.34,0,0,1-1.121-.43l-5.48-3.261a.464.464,0,0,0-.51.023.474.474,0,0,0-.181.476c.034.17,3.736,17.108,3.963,18.523a1.316,1.316,0,0,1-.226,1.064c-.362.43-1.03.351-1.664-.226-.26-.249-4.835-5.321-7.846-8.673a.475.475,0,0,0-.419-.147.456.456,0,0,0-.351.272c-.011.034-1.562,3.714-1.913,4.495-.328.736-.566.94-1.053.94a2.535,2.535,0,0,1-.385-.034c-1.449-.2-7.96-1.6-8.016-1.608a.491.491,0,0,0-.442.136.474.474,0,0,0-.1.453c.023.079,2.649,8.413,2.876,9.239.26,1,.238,1.7-.725,2.14l-2.4,1.166a.446.446,0,0,0-.249.351.434.434,0,0,0,.159.408c.091.079,5.933,5.14,10.326,8.956l1.291,1.03,4.336-2.129a1.137,1.137,0,0,0,.555-1.517c-.125-.476-1.63-5.242-1.63-5.242s3.714.793,4.563.917c.657.113.883-.192,1.087-.657s1.087-2.548,1.087-2.548,4.37,4.857,4.461,4.937c.838.77,1.653.17,1.506-.713C65.1,40.093,62.978,30.4,62.978,30.4l.611.362c.747.442,1.97,1.166,2.5,1.483.747.453,1.166.374,1.574-.374.408-.725,3.238-6.408,3.261-6.465.045.057,2.865,5.752,3.295,6.465.4.747.8.827,1.551.374.487-.283,1.562-.917,2.31-1.37.464-.272.8-.476.8-.476s-2.106,9.692-2.242,10.507c-.159.883.657,1.472,1.495.713.1-.079,4.484-4.937,4.484-4.937s.86,2.095,1.064,2.548.43.781,1.1.657c.838-.125,4.393-.917,4.393-.917s-1.347,4.767-1.483,5.242a1.124,1.124,0,0,0,.566,1.517l4.563,2.129,1.042-1.03c4.393-3.816,10.235-8.865,10.326-8.956A.422.422,0,0,0,104.339,37.477Z" transform="translate(-37.476 0.001)" fill="#ec1c24"/>
        <path d="M64.627,30.374c.408-.725,3.238-6.408,3.261-6.465.045.057,2.865,5.752,3.295,6.465.4.747.8.827,1.551.374.487-.283,1.562-.917,2.31-1.37-.023-3.295-4.9-7.4-5.072-18.048-5.4,4.291-10.632,12.455-9.42,17.923.747.442,1.97,1.166,2.5,1.483C63.8,31.2,64.208,31.121,64.627,30.374Z" transform="translate(-34.448 1.5)" fill="#ffc10e"/>
        <g transform="translate(18.045 46.919)">
            <path d="M85.724,48.03c.589-.476-1.6-4.348-2.91-5.412-2.921-2.366-6-.362-10.813-.827-6.125-.589-12.953.034-15.7,2.321-5.831,4.857-2.876,12.874,9.386,13.462v-5.74c-2.921-.125-5.469-.985-5.242-2.978C61.313,40.942,77.979,54.382,85.724,48.03Z" transform="translate(-53.413 -41.438)" fill="#2e2c70"/>
            <path d="M70.271,51.08v5.537c1.687.249,3.385,1.064,3.465,3.034-.17,3.872-13.53,2.9-16.485,7.926-3.2,5.457.192,10.394,8.084,11.141V73.566c-1.574-.317-3.827-.5-4.076-1.868C60.545,66.184,79.012,69,79.974,60.466,80.483,55.971,77.755,51.7,70.271,51.08Z" transform="translate(-53.064 -40.163)" fill="#2e2c70"/>
            <path d="M72.9,95.061c.283-2.31-1.381-6.023-4.291-6.6v3.4C70.274,92.649,72.075,93.442,72.9,95.061Z" transform="translate(-51.404 -35.22)" fill="#2e2c70"/>
            <path d="M69.826,71.59v4.789c1.642.385,2.638,1.325,2.219,2.6-2.5,3.329-8.345,2.661-11.639,6.182-2.774,3.6.793,7.076,4.484,7.541V89.355A1.644,1.644,0,0,1,63.7,87.69c1.076-3.68,9.114-1.993,12.262-7.812C77.536,75.745,75.487,72.575,69.826,71.59Z" transform="translate(-52.619 -37.451)" fill="#2e2c70"/>
            <path d="M73.64,43.074a2.256,2.256,0,0,0,1.245,1.664c1.257.51,2.332.894,3.329.419A3.169,3.169,0,0,0,73.64,43.074Z" transform="translate(-50.738 -41.271)" fill="#fff" fill-rule="evenodd"/>
            <path d="M77.116,44.521c-.1.249-.7.249-1.325-.011s-1.042-.679-.94-.928.7-.249,1.325.011S77.218,44.261,77.116,44.521Z" transform="translate(-50.58 -41.179)" fill="#2e2c70" fill-rule="evenodd"/>
        </g>
    </g>
    <g transform="translate(0 61.243)">
        <path d="M7.042,63.137a6.045,6.045,0,0,1-2.378.408A4.323,4.323,0,0,1,0,58.925,4.617,4.617,0,0,1,4.9,54.09,5.084,5.084,0,0,1,7.11,54.5l-.351,1.336a4.425,4.425,0,0,0-1.789-.351,3.047,3.047,0,0,0-3.2,3.363A2.986,2.986,0,0,0,4.959,62.14a5.042,5.042,0,0,0,1.823-.328Z" transform="translate(0 -54.09)" fill="#ec1c24"/>
        <path d="M9.484,60.776,8.7,63.368H6.97L9.9,54.22h2.129l2.978,9.148H13.2l-.827-2.593Zm2.627-1.257-.725-2.253c-.181-.555-.328-1.178-.464-1.71H10.9c-.136.532-.283,1.166-.43,1.71l-.713,2.253Z" transform="translate(0.922 -54.073)" fill="#ec1c24"/>
        <path d="M15.224,61.573a4.546,4.546,0,0,0,2.219.589c1.053,0,1.653-.5,1.653-1.245,0-.691-.464-1.1-1.619-1.517C15.96,58.855,15,58.051,15,56.738c0-1.506,1.245-2.638,3.25-2.638a4.685,4.685,0,0,1,2.185.464l-.4,1.347a3.928,3.928,0,0,0-1.834-.43c-1.064,0-1.506.555-1.506,1.1,0,.7.532,1.03,1.755,1.506,1.585.6,2.344,1.4,2.344,2.717,0,1.483-1.11,2.751-3.465,2.751a5.188,5.188,0,0,1-2.48-.589Z" transform="translate(1.964 -54.089)" fill="#ec1c24"/>
        <path d="M26.548,59.315H23.094V62h3.861v1.37H21.43V54.22h5.322v1.37H23.094v2.366h3.453Z" transform="translate(2.834 -54.073)" fill="#ec1c24"/>
        <path d="M35.371,59.642c-.057-1.178-.125-2.6-.113-3.838h-.045c-.294,1.11-.679,2.344-1.087,3.5l-1.347,3.963H31.5l-1.223-3.906c-.351-1.166-.679-2.412-.928-3.555h-.023c-.045,1.2-.091,2.649-.159,3.895l-.2,3.68H27.4l.611-9.148h2.2l1.2,3.68c.328,1.076.611,2.163.838,3.182h.045c.249-1,.555-2.117.906-3.193l1.268-3.668h2.174l.532,9.148h-1.63Z" transform="translate(3.623 -54.071)" fill="#ec1c24"/>
    </g>
    <g transform="translate(111.638 61.243)">
        <path d="M101.114,60.776l-.793,2.593H98.6l2.933-9.148h2.129l2.978,9.148h-1.812L104,60.776Zm2.615-1.257L103,57.266c-.181-.555-.328-1.178-.464-1.71h-.023c-.136.532-.283,1.166-.43,1.71l-.7,2.253Z" transform="translate(-98.6 -54.073)" fill="#ec1c24"/>
        <path d="M113.193,63.137a6.045,6.045,0,0,1-2.378.408,4.317,4.317,0,0,1-4.665-4.62,4.617,4.617,0,0,1,4.9-4.835,5.084,5.084,0,0,1,2.208.408l-.351,1.336a4.425,4.425,0,0,0-1.789-.351,3.047,3.047,0,0,0-3.2,3.363,2.986,2.986,0,0,0,3.193,3.295,5.043,5.043,0,0,0,1.823-.328Z" transform="translate(-97.602 -54.09)" fill="#ec1c24"/>
        <path d="M121.391,59.642c-.057-1.178-.125-2.6-.113-3.838h-.045c-.294,1.11-.679,2.344-1.087,3.5L118.8,63.265h-1.279L116.3,59.359c-.351-1.166-.679-2.412-.928-3.555h-.023c-.045,1.2-.091,2.649-.159,3.895l-.2,3.68H113.42l.611-9.148h2.2l1.2,3.68c.328,1.076.611,2.163.838,3.182h.045c.249-1,.555-2.117.906-3.193l1.268-3.668h2.174l.532,9.148h-1.63Z" transform="translate(-96.64 -54.071)" fill="#ec1c24"/>
        <path d="M123.585,61.573a4.546,4.546,0,0,0,2.219.589c1.053,0,1.653-.5,1.653-1.245,0-.691-.464-1.1-1.619-1.517-1.517-.543-2.491-1.347-2.491-2.661,0-1.506,1.245-2.638,3.25-2.638a4.685,4.685,0,0,1,2.185.464l-.4,1.347a3.928,3.928,0,0,0-1.834-.43c-1.064,0-1.506.555-1.506,1.1,0,.7.532,1.03,1.755,1.506,1.585.6,2.344,1.4,2.344,2.717,0,1.483-1.11,2.751-3.465,2.751a5.188,5.188,0,0,1-2.48-.589Z" transform="translate(-95.347 -54.089)" fill="#ec1c24"/>
        <path d="M134.908,59.315h-3.453V62h3.861v1.37H129.79V54.22h5.322v1.37h-3.657v2.366h3.453Z" transform="translate(-94.476 -54.073)" fill="#ec1c24"/>
    </g>
</svg>