<?xml version="1.0" encoding="utf-8"?>
<!-- Generator: Adobe Illustrator 26.0.3, SVG Export Plug-In . SVG Version: 6.00 Build 0)  -->
<svg version="1.1" id="Layer_1" xmlns="http://www.w3.org/2000/svg" xmlns:xlink="http://www.w3.org/1999/xlink" x="0px" y="0px"
	 viewBox="0 0 50 50" style="enable-background:new 0 0 50 50;" xml:space="preserve">
<style type="text/css">
	.st0{fill:#0060A9;}
	.st1{fill:#0060A9;stroke:#0060A9;stroke-width:0.25;stroke-linecap:round;stroke-linejoin:bevel;stroke-miterlimit:10;}
</style>
<g id="XMLID_91_">
	<path class="st0" d="M25,49.5c-13.5,0-24.5-11-24.5-24.5S11.5,0.5,25,0.5s24.5,11,24.5,24.5S38.5,49.5,25,49.5z M25,0.8
		C11.7,0.8,0.8,11.7,0.8,25c0,13.3,10.8,24.2,24.2,24.2S49.2,38.3,49.2,25C49.2,11.7,38.3,0.8,25,0.8z"/>
</g>
<g id="XMLID_90_">
	<path class="st0" d="M25,48C12.3,48,2,37.7,2,25C2,12.3,12.3,2,25,2s23,10.3,23,23C48,37.7,37.7,48,25,48z M25,2.4
		C12.5,2.4,2.4,12.5,2.4,25c0,12.5,10.2,22.6,22.6,22.6S47.6,37.5,47.6,25C47.6,12.5,37.5,2.4,25,2.4z"/>
</g>
<g>
	<g id="XMLID_88_">
		<path class="st1" d="M8.6,15.5l-0.1,0.3l-2.4-1.3l0.1-0.3L8.6,15.5z"/>
	</g>
	<g id="XMLID_86_">
		<path class="st1" d="M6.5,13.4l3-0.5l-1.7-1.2L8,11.5l2.3,1.6l-3,0.5L9,14.8L8.8,15L6.5,13.4z"/>
	</g>
	<g id="XMLID_84_">
		<path class="st1" d="M11,12.2l-0.2,0.2L9,10.8l-0.4,0.5l-0.2-0.2l1.1-1.2L9.6,10l-0.4,0.5L11,12.2z"/>
	</g>
	<g id="XMLID_82_">
		<path class="st1" d="M9.8,9.5l1-1L11,8.7l-0.8,0.8l0.5,0.6l0.8-0.7l0.2,0.2l-0.8,0.7l0.7,0.8l0.8-0.8l0.2,0.2l-1,1L9.8,9.5z"/>
	</g>
	<g id="XMLID_79_">
		<path class="st1" d="M11.8,8.1L11.8,8.1c0.4-0.3,0.7-0.4,0.9-0.1c0.3,0.3,0,0.6-0.3,0.8l-0.1,0.1L11.8,8.1z M12.5,9.1L12.5,9.1
			L14,9.5l0.3-0.2l-1.4-0.4c0.3-0.3,0.3-0.7,0.1-1c-0.4-0.5-0.8-0.3-1.2,0l-0.3,0.2l1.6,2.2l0.2-0.2L12.5,9.1z"/>
	</g>
	<g id="XMLID_77_">
		<path class="st1" d="M13.1,6.6l2.9,0.9L15,5.7l0.3-0.2L16.7,8l-2.9-0.9l1,1.8l-0.3,0.2L13.1,6.6z"/>
	</g>
	<g id="XMLID_74_">
		<path class="st1" d="M18,6.2l-0.9,0.3l0-1.2L18,6.2z M18.3,6.4L18.8,7l0.3-0.1L17,4.7l-0.1,3.1l0.3-0.1l0-0.8L18.3,6.4z"/>
	</g>
	<g id="XMLID_72_">
		<path class="st1" d="M20.1,6.6l-0.3,0.1l-0.7-2.4l-0.6,0.2l-0.1-0.3L20,3.8l0.1,0.3l-0.6,0.2L20.1,6.6z"/>
	</g>
	<g id="XMLID_70_">
		<path class="st1" d="M21.3,6.3L21,6.4l-0.6-2.7l0.3-0.1L21.3,6.3z"/>
	</g>
	<g id="XMLID_67_">
		<path class="st1" d="M22.8,3.6c0.6-0.1,1.2,0.4,1.2,1c0.1,0.6-0.4,1.2-1,1.2c-0.6,0.1-1.2-0.4-1.2-1C21.7,4.2,22.2,3.7,22.8,3.6z
			 M22.7,3.3c-0.8,0.1-1.3,0.8-1.3,1.5c0.1,0.8,0.8,1.3,1.6,1.3c0.8-0.1,1.3-0.8,1.3-1.5C24.2,3.8,23.5,3.2,22.7,3.3z"/>
	</g>
	<g id="XMLID_65_">
		<path class="st1" d="M24.9,3.1l2,2.3L27,3.3l0.3,0l-0.2,2.8l-2-2.3L25.1,6l-0.3,0L24.9,3.1z"/>
	</g>
	<g id="XMLID_62_">
		<path class="st1" d="M29.3,5.4l-0.9-0.2l0.7-1L29.3,5.4z M29.4,5.7l0.2,0.8l0.3,0.1l-0.6-3l-1.8,2.6l0.3,0.1l0.5-0.7L29.4,5.7z"/>
	</g>
	<g id="XMLID_60_">
		<path class="st1" d="M30.4,6.5l0.7,0.2L31.1,7l-1-0.3l0.8-2.6l0.3,0.1L30.4,6.5z"/>
	</g>
	<g id="XMLID_58_">
		<path class="st1" d="M34.4,6c0-0.2-0.1-0.4-0.3-0.5c-0.2-0.1-0.5,0-0.6,0.2c-0.1,0.2,0.1,0.4,0.2,0.6l0.1,0.1
			c0.3,0.3,0.4,0.6,0.3,1C33.9,7.9,33.4,8,33,7.8c-0.4-0.2-0.6-0.6-0.5-1l0.3,0.1c-0.1,0.3,0,0.6,0.3,0.7c0.3,0.1,0.6,0,0.7-0.2
			c0.1-0.3,0-0.5-0.2-0.7l-0.1-0.1c-0.2-0.3-0.4-0.5-0.2-0.9c0.2-0.4,0.6-0.5,1-0.3c0.3,0.1,0.4,0.4,0.5,0.7L34.4,6z"/>
	</g>
	<g id="XMLID_55_">
		<path class="st1" d="M36.6,6.9c0.5,0.3,0.7,1,0.3,1.6c-0.3,0.5-1,0.7-1.5,0.3c-0.5-0.3-0.7-1-0.3-1.6C35.3,6.8,36,6.6,36.6,6.9z
			 M36.7,6.7c-0.6-0.4-1.5-0.2-2,0.4c-0.4,0.7-0.2,1.5,0.4,2c0.6,0.4,1.5,0.3,2-0.4C37.6,8,37.4,7.1,36.7,6.7z"/>
	</g>
	<g id="XMLID_53_">
		<path class="st1" d="M39.6,9.8c0-0.3-0.1-0.6-0.4-0.8c-0.5-0.4-1.2-0.3-1.6,0.1c-0.4,0.4-0.4,1.2,0.1,1.6c0.2,0.2,0.6,0.3,0.9,0.3
			l-0.2,0.3c-0.3,0-0.6-0.1-0.8-0.3c-0.6-0.5-0.7-1.4-0.1-2c0.5-0.6,1.4-0.6,2-0.1c0.2,0.2,0.4,0.4,0.4,0.7L39.6,9.8z"/>
	</g>
	<g id="XMLID_51_">
		<path class="st1" d="M38.7,11.9l-0.2-0.2l2-1.9l0.2,0.2L38.7,11.9z"/>
	</g>
	<g id="XMLID_49_">
		<path class="st1" d="M41.2,10.6l0.9,1.1l-0.2,0.2L41.1,11l-0.6,0.5l0.7,0.8L41,12.5l-0.7-0.8l-0.8,0.7l0.7,0.9l-0.2,0.2l-0.9-1.1
			L41.2,10.6z"/>
	</g>
	<g id="XMLID_47_">
		<path class="st1" d="M40.6,14.4l-0.2-0.3l2-1.4l-0.4-0.5l0.2-0.2l0.9,1.3L43,13.6L42.6,13L40.6,14.4z"/>
	</g>
	<g id="XMLID_45_">
		<path class="st1" d="M43.4,13.6l0.2,0.3l-0.7,1.2l1.4,0l0.2,0.3l-1.8,0l-1,0.6l-0.1-0.3l1-0.6L43.4,13.6z"/>
	</g>
</g>
<g>
	<g id="XMLID_43_">
		<path class="st1" d="M9.8,36.8l-0.6,0.5L9.8,38l-0.2,0.2L9,37.5l-1,0.9l-0.2-0.2l2-1.8l0.8,0.9l-0.2,0.2L9.8,36.8z"/>
	</g>
	<g id="XMLID_40_">
		<path class="st1" d="M11.6,38.7c0.5,0.4,0.5,1.1,0,1.6c-0.4,0.4-1.1,0.5-1.6,0.1c-0.4-0.4-0.5-1.1,0-1.6
			C10.5,38.3,11.2,38.2,11.6,38.7z M11.8,38.5c-0.6-0.5-1.5-0.5-2,0c-0.5,0.6-0.5,1.5,0.1,2c0.6,0.5,1.5,0.5,2,0
			C12.4,39.9,12.4,39,11.8,38.5z"/>
	</g>
	<g id="XMLID_37_">
		<path class="st1" d="M13.2,40L13.2,40c0.4,0.3,0.6,0.5,0.3,0.9c-0.3,0.3-0.6,0.2-0.8,0l-0.1-0.1L13.2,40z M12.4,41L12.4,41l0,1.5
			l0.3,0.2l0-1.5c0.4,0.2,0.7,0.1,1-0.2c0.4-0.5,0.1-0.9-0.3-1.2l-0.3-0.2l-1.6,2.2l0.2,0.2L12.4,41z"/>
	</g>
	<g id="XMLID_35_">
		<path class="st1" d="M16.3,42.4c0-0.2-0.1-0.4-0.3-0.5c-0.2-0.1-0.5-0.1-0.6,0.2c-0.1,0.2,0,0.4,0.2,0.6l0.1,0.2
			c0.2,0.3,0.4,0.6,0.2,1c-0.2,0.4-0.7,0.6-1.2,0.3c-0.4-0.2-0.5-0.6-0.4-1l0.3,0.1c-0.1,0.3,0,0.6,0.2,0.7c0.3,0.1,0.6,0.1,0.7-0.2
			c0.2-0.3,0-0.5-0.2-0.7l-0.1-0.1c-0.2-0.3-0.4-0.6-0.2-0.9c0.2-0.4,0.6-0.4,1-0.2c0.3,0.1,0.4,0.4,0.4,0.7L16.3,42.4z"/>
	</g>
	<g id="XMLID_33_">
		<path class="st1" d="M17.1,42.2l1.3,0.6L18.3,43l-1-0.4L17,43.3l1,0.4L17.9,44l-1-0.4l-0.4,1l1,0.4l-0.1,0.3l-1.3-0.6L17.1,42.2z"
			/>
	</g>
	<g id="XMLID_31_">
		<path class="st1" d="M18.7,42.8l0.3,0.1l0.2,1.1l0.8-0.8l0.3,0.1l-1.1,1l0.4,1.6l-0.3-0.1l-0.3-1.3l-0.9,0.9l-0.3-0.1l1.2-1.1
			L18.7,42.8z"/>
	</g>
	<g id="XMLID_29_">
		<path class="st1" d="M20.7,45.1c0,0.2-0.1,0.4,0,0.6c0.1,0.2,0.3,0.3,0.5,0.4c0.2,0,0.4,0,0.6-0.1c0.2-0.1,0.2-0.4,0.2-0.6
			l0.3-1.6l0.3,0.1l-0.3,1.7c-0.1,0.3-0.1,0.5-0.4,0.7c-0.2,0.2-0.5,0.2-0.8,0.2c-0.3,0-0.5-0.2-0.6-0.4c-0.2-0.3-0.2-0.5-0.1-0.8
			l0.3-1.7l0.3,0.1L20.7,45.1z"/>
	</g>
	<g id="XMLID_26_">
		<path class="st1" d="M24.3,45.6l-0.9,0l0.5-1.1L24.3,45.6z M24.4,45.8l0.3,0.8l0.3,0L24,43.7l-1.4,2.8l0.3,0l0.4-0.8L24.4,45.8z"
			/>
	</g>
	<g id="XMLID_24_">
		<path class="st1" d="M25.8,46.3l0.7,0l0,0.3l-1.1,0.1l-0.1-2.7l0.3,0L25.8,46.3z"/>
	</g>
	<g id="XMLID_21_">
		<path class="st1" d="M33.7,44.6l-0.9-2l0.2-0.1c0.3-0.1,0.6-0.2,0.9-0.1c0.3,0.1,0.5,0.3,0.7,0.6c0.1,0.3,0.1,0.6,0,0.9
			c-0.1,0.3-0.4,0.5-0.7,0.6L33.7,44.6z M33.6,45l0.5-0.2c0.4-0.2,0.7-0.3,0.9-0.7c0.2-0.4,0.2-0.7,0-1.1c-0.2-0.4-0.4-0.6-0.8-0.8
			c-0.4-0.1-0.7,0-1.1,0.1l-0.5,0.2L33.6,45z"/>
	</g>
	<g id="XMLID_19_">
		<path class="st1" d="M39,41.6l-0.2,0.2L37,39.7l0.2-0.2L39,41.6z"/>
	</g>
	<g id="XMLID_17_">
		<path class="st1" d="M36.1,43.7l-0.3,0.2l-1.4-2.3l0.3-0.2L36.1,43.7z"/>
	</g>
	<g id="XMLID_15_">
		<path class="st1" d="M28.1,43.6l1.4,2l0.5-2.4l1.1,2.7l-0.3,0.1l-0.7-1.7l0,0l-0.5,2.1l-1.3-1.7l0,0l0,1.9l-0.3,0.1L28.1,43.6z"/>
	</g>
	<g id="XMLID_13_">
		<path class="st1" d="M30.7,43.1l1.3-0.5l0.1,0.3l-1,0.4l0.3,0.8l1-0.4l0.1,0.3l-1,0.4l0.3,1l1-0.4l0.1,0.3l-1.3,0.5L30.7,43.1z"/>
	</g>
	<g id="XMLID_11_">
		<path class="st1" d="M37.5,39.1l3.1,0.1l-1.5-1.5l0.2-0.2l2,2.1l-3.1-0.1l1.5,1.5l-0.2,0.2L37.5,39.1z"/>
	</g>
	<g id="XMLID_9_">
		<path class="st1" d="M37.1,40.4c-0.3-0.1-0.6,0-0.9,0.2c-0.5,0.4-0.6,1.1-0.2,1.6c0.4,0.5,1.1,0.6,1.6,0.3
			c0.2-0.2,0.4-0.5,0.4-0.8l0.2,0.3c-0.1,0.3-0.3,0.5-0.5,0.7c-0.6,0.5-1.5,0.3-2-0.3c-0.5-0.6-0.3-1.5,0.3-2
			c0.2-0.2,0.5-0.3,0.8-0.3L37.1,40.4z"/>
	</g>
	<g id="XMLID_7_">
		<path class="st1" d="M39.7,37.1l0.9-1.1l0.2,0.2l-0.7,0.8l0.6,0.5l0.7-0.8l0.2,0.2l-0.7,0.8l0.8,0.7l0.7-0.8l0.2,0.2l-0.9,1.1
			L39.7,37.1z"/>
	</g>
</g>
<g id="XMLID_6_">
	<path class="st0" d="M12.6,15.7c-0.6,0.1-1.7,0.8-2.1,1.1C6.8,21.9,8.1,30.1,10.4,33c0.3,0.4,1.5,0.9,2,1
		C10.4,31.4,9.5,20.7,12.6,15.7z"/>
</g>
<g id="XMLID_5_">
	<path class="st0" d="M18,19.2c0.3-0.7,1.6-4.2,1.6-4.2s-1.1-1.2-2.5-1c-3.5,0.5-5.1,5.8-4.9,9.6c0.4,4.5,4.2,3,4.3,7.3
		c0.2,1.9-1.1,1.8-1.9,1.2c-0.7-0.5-1.4-1.5-1.6-2.1c-0.1,1.7-0.1,2.6,0,4c0.6,1.1,3.1,2.7,4.2,2.5c0.8-0.1,2-0.3,2.4-2.9
		c0.1-0.9,0.2-1.7,0.3-3.2c0-1.5-0.4-5.6-2.5-7.4c-1.1-0.8-3.3-1.5-2.2-4.2C15.6,17.8,17,17.4,18,19.2z"/>
</g>
<g id="XMLID_4_">
	<path class="st0" d="M28.2,17.8c0.4-1.8,0.8-3.6,0.9-4.2c-0.3-0.6-2.5-1.2-4-1.2c-5.1,0.1-5.2,6.3-5.3,8.1c-0.2,4.4,1.9,6,2.8,6.6
		c1.6,1.2,3.8,1.8,3.7,4.4c-0.1,4.7-4.3,2.2-5.4-0.2c-0.5,1.7-0.9,4.4-1.1,5c2.1,1.9,4,2,4.9,2c5.3-0.1,5.7-6.3,5.7-8.9
		c-0.2-5-1.8-6.8-3.8-7.9c-2.6-1.5-2.9-2.2-2.7-3.9C24.4,15.3,27,15.7,28.2,17.8z"/>
</g>
<g id="XMLID_3_">
	<path class="st0" d="M30.8,14.3c0.7,0.1,2.8,0.6,3.5,1.2c1.3,2.1,3.1,7.3,3.1,7.9c1.2-2.9,1.6-5.3,1.6-6.9c0.8,0.5,1.3,1.2,1.8,1.8
		c1.5,3.5,2.1,9.6,0,15.3c-0.6,0.6-1.8,1.1-2.2,1.1c1-3.4,2.1-9.5,1.2-10.9c-0.3,1.6-1.2,3.9-2.1,5.2c-0.7-2-1.8-4.8-2.6-5.3
		c0.4,2.7-0.1,8.8-0.9,12.3c-0.8,0.6-2.4,1-3.7,1.3C32,33,31.9,18.8,30.8,14.3z"/>
</g>
</svg>
