<?xml version="1.0" encoding="UTF-8"?>
<svg id="Layer_1" data-name="Layer 1" xmlns="http://www.w3.org/2000/svg" viewBox="0 0 720 720">
  <defs>
    <style>
      .cls-1 {
        fill: #fff;
      }

      .cls-2 {
        fill: #ed1c24;
      }
    </style>
  </defs>
  <rect class="cls-1" y="57.03" width="714.87" height="571.69"/>
  <g>
    <path class="cls-2" d="M522.59,523.23l-7.09,18.23h13.58l-3.97-10.91c-1.68-4.73-2.52-7.32-2.52-7.32Z"/>
    <path class="cls-2" d="M475.31,540.47c-2.59,0-2.9,.08-3.97,.15v18.84c0,2.44,.69,3.35,2.67,3.58,1.07,.15,2.44,.15,3.43,.15,6.48-.08,11.36-2.9,11.36-11.52,0-10.52-8.85-11.21-13.5-11.21Z"/>
    <path class="cls-2" d="M480.95,537.26c.46-.15,5.34-1.98,5.34-9.46,0-9.38-7.09-9.76-11.06-9.76-1.45,0-3.89,.31-3.89,.31v19.37c1.14,.08,2.75,.15,4.42,.15,2.06,0,4.04-.15,5.19-.61Z"/>
    <path class="cls-2" d="M236.15,523.23l-7.09,18.23h13.58l-3.97-10.91c-1.68-4.73-2.52-7.32-2.52-7.32Z"/>
    <path class="cls-2" d="M123.17,230.24c-5.86-14.17-9.28-26.38-9.28-26.38,0,0-8.3,210.04-8.3,219.32s-.98,24.91,3.91,33.7c.41,.82,4.99,8.24,17.82,11.72h95.06L123.17,230.24Z"/>
    <path class="cls-2" d="M581.01,294.72c2.93-.97,34.19-12.7,34.19-60.57,0-60.08-45.43-62.52-70.82-62.52-9.28,0-24.92,1.96-24.92,1.96v124.08c7.33,.49,17.59,.97,28.33,.97,13.18,0,25.89-.97,33.22-3.91Z"/>
    <path class="cls-2" d="M0,0V720H720V0H0ZM17.96,468.62H55.81c5.19-1.43,11.04-4.13,15.58-9.28,7.81-8.8,8.3-21.49,10.26-60.57l7.82-165.11c.49-6.84,1.46-31.26,1.46-36.63,0-13.18-1.46-18.08-4.88-22.96-2.44-3.9-9.77-11.23-25.4-12.7v-6.84c19.54,.98,23.94,1.96,41.03,1.96,8.3,0,23.44-.49,30.77-1.46l99.65,239.83c5.37,12.71,7.33,21.98,7.33,21.98,0,0,2.93-9.77,7.81-21.49l101.6-240.32c7.33,.97,19.54,1.46,27.85,1.46,17.1,0,20.51,0,41.52-1.96v6.84c-9.77,.98-18.07,3.42-23.94,10.75-5.37,6.34-6.84,13.67-6.84,27.84,0,7.33,.49,20.52,.98,30.78l7.33,174.88c1.46,30.28,1.96,43.96,7.81,52.26,.8,1.2,5.21,7.65,16.45,10.75h37.84c4.7-1.53,9.67-4.18,13.73-8.79,8.31-9.28,8.8-22.95,8.8-64.97V222.92c0-37.62-1.47-45.43-10.26-53.25-3.91-3.42-11.72-6.83-21.01-7.81v-6.84s16.12,1.96,40.06,1.96c21.98,0,34.19-1.46,66.91-1.46,24.92,0,100.63,1.46,100.63,71.8,0,45.43-29.79,69.36-71.31,78.16,51.29,4.4,88.41,26.86,88.41,82.55,0,23.45-7.81,44.94-24.42,61.55-8.78,8.78-19.15,14.86-30.46,19.05h83.11v10H17.96v-10Zm59.49,97.17c-2.97-.15-5.34-.3-8.01-.3s-4.65,0-7.93,.3v-1.07c.91-.08,2.67-.38,3.81-1.68,1.14-1.3,1.07-3.89,1.07-5.49,0-.53-1.22-34.32-1.22-34.32,0,0-.53,1.91-1.45,4.04l-16.47,38.67h-1.37l-16.09-38.67c-.92-2.21-1.45-4.12-1.45-4.12,0,0-1.3,32.79-1.3,34.24s-.15,3.89,.61,5.26c.08,.15,1.07,1.75,4.04,2.06v1.07c-2.97-.23-4.5-.3-7.17-.3s-3.28,0-6.56,.3v-1.07c.92-.08,2.59-.38,3.74-1.68,1.22-1.37,1.3-3.36,1.6-9.46l1.22-25.78c.08-1.07,.23-4.88,.23-5.72,0-2.06-.23-2.82-.76-3.59-.38-.61-1.53-1.75-3.97-1.98v-1.07c3.05,.15,3.74,.31,6.41,.31,1.3,0,3.66-.08,4.8-.23l15.56,37.45c.84,1.98,1.14,3.43,1.14,3.43,0,0,.46-1.53,1.22-3.36l15.86-37.52c1.14,.15,3.05,.23,4.35,.23,2.67,0,3.2,0,6.48-.31v1.07c-1.53,.15-2.82,.53-3.74,1.68-.84,.99-1.07,2.13-1.07,4.35,0,1.14,.08,3.2,.15,4.81l1.14,27.3c.23,4.73,.31,6.86,1.22,8.16,.15,.23,1.14,1.68,3.89,1.91v1.07Zm24.55-49.27c-.91,0-2.59,.38-3.74,1.68-1.3,1.45-1.37,3.58-1.37,10.14v26.85c0,5.87,.23,7.09,1.6,8.31,.61,.53,1.83,1.07,3.28,1.22v1.07c-2.97-.15-5.34-.3-8.01-.3s-4.96,0-8.24,.3v-1.07c.92,0,2.59-.38,3.74-1.68,1.3-1.45,1.37-3.58,1.37-10.14v-26.85c0-5.87-.23-7.09-1.6-8.31-.61-.53-1.83-1.07-3.28-1.22v-1.07c2.97,.15,5.34,.31,8.01,.31s4.96,0,8.24-.31v1.07Zm38.74,49.12h-17.69c-5.19,0-11.21,0-12.66,.15v-1.07c.92,0,2.59-.38,3.74-1.68,1.3-1.45,1.37-3.58,1.37-10.14v-26.85c0-5.87-.23-7.09-1.6-8.31-.61-.53-1.83-1.07-3.28-1.22v-1.07c2.97,.15,5.87,.31,8.54,.31s6.33,0,9.61-.31v1.14c-1.37,.08-4.35,.23-5.57,1.68-1.3,1.45-1.45,3.2-1.45,10.07v30.58c0,3.43,.84,3.89,4.96,3.89h4.27c3.36,0,5.49-.15,6.94-1.6,.99-1.07,1.75-2.75,1.83-5.41h1.22c-.31,3.51-.23,9.84-.23,9.84Zm70.77-46.98c-.76,1.3-2.21,5.8-3.13,8.54l-12.97,38.59-3.43,.61-11.59-36.69c-.69-2.13-1.07-4.04-1.07-4.04,0,0-.3,1.83-1.14,4.27l-11.9,35.77-3.74,.76-12.58-40.65c-.91-3.05-1.91-6.18-2.59-7.24-.84-1.3-1.83-1.91-3.51-2.06v-1.07c2.14,.15,4.88,.31,7.02,.31s5.64-.15,7.78-.31v1.07c-1.07,.08-2.52,.38-3.2,1.07-.46,.38-.61,.99-.61,1.68,0,1.07,.53,2.82,1.07,4.58l8.77,29.36c.69,2.44,.99,4.04,.99,4.04,0,0,.31-1.98,1.07-4.2l12.43-37.37,2.67-.46,12.2,37.98c.61,1.91,.99,4.04,.99,4.04,0,0,.38-1.83,1.07-4.2l8.92-29.29c.53-1.83,.99-3.58,.99-4.5,0-.69-.15-1.3-.61-1.68-.76-.69-2.14-.99-3.13-1.07v-1.07c2.13,.15,4.5,.31,6.63,.31s4.19-.08,6.25-.31v1.07c-1.75,.08-2.97,.92-3.66,2.14Zm49.19,47.13c-2.14-.15-5.34-.3-7.47-.3s-5.34,.23-7.47,.3v-1.07c1.14-.08,2.36-.38,3.13-1.07,.46-.38,.69-.99,.69-1.75,0-.99-.61-2.82-1.22-4.5l-4.65-12.96h-15.86l-5.03,12.96c-.61,1.68-1.3,3.51-1.3,4.5,0,.76,.23,1.37,.69,1.75,.76,.69,1.91,.99,3.05,1.07v1.07s-4.58-.3-6.71-.3-3.97,.08-6.1,.3v-1.07c2.82-.15,3.66-2.21,3.89-2.59,.3-.53,1.37-2.9,2.67-6.03l17.24-40.88,2.97-.61,14.87,40.57c1.37,3.81,2.29,6.18,2.75,6.94,.23,.38,1.07,2.44,3.89,2.59v1.07Zm49.65-49.27c-.92,0-2.59,.38-3.74,1.68-1.3,1.45-1.37,3.58-1.37,10.14v13.5c0,4.88,.15,10.6-1.45,14.87-2.21,6.1-7.4,9.61-17.69,9.61-11.74,0-15.94-4.58-17.69-9.61-1.3-3.81-1.14-8.31-1.14-12.28v-18.38c0-5.87-.23-7.09-1.6-8.31-.61-.53-1.83-1.07-3.28-1.22v-1.07c2.97,.15,5.34,.31,8.01,.31s4.96,0,8.24-.31v1.07c-.91,0-2.59,.38-3.74,1.68-1.3,1.45-1.37,3.58-1.37,10.14v17.62c0,10.14,1.07,17.39,13.42,17.39s13.35-7.78,13.35-17.85v-19.45c0-5.87-.23-7.09-1.6-8.31-.61-.53-1.83-1.07-3.28-1.22v-1.07c2.97,.15,4.65,.31,7.32,.31s4.35,0,7.63-.31v1.07Zm22.57,49.27c-2.97-.15-5.34-.3-8.01-.3s-4.96,0-8.24,.3v-1.07c.92,0,2.59-.38,3.74-1.68,1.3-1.45,1.37-3.58,1.37-10.14v-26.85c0-5.87-.23-7.09-1.6-8.31-.61-.53-1.83-1.07-3.28-1.22v-1.07c2.97,.15,4.65,.31,8.01,.31,2.67,0,4.96,0,8.24-.31v1.07c-.91,0-2.59,.38-3.74,1.68-1.3,1.45-1.37,3.58-1.37,10.14v26.85c0,5.87,.23,7.09,1.6,8.31,.61,.53,1.83,1.07,3.28,1.22v1.07Zm26.77-49.27c-1.22,.08-3.51,.69-7.7,4.73l-17.24,16.4,17.77,22.27c1.91,2.36,3.81,4.65,6.56,4.81v1.07c-2.59-.15-3.81-.15-6.33-.15h-3.81l-19.91-26.08,16.78-17.47c.91-.99,1.98-2.06,1.98-3.2,0-.99-.53-1.53-1.22-1.83-.69-.31-1.53-.46-2.21-.53v-1.07c1.98,.15,3.13,.31,7.55,.31,3.36,0,5.26-.08,7.78-.31v1.07Zm34.24,49.12h-18.3c-4.27,0-8.39-.08-12.66,.15v-1.07c1.07-.08,2.59-.38,3.74-1.68,1.3-1.45,1.37-3.58,1.37-10.14v-26.69c0-5.64-.08-6.79-1.3-8.16-.76-.84-1.83-1.3-3.58-1.45v-1.07c4.19,.23,6.64,.23,10.91,.23h19.6s-.08,5.8,.23,9.3h-1.22c-.08-2.44-.84-4.12-1.91-5.03-1.53-1.37-3.74-1.45-6.79-1.45h-9.68v19.68h8.85c3.2,0,4.81-.23,5.95-1.45,1.3-1.3,1.3-3.2,1.37-4.42h1.14c0,1.68-.15,2.44-.15,7.25s.15,5.34,.23,7.09h-1.22c0-1.3-.15-3.05-1.45-4.35-1.14-1.22-3.13-1.37-6.03-1.37h-8.69v17.92c0,3.43,.84,3.89,4.96,3.89h4.88c3.36,0,5.49-.15,6.94-1.6,.99-1.07,1.75-2.75,1.83-5.41h1.22c-.3,3.51-.23,9.84-.23,9.84Zm40.65,0h-18.3c-4.27,0-8.39-.08-12.66,.15v-1.07c1.07-.08,2.59-.38,3.74-1.68,1.3-1.45,1.37-3.58,1.37-10.14v-26.69c0-5.64-.08-6.79-1.3-8.16-.76-.84-1.83-1.3-3.58-1.45v-1.07c4.19,.23,6.64,.23,10.91,.23h19.6s-.08,5.8,.23,9.3h-1.22c-.08-2.44-.84-4.12-1.91-5.03-1.53-1.37-3.74-1.45-6.79-1.45h-9.68v19.68h8.85c3.2,0,4.81-.23,5.95-1.45,1.3-1.3,1.3-3.2,1.37-4.42h1.14c0,1.68-.15,2.44-.15,7.25s.15,5.34,.23,7.09h-1.22c0-1.3-.15-3.05-1.45-4.35-1.14-1.22-3.13-1.37-6.03-1.37h-8.69v17.92c0,3.43,.84,3.89,4.96,3.89h4.88c3.36,0,5.49-.15,6.94-1.6,.99-1.07,1.75-2.75,1.83-5.41h1.22c-.3,3.51-.23,9.84-.23,9.84Zm57.04-4.19c-3.74,3.74-9.3,4.35-14.72,4.35-3.13,0-6.1-.3-8.92-.3-2.67,0-4.58,0-7.86,.3v-1.07c.99-.08,2.59-.38,3.74-1.68,1.3-1.45,1.37-3.58,1.37-10.14v-26.85c0-5.87-.23-7.09-1.6-8.31-.61-.53-1.83-1.07-3.28-1.22v-1.07s2.52,.31,6.25,.31c3.43,0,5.34-.23,10.45-.23,3.89,0,15.71,.23,15.71,11.21,0,7.09-4.65,10.83-11.13,12.2,8.01,.69,13.8,4.19,13.8,12.89,0,3.66-1.22,7.02-3.81,9.61Zm55.52,4.35c-2.14-.15-5.34-.3-7.47-.3s-5.34,.23-7.47,.3v-1.07c1.14-.08,2.36-.38,3.13-1.07,.46-.38,.69-.99,.69-1.75,0-.99-.61-2.82-1.22-4.5l-4.65-12.96h-15.86l-5.03,12.96c-.61,1.68-1.3,3.51-1.3,4.5,0,.76,.23,1.37,.69,1.75,.76,.69,1.91,.99,3.05,1.07v1.07s-4.58-.3-6.71-.3-3.97,.08-6.1,.3v-1.07c2.82-.15,3.66-2.21,3.89-2.59,.3-.53,1.37-2.9,2.67-6.03l17.24-40.88,2.97-.61,14.87,40.57c1.37,3.81,2.29,6.18,2.75,6.94,.23,.38,1.07,2.44,3.89,2.59v1.07Zm34.09-.15h-17.69c-5.19,0-11.21,0-12.66,.15v-1.07c.92,0,2.59-.38,3.74-1.68,1.3-1.45,1.37-3.58,1.37-10.14v-26.85c0-5.87-.23-7.09-1.6-8.31-.61-.53-1.83-1.07-3.28-1.22v-1.07c2.97,.15,5.87,.31,8.54,.31s6.33,0,9.61-.31v1.14c-1.37,.08-4.35,.23-5.57,1.68-1.3,1.45-1.45,3.2-1.45,10.07v30.58c0,3.43,.84,3.89,4.96,3.89h4.27c3.36,0,5.49-.15,6.94-1.6,.99-1.07,1.75-2.75,1.83-5.41h1.22c-.31,3.51-.23,9.84-.23,9.84Zm37.75,0h-17.69c-5.19,0-11.21,0-12.66,.15v-1.07c.92,0,2.59-.38,3.74-1.68,1.3-1.45,1.37-3.58,1.37-10.14v-26.85c0-5.87-.23-7.09-1.6-8.31-.61-.53-1.83-1.07-3.28-1.22v-1.07c2.97,.15,5.87,.31,8.54,.31s6.33,0,9.61-.31v1.14c-1.37,.08-4.35,.23-5.57,1.68-1.3,1.45-1.45,3.2-1.45,10.07v30.58c0,3.43,.84,3.89,4.96,3.89h4.27c3.36,0,5.49-.15,6.94-1.6,.99-1.07,1.75-2.75,1.83-5.41h1.22c-.31,3.51-.23,9.84-.23,9.84Zm38.36,0h-18.3c-4.27,0-8.39-.08-12.66,.15v-1.07c1.07-.08,2.59-.38,3.74-1.68,1.3-1.45,1.37-3.58,1.37-10.14v-26.69c0-5.64-.08-6.79-1.3-8.16-.76-.84-1.83-1.3-3.59-1.45v-1.07c4.19,.23,6.64,.23,10.91,.23h19.6s-.08,5.8,.23,9.3h-1.22c-.08-2.44-.84-4.12-1.91-5.03-1.53-1.37-3.74-1.45-6.79-1.45h-9.68v19.68h8.85c3.2,0,4.81-.23,5.95-1.45,1.3-1.3,1.3-3.2,1.37-4.42h1.14c0,1.68-.15,2.44-.15,7.25s.15,5.34,.23,7.09h-1.22c0-1.3-.15-3.05-1.45-4.35-1.14-1.22-3.13-1.37-6.03-1.37h-8.69v17.92c0,3.43,.84,3.89,4.96,3.89h4.88c3.36,0,5.49-.15,6.94-1.6,.99-1.07,1.75-2.75,1.83-5.41h1.22c-.3,3.51-.23,9.84-.23,9.84Zm43.47-40.57c-.08-2.44-.84-4.12-1.91-5.03-1.53-1.37-3.74-1.45-6.79-1.45h-6.03v36.68c0,4.81,.23,6.33,.99,7.4,1.22,1.83,4.81,2.06,5.41,2.06v1.07c-3.28-.15-6.63-.3-9.91-.3-2.67,0-6.18,0-9.23,.3v-1.07c1.14,0,3.97-.46,5.11-1.75,1.3-1.45,1.37-3.51,1.37-10.07v-34.32h-4.96c-3.43,0-6.33-.08-8.01,1.53-.84,.76-1.68,2.59-1.75,4.96h-1.22c.31-3.51,.23-9.3,.23-9.3h37.68s-.08,5.8,.23,9.3h-1.22Z"/>
    <path class="cls-2" d="M536.55,459.83c6.84,.98,15.64,.98,21.98,.98,41.53-.5,72.79-18.56,72.79-73.76,0-67.41-56.67-71.81-86.46-71.81-16.61,0-18.56,.49-25.4,.97v120.66c0,15.63,4.4,21.48,17.1,22.95Z"/>
    <path class="cls-2" d="M334.89,468.62c5.33-1.43,11.37-4.13,15.91-9.28,7.33-8.3,6.84-24.91,6.84-35.17,0-3.42-7.81-219.81-7.81-219.81,0,0-3.42,12.21-9.28,25.89l-101.56,238.37h95.91Z"/>
  </g>
</svg>